<?xml version="1.0" encoding="utf-8" ?>
<svg baseProfile="full" height="317" version="1.1" viewBox="0,0,570,317" width="570" xmlns="http://www.w3.org/2000/svg" xmlns:ev="http://www.w3.org/2001/xml-events" xmlns:xlink="http://www.w3.org/1999/xlink"><defs><style type="text/css"><![CDATA[
	.background { fill: white; }
	.line { stroke: firebrick; stroke-width: .1mm; }
	.blacksquare { fill: indigo; }
	.whitesquare { fill: white; }
]]></style></defs><path d="M 322.229123 195.200000 L 325.115123 195.319000 L 328.000123 195.465000 L 330.883123 195.650000 L 333.763123 195.864000 L 336.644123 196.080000 L 339.525123 196.279000 L 342.409123 196.439000 L 345.295123 196.556000 L 348.183123 196.625000 L 351.071123 196.622000 L 353.957123 196.519000 L 356.837123 196.298000 L 359.700123 195.925000 L 362.531123 195.355000 L 365.296123 194.521000 L 367.920123 193.313000 L 370.363123 191.776000 L 372.511123 189.853000 L 374.281123 187.583000 L 375.843123 185.155000 L 377.065123 182.549000 L 377.975123 179.811000 L 378.667123 177.008000 L 379.214123 174.172000 L 379.692123 171.324000 L 380.132123 168.469000 L 380.590123 165.617000 L 381.155123 162.785000 L 381.847123 159.981000 L 382.629123 157.200000" fill="none" id="2" stroke="#00a391" stroke-width="1.5" /><path d="M 383.429123 159.600000 L 382.993123 162.165000 L 382.461123 164.711000 L 381.812123 167.230000 L 381.024123 169.709000 L 380.102123 172.141000 L 379.045123 174.517000 L 377.852123 176.827000 L 376.516123 179.058000 L 375.035123 181.195000 L 373.406123 183.221000 L 371.629123 185.119000 L 369.705123 186.868000 L 367.631123 188.433000 L 365.380123 189.737000 L 363.128123 191.040000 L 360.706123 191.990000 L 358.215123 192.740000 L 355.680123 193.319000 L 353.115123 193.748000 L 350.531123 194.045000 L 347.936123 194.231000 L 345.337123 194.329000 L 342.735123 194.352000 L 340.134123 194.337000 L 337.532123 194.311000 L 334.931123 194.272000 L 332.329123 194.254000 L 329.728123 194.286000 L 327.128123 194.373000 L 324.529123 194.500000" fill="none" id="3" stroke="#00a391" stroke-width="1.5" /><path d="M 384.229123 166.600000 L 383.908123 167.425000 L 383.587123 168.249000 L 383.261123 169.072000 L 382.936123 169.894000 L 382.604123 170.715000 L 382.273123 171.535000 L 381.933123 172.352000 L 381.593123 173.169000 L 381.241123 173.981000 L 380.889123 174.793000 L 380.526123 175.600000 L 380.164123 176.407000 L 379.790123 177.209000 L 379.417123 178.011000 L 379.027123 178.806000 L 378.638123 179.600000 L 378.230123 180.385000 L 377.822123 181.170000 L 377.396123 181.946000 L 376.970123 182.722000 L 376.525123 183.487000 L 376.081123 184.252000 L 375.601123 184.995000 L 375.121123 185.739000 L 374.602123 186.455000 L 374.082123 187.171000 L 373.531123 187.863000 L 372.980123 188.556000 L 372.405123 189.228000 L 371.829123 189.900000" fill="none" id="4" stroke="#00a391" stroke-width="1.5" /><path d="M 353.929123 75.900000 L 357.281123 76.965100 L 360.474123 78.435000 L 363.393123 80.385400 L 365.922123 82.814300 L 368.077123 85.584200 L 369.881123 88.596200 L 371.377123 91.774500 L 372.611123 95.064700 L 373.617123 98.432500 L 374.419123 101.855000 L 375.028123 105.317000 L 375.472123 108.806000 L 375.887123 112.298000 L 376.389123 115.779000 L 377.023123 119.238000 L 377.771123 122.674000 L 378.579123 126.097000 L 379.404123 129.516000 L 380.218123 132.937000 L 380.958123 136.375000 L 381.522123 139.845000 L 381.892123 143.340000 L 382.088123 146.851000 L 382.079123 150.365000 L 381.861123 153.874000 L 381.506123 157.373000 L 381.058123 160.861000 L 380.564123 164.343000 L 380.057123 167.823000 L 379.529123 171.300000" fill="none" id="5" stroke="#00a391" stroke-width="1.5" /><path d="M 355.529123 75.100000 L 358.392123 76.664300 L 361.114123 78.461000 L 363.632123 80.533400 L 365.881123 82.893800 L 367.878123 85.470600 L 369.625123 88.223700 L 371.096123 91.132300 L 372.288123 94.166300 L 373.327123 97.258100 L 374.091123 100.425000 L 374.572123 103.649000 L 374.858123 106.898000 L 375.120123 110.150000 L 375.456123 113.395000 L 375.862123 116.631000 L 376.341123 119.858000 L 376.891123 123.073000 L 377.485123 126.281000 L 378.107123 129.484000 L 378.743123 132.683000 L 379.379123 135.883000 L 379.999123 139.086000 L 380.588123 142.295000 L 381.132123 145.511000 L 381.615123 148.737000 L 382.024123 151.974000 L 382.341123 155.220000 L 382.539123 158.477000 L 382.627123 161.738000 L 382.629123 165.000000" fill="none" id="6" stroke="#00a391" stroke-width="1.5" /><path d="M 364.029123 79.000000 L 368.363123 77.787900 L 372.571123 76.196900 L 376.570123 74.136300 L 380.366123 71.718800 L 384.053123 69.137700 L 387.675123 66.464300 L 391.266123 63.749200 L 394.843123 61.017100 L 398.403123 58.262100 L 401.935123 55.471500 L 405.430123 52.634100 L 408.881123 49.743600 L 412.276123 46.787800 L 415.612123 43.766100 L 418.876123 40.665600 L 422.060123 37.483400 L 425.162123 34.221500 L 428.234123 30.931400 L 431.347123 27.679400 L 434.520123 24.486600 L 437.767123 21.369000 L 441.093123 18.336600 L 444.509123 15.405800 L 448.024123 12.594300 L 451.648123 9.924820 L 455.392123 7.427250 L 459.265123 5.135260 L 463.295123 3.135280 L 467.466123 1.443360 L 471.729123 0.000000" fill="none" id="11" stroke="#a52a2a" stroke-width="1.5" /><path d="M 471.829123 1.400000 L 467.417123 1.773980 L 463.071123 2.610540 L 458.888123 4.053670 L 454.944123 6.056390 L 451.222123 8.449000 L 447.681123 11.103200 L 444.307123 13.968100 L 441.060123 16.977600 L 437.914123 20.091600 L 434.837123 23.275000 L 431.795123 26.491900 L 428.752123 29.708300 L 425.684123 32.900500 L 422.587123 36.064400 L 419.466123 39.204100 L 416.321123 42.320600 L 413.152123 45.412600 L 409.956123 48.476900 L 406.732123 51.511300 L 403.478123 54.512900 L 400.189123 57.476500 L 396.860123 60.396000 L 393.486123 63.262500 L 390.053123 66.057900 L 386.522123 68.728500 L 382.959123 71.356300 L 379.265123 73.796500 L 375.191123 75.531700 L 370.852123 76.401400 L 366.429123 76.600000" fill="none" id="12" stroke="#a52a2a" stroke-width="1.5" /><path d="M 458.629123 4.500000 L 454.784123 5.653220 L 451.033123 7.082810 L 447.434123 8.857940 L 444.016123 10.962600 L 440.734123 13.274300 L 437.582123 15.759400 L 434.548123 18.388500 L 431.612123 21.126900 L 428.763123 23.954900 L 425.993123 26.860700 L 423.287123 29.826900 L 420.625123 32.832200 L 417.952123 35.827700 L 415.194123 38.744600 L 412.330123 41.557300 L 409.384123 44.285000 L 406.393123 46.962400 L 403.386123 49.623500 L 400.395123 52.301400 L 397.450123 55.030300 L 394.579123 57.836500 L 391.774123 60.708500 L 388.989123 63.600300 L 386.173123 66.461700 L 383.276123 69.241500 L 380.260123 71.890100 L 377.075123 74.333700 L 373.659123 76.439800 L 370.056123 78.208300 L 366.329123 79.700000" fill="none" id="13" stroke="#a52a2a" stroke-width="1.5" /><path d="M 288.829123 103.000000 L 287.007123 100.600000 L 284.947123 98.401200 L 282.598123 96.513400 L 280.030123 94.937400 L 277.365123 93.530700 L 274.626123 92.273300 L 271.811123 91.198500 L 268.918123 90.354400 L 265.983123 89.671700 L 263.020123 89.122100 L 260.039123 88.678400 L 257.044123 88.346100 L 254.049123 88.014300 L 251.047123 87.751700 L 248.043123 87.509000 L 245.039123 87.265000 L 242.038123 86.998600 L 239.037123 86.723700 L 236.030123 86.512400 L 233.020123 86.383100 L 230.006123 86.348500 L 226.996123 86.488900 L 223.986123 86.635900 L 220.998123 87.024800 L 218.057123 87.678600 L 215.214123 88.674900 L 212.599123 90.168300 L 210.723123 92.513500 L 209.844123 95.387400 L 209.829123 98.400000" fill="none" id="8" stroke="#ffd700" stroke-width="1.5" /><path d="M 282.629123 97.600000 L 280.626123 95.927400 L 278.528123 94.375700 L 276.319123 92.987300 L 274.001123 91.789600 L 271.611123 90.743500 L 269.165123 89.834800 L 266.676123 89.050500 L 264.155123 88.379000 L 261.609123 87.809600 L 259.043123 87.332900 L 256.462123 86.949900 L 253.869123 86.658000 L 251.274123 86.388100 L 248.671123 86.206500 L 246.064123 86.093500 L 243.455123 86.042000 L 240.846123 86.046200 L 238.237123 86.100700 L 235.630123 86.202600 L 233.025123 86.353100 L 230.424123 86.563600 L 227.829123 86.839000 L 225.242123 87.177000 L 222.667123 87.597400 L 220.119123 88.157200 L 217.612123 88.875800 L 215.138123 89.705000 L 213.052123 91.197100 L 212.005123 93.509600 L 212.129123 96.100000" fill="none" id="9" stroke="#ffd700" stroke-width="1.5" /><path d="M 476.429123 1.400000 L 480.669123 3.934590 L 484.595123 6.930140 L 488.001123 10.500500 L 490.895123 14.496400 L 493.653123 18.594700 L 496.422123 22.685500 L 499.180123 26.784000 L 501.898123 30.908400 L 504.566123 35.065700 L 507.176123 39.260000 L 509.719123 43.494600 L 512.188123 47.773000 L 514.573123 52.098600 L 516.869123 56.472400 L 519.062123 60.898400 L 521.122123 65.387500 L 522.997123 69.957100 L 524.630123 74.619500 L 526.230123 79.292800 L 527.678123 84.015600 L 529.073123 88.754600 L 530.469123 93.493100 L 531.911123 98.217800 L 533.448123 102.912000 L 535.148123 107.549000 L 537.043123 112.110000 L 539.104123 116.598000 L 541.372123 120.984000 L 543.837123 125.264000 L 546.365123 129.508000 L 548.856123 133.774000 L 551.201123 138.119000 L 553.317123 142.583000 L 555.306123 147.104000 L 557.068123 151.718000 L 558.587123 156.419000 L 559.905123 161.180000 L 561.058123 165.983000 L 562.058123 170.820000 L 562.941123 175.681000 L 563.737123 180.556000 L 564.474123 185.440000 L 565.145123 190.334000 L 565.710123 195.241000 L 566.136123 200.162000 L 566.440123 205.092000 L 566.581123 210.028000 L 566.466123 214.965000 L 566.081123 219.888000 L 565.363123 224.772000 L 564.249123 229.581000 L 562.667123 234.257000 L 560.500123 238.689000 L 557.360123 242.502000 L 553.475123 245.553000 L 549.129123 247.900000" fill="none" id="14" stroke="#45769e" stroke-width="1.5" /><path d="M 480.329123 3.000000 L 483.353123 6.885570 L 486.413123 10.742100 L 489.526123 14.555900 L 492.679123 18.336900 L 495.824123 22.125200 L 498.931123 25.944000 L 501.966123 29.820700 L 504.895123 33.777600 L 507.687123 37.832100 L 510.317123 41.992800 L 512.791123 46.248700 L 515.110123 50.591300 L 517.262123 55.018300 L 519.254123 59.520100 L 521.094123 64.086000 L 522.788123 68.707900 L 524.342123 73.378900 L 525.772123 78.089500 L 527.092123 82.832300 L 528.335123 87.596000 L 529.592123 92.355900 L 530.933123 97.092800 L 532.384123 101.797000 L 533.956123 106.462000 L 535.660123 111.080000 L 537.515123 115.640000 L 539.528123 120.132000 L 541.699123 124.550000 L 544.038123 128.881000 L 546.488123 133.151000 L 548.913123 137.435000 L 551.235123 141.776000 L 553.444123 146.176000 L 555.543123 150.629000 L 557.515123 155.139000 L 559.352123 159.707000 L 561.141123 164.293000 L 562.762123 168.941000 L 564.239123 173.637000 L 565.571123 178.376000 L 566.751123 183.156000 L 567.768123 187.973000 L 568.609123 192.823000 L 569.257123 197.703000 L 569.674123 202.608000 L 569.839123 207.528000 L 569.742123 212.451000 L 569.359123 217.359000 L 568.649123 222.231000 L 567.366123 226.983000 L 565.753123 231.634000 L 563.890123 236.191000 L 561.784123 240.641000 L 558.907123 244.626000 L 555.183123 247.828000 L 550.929123 250.300000" fill="none" id="15" stroke="#45769e" stroke-width="1.5" /><path d="M 562.529123 240.200000 L 558.861123 243.416000 L 554.883123 246.239000 L 550.563123 248.507000 L 545.980123 250.179000 L 541.258123 251.402000 L 536.432123 252.104000 L 531.562123 252.379000 L 526.687123 252.271000 L 521.828123 251.843000 L 517.003123 251.132000 L 512.220123 250.172000 L 507.482123 249.016000 L 502.787123 247.691000 L 498.143123 246.199000 L 493.514123 244.656000 L 488.906123 243.057000 L 484.301123 241.444000 L 479.691123 239.848000 L 475.080123 238.254000 L 470.473123 236.650000 L 465.874123 235.021000 L 461.289123 233.355000 L 456.724123 231.635000 L 452.185123 229.847000 L 447.677123 227.981000 L 443.210123 226.020000 L 438.794123 223.950000 L 434.433123 221.762000 L 430.140123 219.446000 L 425.928123 216.986000 L 421.805123 214.379000 L 417.781123 211.622000 L 413.866123 208.712000 L 410.001123 205.736000 L 406.008123 202.933000 L 401.965123 200.202000 L 397.939123 197.448000 L 393.966123 194.618000 L 390.215123 191.499000 L 386.759123 188.056000 L 383.529123 184.400000" fill="none" id="16" stroke="#45769e" stroke-width="1.5" /><path d="M 564.829123 234.800000 L 563.091123 239.480000 L 560.577123 243.792000 L 557.191123 247.460000 L 552.981123 250.142000 L 548.314123 251.915000 L 543.436123 252.978000 L 538.470123 253.492000 L 533.477123 253.532000 L 528.493123 253.242000 L 523.535123 252.653000 L 518.608123 251.846000 L 513.721123 250.826000 L 508.888123 249.573000 L 504.055123 248.319000 L 499.280123 246.861000 L 494.546123 245.275000 L 489.852123 243.572000 L 485.203123 241.752000 L 480.588123 239.848000 L 475.990123 237.902000 L 471.410123 235.913000 L 466.852123 233.877000 L 462.313123 231.797000 L 457.795123 229.673000 L 453.300123 227.500000 L 448.827123 225.281000 L 444.377123 223.018000 L 439.952123 220.705000 L 435.552123 218.346000 L 431.176123 215.942000 L 426.828123 213.488000 L 422.506123 210.988000 L 418.210123 208.445000 L 413.943123 205.852000 L 409.706123 203.210000 L 405.516123 200.496000 L 401.361123 197.727000 L 397.256123 194.885000 L 393.214123 191.955000 L 389.406123 188.726000 L 385.899123 185.172000 L 382.629123 181.400000" fill="none" id="17" stroke="#45769e" stroke-width="1.5" /><path d="M 380.329123 118.500000 L 384.754123 116.498000 L 389.457123 115.312000 L 394.312123 115.249000 L 399.102123 116.067000 L 403.828123 117.196000 L 408.544123 118.366000 L 413.213123 119.711000 L 417.856123 121.143000 L 422.494123 122.590000 L 427.161123 123.943000 L 431.831123 125.285000 L 436.482123 126.691000 L 441.113123 128.162000 L 445.732123 129.669000 L 450.346123 131.190000 L 454.964123 132.702000 L 459.593123 134.179000 L 464.240123 135.600000 L 468.910123 136.940000 L 473.608123 138.177000 L 478.336123 139.297000 L 483.092123 140.290000 L 487.873123 141.154000 L 492.673123 141.906000 L 497.487123 142.569000 L 502.310123 143.159000 L 507.138123 143.701000 L 511.966123 144.252000 L 516.782123 144.893000 L 521.607123 145.457000 L 526.461123 145.625000 L 531.311123 145.328000 L 536.129123 144.700000" fill="none" id="18" stroke="#f77ff2" stroke-width="1.5" /><path d="M 537.729123 144.800000 L 532.821123 144.013000 L 527.885123 143.421000 L 522.920123 143.197000 L 517.952123 143.025000 L 512.994123 142.664000 L 508.054123 142.117000 L 503.135123 141.401000 L 498.237123 140.552000 L 493.359123 139.597000 L 488.499123 138.555000 L 483.658123 137.424000 L 478.842123 136.194000 L 474.048123 134.879000 L 469.288123 133.447000 L 464.563123 131.905000 L 459.861123 130.292000 L 455.175123 128.632000 L 450.498123 126.948000 L 445.822123 125.261000 L 441.139123 123.593000 L 436.442123 121.967000 L 431.722123 120.407000 L 426.975123 118.932000 L 422.203123 117.542000 L 417.413123 116.211000 L 412.599123 114.974000 L 407.767123 113.812000 L 402.867123 112.986000 L 397.915123 112.609000 L 392.966123 113.037000 L 388.154123 114.277000 L 383.529123 116.100000" fill="none" id="21" stroke="#f77ff2" stroke-width="1.5" /><path d="M 416.029123 118.500000 L 418.460123 118.019000 L 420.911123 117.660000 L 423.381123 117.465000 L 425.858123 117.430000 L 428.335123 117.467000 L 430.812123 117.539000 L 433.288123 117.625000 L 435.765123 117.705000 L 438.242123 117.754000 L 440.720123 117.731000 L 443.193123 117.602000 L 445.659123 117.360000 L 448.112123 117.018000 L 450.553123 116.593000 L 452.980123 116.093000 L 455.392123 115.528000 L 457.790123 114.905000 L 460.175123 114.232000 L 462.548123 113.520000 L 464.911123 112.775000 L 467.267123 112.008000 L 469.619123 111.228000 L 471.969123 110.443000 L 474.321123 109.664000 L 476.679123 108.901000 L 479.044123 108.163000 L 481.420123 107.460000 L 483.743123 106.599000 L 486.013123 105.608000 L 488.229123 104.500000" fill="none" id="19" stroke="#ff0000" stroke-width="1.5" /><path d="M 416.029123 120.800000 L 418.552123 120.198000 L 421.090123 119.667000 L 423.646123 119.230000 L 426.217123 118.889000 L 428.795123 118.610000 L 431.377123 118.367000 L 433.961123 118.139000 L 436.544123 117.906000 L 439.124123 117.650000 L 441.700123 117.350000 L 444.268123 116.986000 L 446.823123 116.542000 L 449.361123 116.013000 L 451.882123 115.403000 L 454.385123 114.723000 L 456.870123 113.984000 L 459.342123 113.198000 L 461.803123 112.379000 L 464.256123 111.539000 L 466.707123 110.691000 L 469.161123 109.852000 L 471.631123 109.063000 L 474.128123 108.365000 L 476.647123 107.747000 L 479.174123 107.163000 L 481.698123 106.566000 L 484.207123 105.913000 L 486.682123 105.145000 L 489.075123 104.150000 L 491.352123 102.910000 L 493.529123 101.500000" fill="none" id="20" stroke="#ff0000" stroke-width="1.5" /><path d="M 186.529123 153.400000 L 182.692123 151.946000 L 178.771123 150.741000 L 174.759123 149.884000 L 170.692123 149.349000 L 166.603123 149.018000 L 162.504123 148.840000 L 158.402123 148.755000 L 154.300123 148.714000 L 150.197123 148.683000 L 146.094123 148.673000 L 141.991123 148.698000 L 137.889123 148.764000 L 133.787123 148.874000 L 129.687123 149.029000 L 125.589123 149.238000 L 121.495123 149.503000 L 117.405123 149.826000 L 113.321123 150.217000 L 109.244123 150.678000 L 105.176123 151.213000 L 101.121123 151.835000 L 97.080423 152.547000 L 93.058223 153.356000 L 89.060823 154.280000 L 85.092423 155.321000 L 81.160323 156.491000 L 77.279023 157.821000 L 73.462123 159.325000 L 69.719923 161.007000 L 66.039023 162.820000" fill="none" id="25" stroke="#1e90ff" stroke-width="1.5" /><path d="M 188.829123 152.600000 L 185.022123 150.796000 L 181.076123 149.319000 L 176.987123 148.312000 L 172.817123 147.728000 L 168.618123 147.382000 L 164.409123 147.209000 L 160.197123 147.159000 L 155.983123 147.147000 L 151.770123 147.174000 L 147.557123 147.204000 L 143.345123 147.265000 L 139.134123 147.393000 L 134.925123 147.596000 L 130.721123 147.867000 L 126.521123 148.199000 L 122.326123 148.587000 L 118.136123 149.024000 L 113.950123 149.503000 L 109.768123 150.014000 L 105.585123 150.518000 L 101.396123 150.970000 L 97.202923 151.379000 L 93.011723 151.807000 L 88.828923 152.311000 L 84.653723 152.871000 L 80.509523 153.626000 L 76.415423 154.613000 L 72.426923 155.967000 L 68.568323 157.658000 L 64.829223 159.600000" fill="none" id="26" stroke="#1e90ff" stroke-width="1.5" /><path d="M 220.629123 141.700000 L 215.808123 142.663000 L 211.052123 143.904000 L 206.401123 145.491000 L 201.884123 147.429000 L 197.475123 149.602000 L 193.160123 151.957000 L 188.918123 154.443000 L 184.722123 157.004000 L 180.539123 159.588000 L 176.343123 162.151000 L 172.127123 164.678000 L 167.871123 167.139000 L 163.586123 169.550000 L 159.283123 171.929000 L 154.963123 174.275000 L 150.626123 176.592000 L 146.275123 178.880000 L 141.907123 181.136000 L 137.524123 183.365000 L 133.128123 185.566000 L 128.719123 187.740000 L 124.297123 189.889000 L 119.863123 192.013000 L 115.417123 194.111000 L 110.959123 196.186000 L 106.491123 198.236000 L 102.011123 200.262000 L 97.466723 202.132000 L 92.832023 203.770000 L 88.129223 205.200000" fill="none" id="24" stroke="#1e90ff" stroke-width="1.5" /><path d="M 223.729123 144.800000 L 218.824123 144.316000 L 213.895123 144.371000 L 209.023123 145.118000 L 204.325123 146.612000 L 199.777123 148.514000 L 195.359123 150.700000 L 191.058123 153.107000 L 186.756123 155.515000 L 182.468123 157.946000 L 178.116123 160.262000 L 173.664123 162.377000 L 169.178123 164.421000 L 164.717123 166.519000 L 160.277123 168.661000 L 155.859123 170.847000 L 151.458123 173.067000 L 147.071123 175.315000 L 142.697123 177.588000 L 138.331123 179.877000 L 133.972123 182.179000 L 129.616123 184.487000 L 125.261123 186.795000 L 120.902123 189.098000 L 116.538123 191.391000 L 112.166123 193.667000 L 107.781123 195.920000 L 103.383123 198.146000 L 98.968323 200.339000 L 94.532523 202.489000 L 90.075423 204.595000 L 85.595023 206.650000 L 81.085923 208.642000 L 76.554023 210.582000 L 72.004023 212.478000" fill="none" id="27" stroke="#1e90ff" stroke-width="1.5" /><path d="M 212.929123 101.400000 L 216.254123 105.131000 L 219.288123 109.102000 L 221.925123 113.346000 L 224.096123 117.847000 L 225.909123 122.504000 L 227.418123 127.268000 L 228.636123 132.114000 L 229.613123 137.016000 L 230.374123 141.955000 L 230.934123 146.921000 L 231.325123 151.903000 L 231.556123 156.896000 L 231.644123 161.893000 L 231.602123 166.890000 L 231.412123 171.884000 L 231.003123 176.864000 L 230.355123 181.819000 L 229.461123 186.735000 L 228.318123 191.599000 L 226.942123 196.403000 L 225.339123 201.136000 L 223.511123 205.786000 L 221.476123 210.350000 L 219.244123 214.821000 L 216.821123 219.191000 L 214.221123 223.458000 L 211.456123 227.621000 L 208.533123 231.674000 L 205.465123 235.619000 L 202.261123 239.454000 L 198.928123 243.177000 L 195.476123 246.791000 L 191.914123 250.296000 L 188.246123 253.691000 L 184.485123 256.982000 L 180.641123 260.175000 L 176.721123 263.275000 L 172.735123 266.290000 L 168.691123 269.228000 L 164.595123 272.091000 L 160.455123 274.890000 L 156.276123 277.632000 L 152.063123 280.321000 L 147.822123 282.966000 L 143.546123 285.553000 L 139.191123 288.005000 L 134.728123 290.251000 L 130.168123 292.296000 L 125.533123 294.164000 L 120.846123 295.900000 L 116.125123 297.541000 L 111.382123 299.117000 L 106.633123 300.674000 L 101.897123 302.269000 L 97.179323 303.921000 L 92.460523 305.568000 L 87.720623 307.153000 L 82.936823 308.600000 L 78.098923 309.855000 L 73.186623 310.773000 L 68.219523 311.325000 L 63.229223 311.600000" fill="none" id="29" stroke="#00ee00" stroke-width="1.5" /><path d="M 229.129123 171.200000 L 228.793123 176.146000 L 228.067123 181.050000 L 226.844123 185.853000 L 225.102123 190.494000 L 223.046123 195.005000 L 220.659123 199.350000 L 218.271123 203.694000 L 215.649123 207.902000 L 212.914123 212.036000 L 210.108123 216.123000 L 207.264123 220.183000 L 204.399123 224.228000 L 201.464123 228.223000 L 198.456123 232.164000 L 195.371123 236.044000 L 192.208123 239.861000 L 188.971123 243.616000 L 185.653123 247.299000 L 182.258123 250.911000 L 178.789123 254.452000 L 175.237123 257.910000 L 171.609123 261.288000 L 167.906123 264.585000 L 164.123123 267.788000 L 160.264123 270.900000 L 156.334123 273.921000 L 152.325123 276.837000 L 148.245123 279.653000 L 144.098123 282.369000 L 139.876123 284.967000 L 135.581123 287.443000 L 131.228123 289.814000 L 126.829123 292.100000" fill="none" id="30" stroke="#00ee00" stroke-width="1.5" /><path d="M 29.129223 41.700000 L 24.528323 43.462600 L 20.504923 46.277100 L 17.525023 50.192100 L 15.473923 54.679000 L 13.543823 59.218800 L 11.945423 63.886300 L 10.498623 68.603000 L 9.181043 73.357400 L 7.974463 78.141200 L 6.854773 82.946000 L 5.812183 87.768200 L 4.843863 92.605800 L 3.948973 97.457500 L 3.124953 102.322000 L 2.379893 107.199000 L 1.750213 112.092000 L 1.334983 117.006000 L 1.141063 121.935000 L 1.073873 126.868000 L 1.088033 131.802000 L 1.179493 136.734000 L 1.348293 141.665000 L 1.598503 146.592000 L 1.932803 151.514000 L 2.350993 156.430000 L 2.856343 161.337000 L 3.451213 166.235000 L 4.134193 171.121000 L 4.907433 175.993000 L 5.749983 180.854000 L 6.579103 185.717000 L 7.322683 190.595000 L 8.016793 195.479000 L 8.722373 200.362000 L 9.497153 205.234000 L 10.400923 210.084000 L 11.365523 214.922000 L 12.569823 219.705000 L 14.024923 224.418000 L 15.846223 229.000000 L 18.245923 233.308000 L 21.198623 237.260000 L 24.529223 240.900000" fill="none" id="31" stroke="#ff8c00" stroke-width="1.5" /><path d="M 3.529223 108.400000 L 2.166223 112.537000 L 1.096813 116.759000 L 0.425189 121.062000 L 0.102828 125.406000 L 0.000000 129.761000 L 0.045637 134.117000 L 0.200178 138.471000 L 0.436190 142.821000 L 0.714818 147.168000 L 0.992343 151.516000 L 1.244243 155.865000 L 1.525433 160.212000 L 1.911303 164.551000 L 2.426653 168.877000 L 3.063493 173.186000 L 3.811913 177.477000 L 4.662213 181.750000 L 5.602853 186.003000 L 6.623533 190.238000 L 7.711593 194.457000 L 8.857163 198.660000 L 10.046823 202.850000 L 11.270623 207.032000 L 12.515823 211.206000 L 13.771823 215.378000 L 15.027423 219.549000 L 16.271223 223.724000 L 17.486623 227.908000 L 18.670023 232.101000 L 19.829223 236.300000" fill="none" id="33" stroke="#ff8c00" stroke-width="1.5" /><path d="M 15.229223 227.800000 L 16.264823 229.514000 L 17.346623 231.199000 L 18.482823 232.847000 L 19.678923 234.453000 L 20.948123 236.002000 L 22.244123 237.529000 L 23.551223 239.046000 L 24.859423 240.562000 L 26.153723 242.090000 L 27.411523 243.649000 L 28.625223 245.241000 L 29.785523 246.873000 L 30.878823 248.550000 L 31.880023 250.285000 L 32.816023 252.054000 L 33.689823 253.856000 L 34.504923 255.685000 L 35.251723 257.543000 L 35.953623 259.418000 L 36.618223 261.307000 L 37.249523 263.208000 L 37.846723 265.119000 L 38.420423 267.038000 L 38.979923 268.961000 L 39.529323 270.887000 L 40.072923 272.814000 L 40.624323 274.739000 L 41.184923 276.662000 L 41.753923 278.582000 L 42.329223 280.500000" fill="none" id="34" stroke="#ff8c00" stroke-width="1.5" /><path d="M 26.029223 231.700000 L 26.919323 234.756000 L 27.895423 237.785000 L 28.984023 240.776000 L 30.186223 243.723000 L 31.455523 246.641000 L 32.768323 249.541000 L 34.102023 252.431000 L 35.434723 255.321000 L 36.744723 258.221000 L 38.008323 261.143000 L 39.200523 264.094000 L 40.299123 267.081000 L 41.281723 270.108000 L 42.130223 273.175000 L 42.859723 276.273000 L 43.547123 279.381000 L 44.261423 282.482000 L 45.019323 285.574000 L 45.828623 288.652000 L 46.696223 291.714000 L 47.630323 294.756000 L 48.646223 297.772000 L 49.785123 300.744000 L 51.066923 303.657000 L 52.401323 306.547000 L 53.979523 309.310000 L 55.820123 311.905000 L 58.018123 314.204000 L 60.838623 315.656000 L 63.990323 316.017000 L 67.129223 315.500000" fill="none" id="35" stroke="#ff8c00" stroke-width="1.5" /><path d="M 19.829223 227.800000 L 22.396423 230.177000 L 24.827123 232.694000 L 27.070523 235.379000 L 29.094423 238.233000 L 30.939523 241.206000 L 32.623423 244.273000 L 34.173823 247.410000 L 35.605623 250.603000 L 36.932523 253.840000 L 38.167123 257.114000 L 39.321323 260.417000 L 40.405923 263.744000 L 41.427323 267.090000 L 42.399923 270.451000 L 43.335123 273.823000 L 44.243323 277.202000 L 45.136223 280.585000 L 46.027723 283.968000 L 46.966523 287.339000 L 47.981023 290.688000 L 49.089523 294.006000 L 50.311023 297.285000 L 51.750023 300.474000 L 53.202923 303.657000 L 54.940523 306.693000 L 56.966723 309.545000 L 59.419923 312.037000 L 62.501023 313.678000 L 65.953223 314.190000 L 69.429223 313.800000" fill="none" id="36" stroke="#ff8c00" stroke-width="1.5" /><path d="M 25.479323 38.259300 L 30.396423 38.192400 L 35.313723 38.144300 L 40.229323 38.007600 L 45.145523 38.118400 L 50.051523 38.451600 L 54.946123 38.925400 L 59.825023 39.539700 L 64.687623 40.271700 L 69.532823 41.111900 L 74.357623 42.061600 L 79.163623 43.102900 L 83.950723 44.227400 L 88.718023 45.433500 L 93.467523 46.707800 L 98.200423 48.042400 L 102.917123 49.434000 L 107.625123 50.853000 L 112.330123 52.282100 L 117.031123 53.728300 L 121.722123 55.203400 L 126.399123 56.720400 L 131.057123 58.296500 L 135.691123 59.943200 L 140.295123 61.671200 L 144.860123 63.498300 L 149.380123 65.433000 L 153.851123 67.480400 L 158.263123 69.652100 L 162.609123 71.952300 L 166.890123 74.370900 L 171.215123 76.709000 L 175.653123 78.822800 L 180.169123 80.768300 L 184.712123 82.650000 L 189.248123 84.550200 L 193.744123 86.540000 L 198.124123 88.769800 L 202.417123 91.167100 L 206.199123 94.240900 L 208.947123 98.267100 L 210.529123 102.900000" fill="none" id="37" stroke="#ff8c00" stroke-width="1.5" /><path d="M 26.029223 40.200000 L 30.945723 39.670200 L 35.888323 39.600300 L 40.799623 40.166400 L 45.649823 41.132300 L 50.518423 42.000500 L 55.400223 42.792200 L 60.285123 43.563800 L 65.170523 44.332800 L 70.054523 45.110700 L 74.935123 45.909400 L 79.810523 46.739500 L 84.678123 47.613800 L 89.535423 48.543500 L 94.379523 49.539100 L 99.206723 50.613900 L 104.013123 51.777500 L 108.794123 53.040200 L 113.545123 54.415000 L 118.259123 55.907500 L 122.936123 57.515400 L 127.575123 59.229100 L 132.178123 61.036800 L 136.745123 62.931900 L 141.279123 64.908800 L 145.780123 66.957400 L 150.251123 69.070600 L 154.694123 71.242500 L 159.112123 73.464500 L 163.508123 75.730700 L 167.884123 78.034500 L 172.244123 80.368500 L 176.596123 82.718300 L 180.972123 85.021300 L 185.425123 87.172400 L 189.956123 89.154300 L 194.536123 91.018000 L 199.145123 92.812900 L 203.753123 94.608100 L 208.346123 96.442400 L 212.929123 98.300000" fill="none" id="38" stroke="#ff8c00" stroke-width="1.5" /><path d="M 27.629223 41.000000 L 32.471723 40.101700 L 37.363623 39.533800 L 42.285923 39.385000 L 47.201423 39.693100 L 52.105423 40.150500 L 56.993423 40.755200 L 61.864723 41.482100 L 66.717623 42.323000 L 71.550323 43.273500 L 76.364123 44.315400 L 81.155923 45.454600 L 85.920623 46.701900 L 90.683023 47.957900 L 95.415523 49.322500 L 100.129123 50.750200 L 104.823123 52.241400 L 109.499123 53.790800 L 114.156123 55.392200 L 118.801123 57.032300 L 123.444123 58.675100 L 128.086123 60.319600 L 132.728123 61.966700 L 137.369123 63.617300 L 142.008123 65.271900 L 146.645123 66.931300 L 151.280123 68.596400 L 155.913123 70.267600 L 160.544123 71.945900 L 165.172123 73.632100 L 169.796123 75.326500 L 174.417123 77.030500 L 179.034123 78.746200 L 183.579123 80.643500 L 187.772123 83.227100 L 191.749123 86.131700 L 195.686123 89.091900 L 199.886123 91.663100 L 204.376123 93.685500 L 209.029123 95.300000" fill="none" id="39" stroke="#ff8c00" stroke-width="1.5" /><path d="M 13.629223 61.900000 L 12.398023 66.695200 L 11.236523 71.507700 L 10.140623 76.335600 L 9.194073 81.195000 L 8.404103 86.082300 L 7.771013 90.992300 L 7.290833 95.919700 L 6.941093 100.858000 L 6.715933 105.804000 L 6.605613 110.753000 L 6.588363 115.704000 L 6.655953 120.654000 L 6.794973 125.603000 L 6.988123 130.550000 L 7.223533 135.495000 L 7.440773 140.441000 L 7.639843 145.388000 L 7.828263 150.335000 L 8.015933 155.282000 L 8.210523 160.229000 L 8.422853 165.175000 L 8.659843 170.120000 L 8.929543 175.063000 L 9.245383 180.004000 L 9.611373 184.941000 L 10.038023 189.873000 L 10.551823 194.797000 L 11.066223 199.721000 L 11.714223 204.629000 L 12.537223 209.511000 L 13.562223 214.355000 L 14.866023 219.130000 L 16.517123 223.798000 L 18.682923 228.249000 L 21.375123 232.404000 L 24.429223 236.300000" fill="none" id="32" stroke="#ff8c00" stroke-width="1.5" /><path d="M 379.529123 110.700000 L 383.451123 108.937000 L 387.463123 107.390000 L 391.572123 106.128000 L 395.749123 105.107000 L 399.960123 104.232000 L 404.188123 103.448000 L 408.424123 102.707000 L 412.659123 101.960000 L 416.884123 101.158000 L 421.092123 100.272000 L 425.293123 99.352700 L 429.496123 98.445200 L 433.702123 97.545900 L 437.906123 96.643600 L 442.108123 95.728700 L 446.305123 94.789800 L 450.494123 93.816300 L 454.672123 92.800000 L 458.837123 91.726900 L 462.976123 90.564000 L 467.068123 89.243700 L 471.098123 87.744700 L 475.066123 86.089100 L 478.978123 84.302500 L 482.841123 82.414600 L 486.667123 80.450100 L 490.466123 78.436100 L 494.150123 76.221000 L 497.699123 73.793700 L 501.129123 71.200000" fill="none" id="22" stroke="#6a7b53" stroke-width="1.5" /><path d="M 383.429123 113.800000 L 387.353123 111.845000 L 391.333123 110.009000 L 395.384123 108.333000 L 399.495123 106.810000 L 403.650123 105.412000 L 407.835123 104.106000 L 412.045123 102.884000 L 416.273123 101.726000 L 420.514123 100.617000 L 424.765123 99.544600 L 429.021123 98.493600 L 433.279123 97.450000 L 437.535123 96.398300 L 441.784123 95.321400 L 446.025123 94.208600 L 450.258123 93.069500 L 454.490123 91.924400 L 458.719123 90.770200 L 462.939123 89.584500 L 467.144123 88.342500 L 471.323123 87.020200 L 475.468123 85.593900 L 479.568123 84.042300 L 483.610123 82.347600 L 487.587123 80.504200 L 491.530123 78.587900 L 495.484123 76.695200 L 499.257123 74.468100 L 502.726123 71.792500 L 505.929123 68.800000" fill="none" id="23" stroke="#6a7b53" stroke-width="1.5" /><path d="M 271.029123 86.700000 L 273.428123 86.787300 L 275.827123 86.825400 L 278.227123 86.802900 L 280.625123 86.712300 L 283.020123 86.558100 L 285.411123 86.350500 L 287.797123 86.094300 L 290.177123 85.790400 L 292.552123 85.444300 L 294.922123 85.064000 L 297.287123 84.653500 L 299.646123 84.216300 L 302.002123 83.756100 L 304.353123 83.276300 L 306.702123 82.780300 L 309.047123 82.269700 L 311.390123 81.750800 L 313.732123 81.226600 L 316.074123 80.700400 L 318.416123 80.175200 L 320.758123 79.654400 L 323.103123 79.141100 L 325.450123 78.640200 L 327.801123 78.156400 L 330.155123 77.692400 L 332.515123 77.252000 L 334.880123 76.843000 L 337.250123 76.469500 L 339.626123 76.128700 L 342.005123 75.814100" fill="none" id="10" stroke="#ff1493" stroke-width="1.5" /><path d="M 337.729123 75.100000 L 335.422123 75.145000 L 333.116123 75.229400 L 330.813123 75.361000 L 328.513123 75.548500 L 326.219123 75.793200 L 323.931123 76.092500 L 321.651123 76.446500 L 319.381123 76.859700 L 317.123123 77.331500 L 314.876123 77.855600 L 312.641123 78.430700 L 310.420123 79.055000 L 308.213123 79.725800 L 306.017123 80.435200 L 303.827123 81.161900 L 301.625123 81.851500 L 299.407123 82.487900 L 297.178123 83.081400 L 294.939123 83.640200 L 292.694123 84.172100 L 290.444123 84.684400 L 288.192123 85.184700 L 285.938123 85.680800 L 283.686123 86.182900 L 281.437123 86.699400 L 279.194123 87.238500 L 276.959123 87.814200 L 274.737123 88.435700 L 272.528123 89.100800 L 270.329123 89.800000" fill="none" id="7" stroke="#ff1493" stroke-width="1.5" /><path d="M 347.729123 177.400000 L 344.088123 179.690000 L 340.466123 182.010000 L 336.875123 184.377000 L 333.300123 186.769000 L 329.699123 189.121000 L 326.046123 191.392000 L 322.306123 193.516000 L 318.467123 195.455000 L 314.521123 197.164000 L 310.473123 198.618000 L 306.338123 199.798000 L 302.143123 200.745000 L 297.926123 201.591000 L 293.711123 202.449000 L 289.507123 203.359000 L 285.318123 204.331000 L 281.145123 205.375000 L 276.993123 206.498000 L 272.869123 207.718000 L 268.790123 209.082000 L 264.767123 210.603000 L 260.778123 212.210000 L 256.780123 213.797000 L 252.722123 215.220000 L 248.565123 216.316000 L 244.369123 217.258000 L 240.092123 217.601000 L 235.803123 217.369000 L 231.684123 216.215000 L 228.107123 213.883000 L 225.229123 210.700000" fill="none" id="0" stroke="#7fffd4" stroke-width="1.5" /><path d="M 346.229123 176.600000 L 343.250123 179.558000 L 340.156123 182.396000 L 336.931123 185.082000 L 333.555123 187.575000 L 330.037123 189.862000 L 326.388123 191.934000 L 322.622123 193.785000 L 318.750123 195.401000 L 314.779123 196.763000 L 310.764123 197.993000 L 306.694123 199.020000 L 302.577123 199.844000 L 298.434123 200.520000 L 294.283123 201.148000 L 290.146123 201.861000 L 286.024123 202.655000 L 281.914123 203.510000 L 277.829123 204.480000 L 273.761123 205.516000 L 269.707123 206.611000 L 265.666123 207.749000 L 261.631123 208.910000 L 257.598123 210.075000 L 253.564123 211.238000 L 249.525123 212.383000 L 245.476123 213.495000 L 241.414123 214.557000 L 237.335123 215.550000 L 233.240123 216.476000 L 229.133123 217.349000" fill="none" id="1" stroke="#7fffd4" stroke-width="1.5" /><path d="M 212.129123 101.400000 L 216.082123 104.386000 L 219.422123 108.025000 L 221.748123 112.381000 L 223.018123 117.175000 L 224.130123 122.009000 L 225.115123 126.870000 L 225.996123 131.751000 L 226.760123 136.652000 L 227.438123 141.565000 L 228.047123 146.488000 L 228.599123 151.417000 L 229.099123 156.352000 L 229.549123 161.291000 L 229.955123 166.235000 L 230.303123 171.182000 L 230.604123 176.133000 L 230.816123 181.088000 L 230.809123 186.046000 L 230.523123 190.996000 L 229.894123 195.913000 L 228.837123 200.756000 L 227.285123 205.463000 L 225.081123 209.906000 L 222.382123 214.068000 L 219.294123 217.948000 L 215.728123 221.390000 L 212.018123 224.681000 L 208.344123 228.013000 L 204.745123 231.425000 L 201.210123 234.905000 L 197.722123 238.431000 L 194.267123 241.989000 L 190.829123 245.565000 L 187.397123 249.145000 L 183.954123 252.716000 L 180.486123 256.262000 L 176.977123 259.768000 L 173.416123 263.220000 L 169.782123 266.596000 L 166.049123 269.862000 L 162.224123 273.019000 L 158.312123 276.069000 L 154.321123 279.013000 L 150.263123 281.865000 L 146.139123 284.621000 L 141.954123 287.283000 L 137.711123 289.850000 L 133.410123 292.320000 L 129.052123 294.690000 L 124.640123 296.953000 L 120.166123 299.095000 L 115.629123 301.097000 L 111.035123 302.966000 L 106.400123 304.730000 L 101.727123 306.393000 L 97.015523 307.943000 L 92.263123 309.362000 L 87.463523 310.611000 L 82.604423 311.605000 L 77.678423 312.185000 L 72.724023 312.410000 L 67.927223 311.258000 L 64.147823 308.120000 L 61.729223 303.800000" fill="none" id="28" stroke="#9acd32" stroke-width="1.5" /></svg>