<?xml version="1.0" encoding="UTF-8" standalone="no"?>
<svg
   xmlns:dc="http://purl.org/dc/elements/1.1/"
   xmlns:cc="http://creativecommons.org/ns#"
   xmlns:rdf="http://www.w3.org/1999/02/22-rdf-syntax-ns#"
   xmlns:svg="http://www.w3.org/2000/svg"
   xmlns="http://www.w3.org/2000/svg"
   xmlns:sodipodi="http://sodipodi.sourceforge.net/DTD/sodipodi-0.dtd"
   xmlns:inkscape="http://www.inkscape.org/namespaces/inkscape"
   height="380.91644"
   width="409.60001"
   inkscape:version="1.0 (4035a4fb49, 2020-05-01)"
   sodipodi:docname="gui_square.svg"
   xml:space="preserve"
   viewBox="0 0 409.60001 380.91644"
   y="0px"
   x="0px"
   id="Layer_1"
   version="1.1"><metadata
   id="metadata21"><rdf:RDF><cc:Work
       rdf:about=""><dc:format>image/svg+xml</dc:format><dc:type
         rdf:resource="http://purl.org/dc/dcmitype/StillImage" /><dc:title></dc:title></cc:Work></rdf:RDF></metadata><defs
   id="defs19" /><sodipodi:namedview
   fit-margin-bottom="0"
   fit-margin-right="0"
   fit-margin-left="0"
   fit-margin-top="0"
   inkscape:current-layer="Layer_1"
   inkscape:window-maximized="1"
   inkscape:window-y="-8"
   inkscape:window-x="-8"
   inkscape:cy="253.3"
   inkscape:cx="187.7"
   inkscape:zoom="0.8459596"
   showgrid="false"
   id="namedview17"
   inkscape:window-height="837"
   inkscape:window-width="1440"
   inkscape:pageshadow="2"
   inkscape:pageopacity="0"
   guidetolerance="10"
   gridtolerance="10"
   objecttolerance="10"
   borderopacity="1"
   bordercolor="#666666"
   pagecolor="#ffffff" />
<style
   id="style2"
   type="text/css">
	.st0{fill:none;stroke:#000000;stroke-miterlimit:10;}
</style>
<path
   style="stroke-width:1.5;stroke-miterlimit:10;stroke-dasharray:none"
   id="path4"
   d="m 17.2,19.4 c 0,69.9 0,139.8 0,209.7"
   class="st0" />
<path
   style="stroke-width:1.5;stroke-miterlimit:10;stroke-dasharray:none"
   id="path6"
   d="m 13.8,87.1 c 0,66 0,132 0,198 0,29.3 -6.3,67.4 2.2,95.6"
   class="st0" />
<path
   style="stroke-width:1.5;stroke-miterlimit:10;stroke-dasharray:none"
   id="path8"
   d="M 20.4,17.2 C 83.7,12.3 165,14 233.6,11.5 279.6,9.8 325.9,6.6 372,7.6"
   class="st0" />
<path
   style="stroke-width:1.5;stroke-miterlimit:10;stroke-dasharray:none"
   id="path10"
   d="m 367.8,0 c 0,118.6 0,237.3 0,355.9"
   class="st0" />
<path
   style="stroke-width:1.5;stroke-miterlimit:10;stroke-dasharray:none"
   id="path12"
   d="m 0,353.8 c 94.1,0 188.2,0 282.2,0 12,0 24.1,0.6 36.1,-1.1"
   class="st0" />
<path
   style="stroke-width:1.5;stroke-miterlimit:10;stroke-dasharray:none"
   id="path14"
   d="m 207.5,357 c 42.8,3.3 89.5,-8.2 132.2,-11.2 23.5,-1.7 46.4,-1.7 69.9,-1.7"
   class="st0" />
</svg>
