<?xml version="1.0" encoding="utf-8" ?>
<svg baseProfile="full" height="381" version="1.1" viewBox="0,0,410,381" width="410" xmlns="http://www.w3.org/2000/svg" xmlns:ev="http://www.w3.org/2001/xml-events" xmlns:xlink="http://www.w3.org/1999/xlink"><defs><style type="text/css"><![CDATA[
	.background { fill: white; }
	.line { stroke: firebrick; stroke-width: .1mm; }
	.blacksquare { fill: indigo; }
	.whitesquare { fill: white; }
]]></style></defs><path d="M 17.200000 19.400000 L 17.200000 20.400000 L 17.200000 21.400000 L 17.200000 22.400000 L 17.200000 23.400000 L 17.200000 24.400000 L 17.200000 25.400000 L 17.200000 26.400000 L 17.200000 27.400000 L 17.200000 28.400000 L 17.200000 29.400000 L 17.200000 30.400000 L 17.200000 31.400000 L 17.200000 32.400000 L 17.200000 33.400000 L 17.200000 34.400000 L 17.200000 35.400000 L 17.200000 36.400000 L 17.200000 37.400000 L 17.200000 38.400000 L 17.200000 39.400000 L 17.200000 40.400000 L 17.200000 41.400000 L 17.200000 42.400000 L 17.200000 43.400000 L 17.200000 44.400000 L 17.200000 45.400000 L 17.200000 46.400000 L 17.200000 47.400000 L 17.200000 48.400000 L 17.200000 49.400000 L 17.200000 50.400000 L 17.200000 51.400000 L 17.200000 52.400000 L 17.200000 53.400000 L 17.200000 54.400000 L 17.200000 55.400000 L 17.200000 56.400000 L 17.200000 57.400000 L 17.200000 58.400000 L 17.200000 59.400000 L 17.200000 60.400000 L 17.200000 61.400000 L 17.200000 62.400000 L 17.200000 63.400000 L 17.200000 64.400000 L 17.200000 65.400000 L 17.200000 66.400000 L 17.200000 67.400000 L 17.200000 68.400000 L 17.200000 69.400000 L 17.200000 70.400000 L 17.200000 71.400000 L 17.200000 72.400000 L 17.200000 73.400000 L 17.200000 74.400000 L 17.200000 75.400000 L 17.200000 76.400000 L 17.200000 77.400000 L 17.200000 78.400000 L 17.200000 79.400000 L 17.200000 80.400000 L 17.200000 81.400000 L 17.200000 82.400000 L 17.200000 83.400000 L 17.200000 84.400000 L 17.200000 85.400000 L 17.200000 86.400000 L 17.200000 87.400000 L 17.200000 88.400000 L 17.200000 89.400000 L 17.200000 90.400000 L 17.200000 91.400000 L 17.200000 92.400000 L 17.200000 93.400000 L 17.200000 94.400000 L 17.200000 95.400000 L 17.200000 96.400000 L 17.200000 97.400000 L 17.200000 98.400000 L 17.200000 99.400000 L 17.200000 100.400000 L 17.200000 101.400000 L 17.200000 102.400000 L 17.200000 103.400000 L 17.200000 104.400000 L 17.200000 105.400000 L 17.200000 106.400000 L 17.200000 107.400000 L 17.200000 108.400000 L 17.200000 109.400000 L 17.200000 110.400000 L 17.200000 111.400000 L 17.200000 112.400000 L 17.200000 113.400000 L 17.200000 114.400000 L 17.200000 115.400000 L 17.200000 116.400000 L 17.200000 117.400000 L 17.200000 118.400000 L 17.200000 119.400000 L 17.200000 120.400000 L 17.200000 121.400000 L 17.200000 122.400000 L 17.200000 123.400000 L 17.200000 124.400000 L 17.200000 125.400000 L 17.200000 126.400000 L 17.200000 127.400000 L 17.200000 128.400000 L 17.200000 129.400000 L 17.200000 130.400000 L 17.200000 131.400000 L 17.200000 132.400000 L 17.200000 133.400000 L 17.200000 134.400000 L 17.200000 135.400000 L 17.200000 136.400000 L 17.200000 137.400000 L 17.200000 138.400000 L 17.200000 139.400000 L 17.200000 140.400000 L 17.200000 141.400000 L 17.200000 142.400000 L 17.200000 143.400000 L 17.200000 144.400000 L 17.200000 145.400000 L 17.200000 146.400000 L 17.200000 147.400000 L 17.200000 148.400000 L 17.200000 149.400000 L 17.200000 150.400000 L 17.200000 151.400000 L 17.200000 152.400000 L 17.200000 153.400000 L 17.200000 154.400000 L 17.200000 155.400000 L 17.200000 156.400000 L 17.200000 157.400000 L 17.200000 158.400000 L 17.200000 159.400000 L 17.200000 160.400000 L 17.200000 161.400000 L 17.200000 162.400000 L 17.200000 163.400000 L 17.200000 164.400000 L 17.200000 165.400000 L 17.200000 166.400000 L 17.200000 167.400000 L 17.200000 168.400000 L 17.200000 169.400000 L 17.200000 170.400000 L 17.200000 171.400000 L 17.200000 172.400000 L 17.200000 173.400000 L 17.200000 174.400000 L 17.200000 175.400000 L 17.200000 176.400000 L 17.200000 177.400000 L 17.200000 178.400000 L 17.200000 179.400000 L 17.200000 180.400000 L 17.200000 181.400000 L 17.200000 182.400000 L 17.200000 183.400000 L 17.200000 184.400000 L 17.200000 185.400000 L 17.200000 186.400000 L 17.200000 187.400000 L 17.200000 188.400000 L 17.200000 189.400000 L 17.200000 190.400000 L 17.200000 191.400000 L 17.200000 192.400000 L 17.200000 193.400000 L 17.200000 194.400000 L 17.200000 195.400000 L 17.200000 196.400000 L 17.200000 197.400000 L 17.200000 198.400000 L 17.200000 199.400000 L 17.200000 200.400000 L 17.200000 201.400000 L 17.200000 202.400000 L 17.200000 203.400000 L 17.200000 204.400000 L 17.200000 205.400000 L 17.200000 206.400000 L 17.200000 207.400000 L 17.200000 208.400000 L 17.200000 209.400000 L 17.200000 210.400000 L 17.200000 211.400000 L 17.200000 212.400000 L 17.200000 213.400000 L 17.200000 214.400000 L 17.200000 215.400000 L 17.200000 216.400000 L 17.200000 217.400000 L 17.200000 218.400000 L 17.200000 219.400000 L 17.200000 220.400000 L 17.200000 221.400000 L 17.200000 222.400000 L 17.200000 223.400000 L 17.200000 224.400000 L 17.200000 225.400000 L 17.200000 226.400000 L 17.200000 227.400000 L 17.200000 228.400000 L 17.200000 229.100000" fill="none" id="1" stroke="black" stroke-width="1.5" /><path d="M 13.800000 87.100000 L 13.800000 88.100000 L 13.800000 89.100000 L 13.800000 90.100000 L 13.800000 91.100000 L 13.800000 92.100000 L 13.800000 93.100000 L 13.800000 94.100000 L 13.800000 95.100000 L 13.800000 96.100000 L 13.800000 97.100000 L 13.800000 98.100000 L 13.800000 99.100000 L 13.800000 100.100000 L 13.800000 101.100000 L 13.800000 102.100000 L 13.800000 103.100000 L 13.800000 104.100000 L 13.800000 105.100000 L 13.800000 106.100000 L 13.800000 107.100000 L 13.800000 108.100000 L 13.800000 109.100000 L 13.800000 110.100000 L 13.800000 111.100000 L 13.800000 112.100000 L 13.800000 113.100000 L 13.800000 114.100000 L 13.800000 115.100000 L 13.800000 116.100000 L 13.800000 117.100000 L 13.800000 118.100000 L 13.800000 119.100000 L 13.800000 120.100000 L 13.800000 121.100000 L 13.800000 122.100000 L 13.800000 123.100000 L 13.800000 124.100000 L 13.800000 125.100000 L 13.800000 126.100000 L 13.800000 127.100000 L 13.800000 128.100000 L 13.800000 129.100000 L 13.800000 130.100000 L 13.800000 131.100000 L 13.800000 132.100000 L 13.800000 133.100000 L 13.800000 134.100000 L 13.800000 135.100000 L 13.800000 136.100000 L 13.800000 137.100000 L 13.800000 138.100000 L 13.800000 139.100000 L 13.800000 140.100000 L 13.800000 141.100000 L 13.800000 142.100000 L 13.800000 143.100000 L 13.800000 144.100000 L 13.800000 145.100000 L 13.800000 146.100000 L 13.800000 147.100000 L 13.800000 148.100000 L 13.800000 149.100000 L 13.800000 150.100000 L 13.800000 151.100000 L 13.800000 152.100000 L 13.800000 153.100000 L 13.800000 154.100000 L 13.800000 155.100000 L 13.800000 156.100000 L 13.800000 157.100000 L 13.800000 158.100000 L 13.800000 159.100000 L 13.800000 160.100000 L 13.800000 161.100000 L 13.800000 162.100000 L 13.800000 163.100000 L 13.800000 164.100000 L 13.800000 165.100000 L 13.800000 166.100000 L 13.800000 167.100000 L 13.800000 168.100000 L 13.800000 169.100000 L 13.800000 170.100000 L 13.800000 171.100000 L 13.800000 172.100000 L 13.800000 173.100000 L 13.800000 174.100000 L 13.800000 175.100000 L 13.800000 176.100000 L 13.800000 177.100000 L 13.800000 178.100000 L 13.800000 179.100000 L 13.800000 180.100000 L 13.800000 181.100000 L 13.800000 182.100000 L 13.800000 183.100000 L 13.800000 184.100000 L 13.800000 185.100000 L 13.800000 186.100000 L 13.800000 187.100000 L 13.800000 188.100000 L 13.800000 189.100000 L 13.800000 190.100000 L 13.800000 191.100000 L 13.800000 192.100000 L 13.800000 193.100000 L 13.800000 194.100000 L 13.800000 195.100000 L 13.800000 196.100000 L 13.800000 197.100000 L 13.800000 198.100000 L 13.800000 199.100000 L 13.800000 200.100000 L 13.800000 201.100000 L 13.800000 202.100000 L 13.800000 203.100000 L 13.800000 204.100000 L 13.800000 205.100000 L 13.800000 206.100000 L 13.800000 207.100000 L 13.800000 208.100000 L 13.800000 209.100000 L 13.800000 210.100000 L 13.800000 211.100000 L 13.800000 212.100000 L 13.800000 213.100000 L 13.800000 214.100000 L 13.800000 215.100000 L 13.800000 216.100000 L 13.800000 217.100000 L 13.800000 218.100000 L 13.800000 219.100000 L 13.800000 220.100000 L 13.800000 221.100000 L 13.800000 222.100000 L 13.800000 223.100000 L 13.800000 224.100000 L 13.800000 225.100000 L 13.800000 226.100000 L 13.800000 227.100000 L 13.800000 228.100000 L 13.800000 229.100000 L 13.800000 230.100000 L 13.800000 231.100000 L 13.800000 232.100000 L 13.800000 233.100000 L 13.800000 234.100000 L 13.800000 235.100000 L 13.800000 236.100000 L 13.800000 237.100000 L 13.800000 238.100000 L 13.800000 239.100000 L 13.800000 240.100000 L 13.800000 241.100000 L 13.800000 242.100000 L 13.800000 243.100000 L 13.800000 244.100000 L 13.800000 245.100000 L 13.800000 246.100000 L 13.800000 247.100000 L 13.800000 248.100000 L 13.800000 249.100000 L 13.800000 250.100000 L 13.800000 251.100000 L 13.800000 252.100000 L 13.800000 253.100000 L 13.800000 254.100000 L 13.800000 255.100000 L 13.800000 256.100000 L 13.800000 257.100000 L 13.800000 258.100000 L 13.800000 259.100000 L 13.800000 260.100000 L 13.800000 261.100000 L 13.800000 262.100000 L 13.800000 263.100000 L 13.800000 264.100000 L 13.800000 265.100000 L 13.800000 266.100000 L 13.800000 267.100000 L 13.800000 268.100000 L 13.800000 269.100000 L 13.800000 270.100000 L 13.800000 271.100000 L 13.800000 272.100000 L 13.800000 273.100000 L 13.800000 274.100000 L 13.800000 275.100000 L 13.800000 276.100000 L 13.800000 277.100000 L 13.800000 278.100000 L 13.800000 279.100000 L 13.800000 280.100000 L 13.800000 281.100000 L 13.800000 282.100000 L 13.800000 283.100000 L 13.800000 284.100000 L 13.800000 285.100000 L 13.798000 286.018000 L 13.792000 286.942000 L 13.782200 287.871000 L 13.768700 288.805000 L 13.751800 289.745000 L 13.731400 290.690000 L 13.707800 291.639000 L 13.681100 292.594000 L 13.651400 293.553000 L 13.618900 294.517000 L 13.583800 295.485000 L 13.546100 296.458000 L 13.506100 297.435000 L 13.463800 298.416000 L 13.419400 299.400000 L 13.373100 300.389000 L 13.324900 301.381000 L 13.275100 302.377000 L 13.223700 303.377000 L 13.171000 304.379000 L 13.117000 305.385000 L 13.062000 306.394000 L 13.005900 307.406000 L 12.949100 308.421000 L 12.891600 309.438000 L 12.833600 310.458000 L 12.775200 311.481000 L 12.716500 312.505000 L 12.657800 313.532000 L 12.599100 314.561000 L 12.540600 315.592000 L 12.482400 316.625000 L 12.424700 317.659000 L 12.367600 318.695000 L 12.311300 319.732000 L 12.255800 320.771000 L 12.201500 321.810000 L 12.148300 322.851000 L 12.096400 323.893000 L 12.046000 324.935000 L 11.997300 325.978000 L 11.950300 327.022000 L 11.905200 328.066000 L 11.862100 329.110000 L 11.821300 330.155000 L 11.782700 331.199000 L 11.746700 332.244000 L 11.713200 333.288000 L 11.682600 334.332000 L 11.654800 335.375000 L 11.630100 336.418000 L 11.608500 337.460000 L 11.590300 338.501000 L 11.575600 339.541000 L 11.564500 340.580000 L 11.557100 341.618000 L 11.553700 342.655000 L 11.554300 343.690000 L 11.559100 344.723000 L 11.568200 345.754000 L 11.581800 346.784000 L 11.600000 347.812000 L 11.623000 348.837000 L 11.650900 349.861000 L 11.683800 350.882000 L 11.722000 351.900000 L 11.765400 352.916000 L 11.814300 353.929000 L 11.868900 354.939000 L 11.929200 355.946000 L 11.995400 356.950000 L 12.067700 357.951000 L 12.146100 358.948000 L 12.230900 359.942000 L 12.322200 360.932000 L 12.420000 361.919000 L 12.524700 362.901000 L 12.636200 363.880000 L 12.754800 364.854000 L 12.880600 365.824000 L 13.013700 366.789000 L 13.154300 367.751000 L 13.302500 368.707000 L 13.458500 369.659000 L 13.622400 370.605000 L 13.794300 371.547000 L 13.974400 372.484000 L 14.162900 373.415000 L 14.359800 374.341000 L 14.565300 375.261000 L 14.779600 376.175000 L 15.002800 377.084000 L 15.235100 377.987000 L 15.476500 378.884000 L 15.727300 379.774000 L 15.987600 380.659000 L 16.000000 380.700000" fill="none" id="2" stroke="black" stroke-width="1.5" /><path d="M 20.400000 17.200000 L 21.291500 17.131500 L 22.185300 17.063900 L 23.081400 16.997100 L 23.979900 16.931200 L 24.880700 16.866200 L 25.783700 16.801900 L 26.689000 16.738500 L 27.596500 16.676000 L 28.506300 16.614200 L 29.418300 16.553200 L 30.332400 16.493100 L 31.248800 16.433800 L 32.167200 16.375200 L 33.087800 16.317400 L 34.010500 16.260400 L 34.935300 16.204200 L 35.862100 16.148700 L 36.791100 16.094000 L 37.722000 16.040100 L 38.655000 15.986900 L 39.589900 15.934400 L 40.526800 15.882600 L 41.465700 15.831600 L 42.406500 15.781300 L 43.349300 15.731700 L 44.293900 15.682800 L 45.240400 15.634600 L 46.188800 15.587100 L 47.139000 15.540300 L 48.091000 15.494100 L 49.044900 15.448700 L 50.000500 15.403900 L 50.957900 15.359700 L 51.917000 15.316200 L 52.877900 15.273300 L 53.840500 15.231100 L 54.804800 15.189500 L 55.770700 15.148500 L 56.738300 15.108200 L 57.707500 15.068400 L 58.678400 15.029300 L 59.650800 14.990800 L 60.624800 14.952800 L 61.600400 14.915400 L 62.577500 14.878600 L 63.556200 14.842400 L 64.536300 14.806700 L 65.517900 14.771600 L 66.501000 14.737100 L 67.485500 14.703100 L 68.471400 14.669600 L 69.458800 14.636600 L 70.447500 14.604200 L 71.437600 14.572300 L 72.429100 14.540900 L 73.421900 14.510000 L 74.416000 14.479600 L 75.411400 14.449700 L 76.408000 14.420300 L 77.405900 14.391300 L 78.405100 14.362900 L 79.405400 14.334800 L 80.407000 14.307300 L 81.409700 14.280200 L 82.413600 14.253500 L 83.418700 14.227300 L 84.424800 14.201500 L 85.432100 14.176100 L 86.440400 14.151100 L 87.449800 14.126600 L 88.460300 14.102400 L 89.471800 14.078700 L 90.484300 14.055300 L 91.497700 14.032300 L 92.512200 14.009700 L 93.527600 13.987500 L 94.543900 13.965600 L 95.561100 13.944100 L 96.579300 13.922900 L 97.598300 13.902100 L 98.618100 13.881600 L 99.638800 13.861500 L 100.660000 13.841600 L 101.683000 13.822100 L 102.706000 13.802900 L 103.730000 13.784000 L 104.754000 13.765400 L 105.780000 13.747100 L 106.806000 13.729000 L 107.832000 13.711300 L 108.860000 13.693800 L 109.888000 13.676600 L 110.916000 13.659600 L 111.946000 13.642900 L 112.975000 13.626400 L 114.006000 13.610100 L 115.037000 13.594100 L 116.068000 13.578300 L 117.100000 13.562800 L 118.133000 13.547400 L 119.166000 13.532200 L 120.199000 13.517300 L 121.233000 13.502500 L 122.267000 13.487900 L 123.302000 13.473500 L 124.337000 13.459200 L 125.373000 13.445100 L 126.408000 13.431200 L 127.444000 13.417400 L 128.481000 13.403800 L 129.518000 13.390300 L 130.554000 13.376900 L 131.592000 13.363600 L 132.629000 13.350500 L 133.667000 13.337500 L 134.705000 13.324500 L 135.743000 13.311700 L 136.781000 13.299000 L 137.819000 13.286300 L 138.858000 13.273700 L 139.896000 13.261200 L 140.935000 13.248800 L 141.973000 13.236400 L 143.012000 13.224000 L 144.051000 13.211700 L 145.089000 13.199400 L 146.128000 13.187200 L 147.167000 13.175000 L 148.205000 13.162800 L 149.244000 13.150600 L 150.282000 13.138400 L 151.321000 13.126200 L 152.359000 13.114000 L 153.397000 13.101800 L 154.435000 13.089500 L 155.472000 13.077300 L 156.510000 13.064900 L 157.547000 13.052600 L 158.584000 13.040200 L 159.621000 13.027700 L 160.657000 13.015200 L 161.693000 13.002600 L 162.729000 12.989900 L 163.765000 12.977100 L 164.800000 12.964300 L 165.834000 12.951300 L 166.869000 12.938200 L 167.903000 12.925100 L 168.936000 12.911800 L 169.969000 12.898400 L 171.002000 12.884800 L 172.034000 12.871100 L 173.066000 12.857300 L 174.097000 12.843300 L 175.127000 12.829200 L 176.157000 12.814900 L 177.186000 12.800400 L 178.215000 12.785800 L 179.243000 12.771000 L 180.271000 12.755900 L 181.297000 12.740700 L 182.323000 12.725300 L 183.349000 12.709600 L 184.374000 12.693800 L 185.397000 12.677700 L 186.421000 12.661400 L 187.443000 12.644800 L 188.465000 12.628000 L 189.486000 12.611000 L 190.505000 12.593700 L 191.525000 12.576100 L 192.543000 12.558300 L 193.560000 12.540100 L 194.577000 12.521700 L 195.592000 12.503000 L 196.607000 12.484100 L 197.620000 12.464800 L 198.633000 12.445100 L 199.645000 12.425200 L 200.655000 12.405000 L 201.665000 12.384400 L 202.673000 12.363500 L 203.681000 12.342200 L 204.687000 12.320600 L 205.692000 12.298600 L 206.696000 12.276200 L 207.699000 12.253500 L 208.701000 12.230400 L 209.701000 12.207000 L 210.701000 12.183100 L 211.699000 12.158800 L 212.695000 12.134200 L 213.691000 12.109100 L 214.685000 12.083600 L 215.678000 12.057600 L 216.670000 12.031300 L 217.660000 12.004500 L 218.649000 11.977200 L 219.637000 11.949600 L 220.623000 11.921400 L 221.607000 11.892800 L 222.591000 11.863700 L 223.572000 11.834100 L 224.553000 11.804100 L 225.532000 11.773500 L 226.509000 11.742500 L 227.485000 11.710900 L 228.459000 11.678900 L 229.432000 11.646300 L 230.403000 11.613200 L 231.372000 11.579600 L 232.340000 11.545400 L 233.306000 11.510700 L 234.293000 11.474300 L 235.290000 11.436900 L 236.286000 11.399100 L 237.283000 11.360800 L 238.280000 11.322100 L 239.277000 11.283000 L 240.274000 11.243500 L 241.271000 11.203700 L 242.269000 11.163400 L 243.266000 11.122800 L 244.263000 11.081900 L 245.261000 11.040600 L 246.258000 10.999000 L 247.256000 10.957100 L 248.254000 10.914900 L 249.252000 10.872500 L 250.250000 10.829700 L 251.248000 10.786700 L 252.246000 10.743500 L 253.244000 10.700000 L 254.242000 10.656300 L 255.240000 10.612500 L 256.239000 10.568400 L 257.237000 10.524100 L 258.235000 10.479700 L 259.234000 10.435200 L 260.233000 10.390500 L 261.231000 10.345600 L 262.230000 10.300700 L 263.229000 10.255700 L 264.228000 10.210500 L 265.227000 10.165300 L 266.225000 10.120100 L 267.225000 10.074700 L 268.224000 10.029400 L 269.223000 9.984030 L 270.222000 9.938650 L 271.221000 9.893280 L 272.220000 9.847920 L 273.220000 9.802590 L 274.219000 9.757300 L 275.219000 9.712070 L 276.218000 9.666900 L 277.218000 9.621810 L 278.217000 9.576820 L 279.217000 9.531940 L 280.216000 9.487170 L 281.216000 9.442530 L 282.216000 9.398040 L 283.216000 9.353710 L 284.216000 9.309550 L 285.215000 9.265570 L 286.215000 9.221790 L 287.215000 9.178220 L 288.215000 9.134870 L 289.215000 9.091760 L 290.215000 9.048890 L 291.215000 9.006280 L 292.215000 8.963950 L 293.215000 8.921910 L 294.216000 8.880160 L 295.216000 8.838730 L 296.216000 8.797620 L 297.216000 8.756850 L 298.216000 8.716430 L 299.217000 8.676370 L 300.217000 8.636690 L 301.217000 8.597400 L 302.217000 8.558520 L 303.218000 8.520040 L 304.218000 8.482000 L 305.218000 8.444400 L 306.219000 8.407250 L 307.219000 8.370570 L 308.220000 8.334370 L 309.220000 8.298660 L 310.220000 8.263460 L 311.221000 8.228770 L 312.221000 8.194620 L 313.222000 8.161010 L 314.222000 8.127960 L 315.222000 8.095470 L 316.223000 8.063570 L 317.223000 8.032270 L 318.224000 8.001570 L 319.224000 7.971500 L 320.225000 7.942060 L 321.225000 7.913270 L 322.225000 7.885130 L 323.226000 7.857670 L 324.226000 7.830900 L 325.227000 7.804830 L 326.227000 7.779460 L 327.227000 7.754820 L 328.228000 7.730920 L 329.228000 7.707770 L 330.228000 7.685380 L 331.229000 7.663770 L 332.229000 7.642940 L 333.229000 7.622920 L 334.230000 7.603710 L 335.230000 7.585330 L 336.230000 7.567800 L 337.230000 7.551110 L 338.230000 7.535290 L 339.231000 7.520350 L 340.231000 7.506300 L 341.231000 7.493150 L 342.231000 7.480930 L 343.231000 7.469630 L 344.231000 7.459280 L 345.231000 7.449880 L 346.231000 7.441450 L 347.231000 7.434010 L 348.231000 7.427550 L 349.230000 7.422110 L 350.230000 7.417690 L 351.230000 7.414300 L 352.230000 7.411960 L 353.230000 7.410670 L 354.229000 7.410460 L 355.229000 7.411340 L 356.228000 7.413310 L 357.228000 7.416390 L 358.227000 7.420600 L 359.227000 7.425940 L 360.226000 7.432430 L 361.225000 7.440090 L 362.225000 7.448920 L 363.224000 7.458940 L 364.223000 7.470150 L 365.222000 7.482590 L 366.221000 7.496250 L 367.220000 7.511140 L 368.219000 7.527300 L 369.218000 7.544710 L 370.217000 7.563410 L 371.216000 7.583390 L 372.000000 7.600000" fill="none" id="3" stroke="black" stroke-width="1.5" /><path d="M 367.800000 0.000000 L 367.800000 0.999721 L 367.800000 1.999450 L 367.800000 2.999180 L 367.800000 3.998910 L 367.800000 4.998650 L 367.800000 5.998400 L 367.800000 6.998150 L 367.800000 7.997900 L 367.800000 8.997660 L 367.800000 9.997420 L 367.800000 10.997200 L 367.800000 11.997000 L 367.800000 12.996700 L 367.800000 13.996500 L 367.800000 14.996300 L 367.800000 15.996100 L 367.800000 16.995900 L 367.800000 17.995700 L 367.800000 18.995500 L 367.800000 19.995300 L 367.800000 20.995100 L 367.800000 21.994900 L 367.800000 22.994700 L 367.800000 23.994600 L 367.800000 24.994400 L 367.800000 25.994200 L 367.800000 26.994100 L 367.800000 27.993900 L 367.800000 28.993700 L 367.800000 29.993600 L 367.800000 30.993400 L 367.800000 31.993300 L 367.800000 32.993100 L 367.800000 33.993000 L 367.800000 34.992900 L 367.800000 35.992700 L 367.800000 36.992600 L 367.800000 37.992500 L 367.800000 38.992400 L 367.800000 39.992300 L 367.800000 40.992200 L 367.800000 41.992000 L 367.800000 42.991900 L 367.800000 43.991800 L 367.800000 44.991700 L 367.800000 45.991700 L 367.800000 46.991600 L 367.800000 47.991500 L 367.800000 48.991400 L 367.800000 49.991300 L 367.800000 50.991200 L 367.800000 51.991200 L 367.800000 52.991100 L 367.800000 53.991000 L 367.800000 54.991000 L 367.800000 55.990900 L 367.800000 56.990900 L 367.800000 57.990800 L 367.800000 58.990800 L 367.800000 59.990700 L 367.800000 60.990700 L 367.800000 61.990600 L 367.800000 62.990600 L 367.800000 63.990600 L 367.800000 64.990500 L 367.800000 65.990500 L 367.800000 66.990500 L 367.800000 67.990500 L 367.800000 68.990400 L 367.800000 69.990400 L 367.800000 70.990400 L 367.800000 71.990400 L 367.800000 72.990400 L 367.800000 73.990400 L 367.800000 74.990400 L 367.800000 75.990400 L 367.800000 76.990400 L 367.800000 77.990400 L 367.800000 78.990400 L 367.800000 79.990400 L 367.800000 80.990400 L 367.800000 81.990400 L 367.800000 82.990500 L 367.800000 83.990500 L 367.800000 84.990500 L 367.800000 85.990500 L 367.800000 86.990600 L 367.800000 87.990600 L 367.800000 88.990600 L 367.800000 89.990700 L 367.800000 90.990700 L 367.800000 91.990700 L 367.800000 92.990800 L 367.800000 93.990800 L 367.800000 94.990900 L 367.800000 95.990900 L 367.800000 96.991000 L 367.800000 97.991000 L 367.800000 98.991100 L 367.800000 99.991200 L 367.800000 100.991000 L 367.800000 101.991000 L 367.800000 102.991000 L 367.800000 103.991000 L 367.800000 104.991000 L 367.800000 105.992000 L 367.800000 106.992000 L 367.800000 107.992000 L 367.800000 108.992000 L 367.800000 109.992000 L 367.800000 110.992000 L 367.800000 111.992000 L 367.800000 112.992000 L 367.800000 113.992000 L 367.800000 114.992000 L 367.800000 115.992000 L 367.800000 116.992000 L 367.800000 117.993000 L 367.800000 118.993000 L 367.800000 119.993000 L 367.800000 120.993000 L 367.800000 121.993000 L 367.800000 122.993000 L 367.800000 123.993000 L 367.800000 124.993000 L 367.800000 125.993000 L 367.800000 126.993000 L 367.800000 127.994000 L 367.800000 128.994000 L 367.800000 129.994000 L 367.800000 130.994000 L 367.800000 131.994000 L 367.800000 132.994000 L 367.800000 133.994000 L 367.800000 134.994000 L 367.800000 135.994000 L 367.800000 136.995000 L 367.800000 137.995000 L 367.800000 138.995000 L 367.800000 139.995000 L 367.800000 140.995000 L 367.800000 141.995000 L 367.800000 142.995000 L 367.800000 143.995000 L 367.800000 144.996000 L 367.800000 145.996000 L 367.800000 146.996000 L 367.800000 147.996000 L 367.800000 148.996000 L 367.800000 149.996000 L 367.800000 150.996000 L 367.800000 151.996000 L 367.800000 152.997000 L 367.800000 153.997000 L 367.800000 154.997000 L 367.800000 155.997000 L 367.800000 156.997000 L 367.800000 157.997000 L 367.800000 158.997000 L 367.800000 159.998000 L 367.800000 160.998000 L 367.800000 161.998000 L 367.800000 162.998000 L 367.800000 163.998000 L 367.800000 164.998000 L 367.800000 165.998000 L 367.800000 166.998000 L 367.800000 167.999000 L 367.800000 168.999000 L 367.800000 169.999000 L 367.800000 170.999000 L 367.800000 171.999000 L 367.800000 172.999000 L 367.800000 173.999000 L 367.800000 175.000000 L 367.800000 176.000000 L 367.800000 177.000000 L 367.800000 178.000000 L 367.800000 179.000000 L 367.800000 180.000000 L 367.800000 181.000000 L 367.800000 182.001000 L 367.800000 183.001000 L 367.800000 184.001000 L 367.800000 185.001000 L 367.800000 186.001000 L 367.800000 187.001000 L 367.800000 188.001000 L 367.800000 189.002000 L 367.800000 190.002000 L 367.800000 191.002000 L 367.800000 192.002000 L 367.800000 193.002000 L 367.800000 194.002000 L 367.800000 195.002000 L 367.800000 196.003000 L 367.800000 197.003000 L 367.800000 198.003000 L 367.800000 199.003000 L 367.800000 200.003000 L 367.800000 201.003000 L 367.800000 202.003000 L 367.800000 203.003000 L 367.800000 204.004000 L 367.800000 205.004000 L 367.800000 206.004000 L 367.800000 207.004000 L 367.800000 208.004000 L 367.800000 209.004000 L 367.800000 210.004000 L 367.800000 211.004000 L 367.800000 212.005000 L 367.800000 213.005000 L 367.800000 214.005000 L 367.800000 215.005000 L 367.800000 216.005000 L 367.800000 217.005000 L 367.800000 218.005000 L 367.800000 219.005000 L 367.800000 220.006000 L 367.800000 221.006000 L 367.800000 222.006000 L 367.800000 223.006000 L 367.800000 224.006000 L 367.800000 225.006000 L 367.800000 226.006000 L 367.800000 227.006000 L 367.800000 228.006000 L 367.800000 229.007000 L 367.800000 230.007000 L 367.800000 231.007000 L 367.800000 232.007000 L 367.800000 233.007000 L 367.800000 234.007000 L 367.800000 235.007000 L 367.800000 236.007000 L 367.800000 237.007000 L 367.800000 238.007000 L 367.800000 239.008000 L 367.800000 240.008000 L 367.800000 241.008000 L 367.800000 242.008000 L 367.800000 243.008000 L 367.800000 244.008000 L 367.800000 245.008000 L 367.800000 246.008000 L 367.800000 247.008000 L 367.800000 248.008000 L 367.800000 249.008000 L 367.800000 250.008000 L 367.800000 251.009000 L 367.800000 252.009000 L 367.800000 253.009000 L 367.800000 254.009000 L 367.800000 255.009000 L 367.800000 256.009000 L 367.800000 257.009000 L 367.800000 258.009000 L 367.800000 259.009000 L 367.800000 260.009000 L 367.800000 261.009000 L 367.800000 262.009000 L 367.800000 263.009000 L 367.800000 264.009000 L 367.800000 265.009000 L 367.800000 266.009000 L 367.800000 267.009000 L 367.800000 268.009000 L 367.800000 269.009000 L 367.800000 270.009000 L 367.800000 271.009000 L 367.800000 272.010000 L 367.800000 273.010000 L 367.800000 274.010000 L 367.800000 275.010000 L 367.800000 276.010000 L 367.800000 277.010000 L 367.800000 278.010000 L 367.800000 279.010000 L 367.800000 280.010000 L 367.800000 281.010000 L 367.800000 282.010000 L 367.800000 283.010000 L 367.800000 284.010000 L 367.800000 285.010000 L 367.800000 286.010000 L 367.800000 287.010000 L 367.800000 288.010000 L 367.800000 289.010000 L 367.800000 290.010000 L 367.800000 291.009000 L 367.800000 292.009000 L 367.800000 293.009000 L 367.800000 294.009000 L 367.800000 295.009000 L 367.800000 296.009000 L 367.800000 297.009000 L 367.800000 298.009000 L 367.800000 299.009000 L 367.800000 300.009000 L 367.800000 301.009000 L 367.800000 302.009000 L 367.800000 303.009000 L 367.800000 304.009000 L 367.800000 305.009000 L 367.800000 306.009000 L 367.800000 307.009000 L 367.800000 308.009000 L 367.800000 309.008000 L 367.800000 310.008000 L 367.800000 311.008000 L 367.800000 312.008000 L 367.800000 313.008000 L 367.800000 314.008000 L 367.800000 315.008000 L 367.800000 316.008000 L 367.800000 317.008000 L 367.800000 318.007000 L 367.800000 319.007000 L 367.800000 320.007000 L 367.800000 321.007000 L 367.800000 322.007000 L 367.800000 323.007000 L 367.800000 324.007000 L 367.800000 325.007000 L 367.800000 326.006000 L 367.800000 327.006000 L 367.800000 328.006000 L 367.800000 329.006000 L 367.800000 330.006000 L 367.800000 331.006000 L 367.800000 332.005000 L 367.800000 333.005000 L 367.800000 334.005000 L 367.800000 335.005000 L 367.800000 336.005000 L 367.800000 337.004000 L 367.800000 338.004000 L 367.800000 339.004000 L 367.800000 340.004000 L 367.800000 341.004000 L 367.800000 342.003000 L 367.800000 343.003000 L 367.800000 344.003000 L 367.800000 345.003000 L 367.800000 346.003000 L 367.800000 347.002000 L 367.800000 348.002000 L 367.800000 349.002000 L 367.800000 350.002000 L 367.800000 351.001000 L 367.800000 352.001000 L 367.800000 353.001000 L 367.800000 354.001000 L 367.800000 355.000000 L 367.800000 355.900000" fill="none" id="4" stroke="black" stroke-width="1.5" /><path d="M 0.000000 353.800000 L 1.000350 353.800000 L 2.000710 353.800000 L 3.001060 353.800000 L 4.001420 353.800000 L 5.001770 353.800000 L 6.002130 353.800000 L 7.002480 353.800000 L 8.002830 353.800000 L 9.003190 353.800000 L 10.003500 353.800000 L 11.003900 353.800000 L 12.004200 353.800000 L 13.004600 353.800000 L 14.004900 353.800000 L 15.005300 353.800000 L 16.005700 353.800000 L 17.006000 353.800000 L 18.006400 353.800000 L 19.006700 353.800000 L 20.007100 353.800000 L 21.007400 353.800000 L 22.007700 353.800000 L 23.008100 353.800000 L 24.008400 353.800000 L 25.008800 353.800000 L 26.009100 353.800000 L 27.009500 353.800000 L 28.009800 353.800000 L 29.010200 353.800000 L 30.010500 353.800000 L 31.010900 353.800000 L 32.011200 353.800000 L 33.011500 353.800000 L 34.011900 353.800000 L 35.012200 353.800000 L 36.012500 353.800000 L 37.012900 353.800000 L 38.013200 353.800000 L 39.013600 353.800000 L 40.013900 353.800000 L 41.014200 353.800000 L 42.014600 353.800000 L 43.014900 353.800000 L 44.015200 353.800000 L 45.015500 353.800000 L 46.015900 353.800000 L 47.016200 353.800000 L 48.016500 353.800000 L 49.016800 353.800000 L 50.017200 353.800000 L 51.017500 353.800000 L 52.017800 353.800000 L 53.018100 353.800000 L 54.018400 353.800000 L 55.018700 353.800000 L 56.019100 353.800000 L 57.019400 353.800000 L 58.019700 353.800000 L 59.020000 353.800000 L 60.020300 353.800000 L 61.020600 353.800000 L 62.020900 353.800000 L 63.021200 353.800000 L 64.021500 353.800000 L 65.021800 353.800000 L 66.022100 353.800000 L 67.022400 353.800000 L 68.022700 353.800000 L 69.023000 353.800000 L 70.023300 353.800000 L 71.023600 353.800000 L 72.023900 353.800000 L 73.024100 353.800000 L 74.024400 353.800000 L 75.024700 353.800000 L 76.025000 353.800000 L 77.025300 353.800000 L 78.025500 353.800000 L 79.025800 353.800000 L 80.026100 353.800000 L 81.026300 353.800000 L 82.026600 353.800000 L 83.026900 353.800000 L 84.027100 353.800000 L 85.027400 353.800000 L 86.027600 353.800000 L 87.027900 353.800000 L 88.028200 353.800000 L 89.028400 353.800000 L 90.028600 353.800000 L 91.028900 353.800000 L 92.029100 353.800000 L 93.029400 353.800000 L 94.029600 353.800000 L 95.029800 353.800000 L 96.030100 353.800000 L 97.030300 353.800000 L 98.030500 353.800000 L 99.030800 353.800000 L 100.031000 353.800000 L 101.031000 353.800000 L 102.031000 353.800000 L 103.032000 353.800000 L 104.032000 353.800000 L 105.032000 353.800000 L 106.032000 353.800000 L 107.032000 353.800000 L 108.033000 353.800000 L 109.033000 353.800000 L 110.033000 353.800000 L 111.033000 353.800000 L 112.033000 353.800000 L 113.034000 353.800000 L 114.034000 353.800000 L 115.034000 353.800000 L 116.034000 353.800000 L 117.034000 353.800000 L 118.035000 353.800000 L 119.035000 353.800000 L 120.035000 353.800000 L 121.035000 353.800000 L 122.035000 353.800000 L 123.035000 353.800000 L 124.035000 353.800000 L 125.036000 353.800000 L 126.036000 353.800000 L 127.036000 353.800000 L 128.036000 353.800000 L 129.036000 353.800000 L 130.036000 353.800000 L 131.036000 353.800000 L 132.037000 353.800000 L 133.037000 353.800000 L 134.037000 353.800000 L 135.037000 353.800000 L 136.037000 353.800000 L 137.037000 353.800000 L 138.037000 353.800000 L 139.037000 353.800000 L 140.037000 353.800000 L 141.037000 353.800000 L 142.038000 353.800000 L 143.038000 353.800000 L 144.038000 353.800000 L 145.038000 353.800000 L 146.038000 353.800000 L 147.038000 353.800000 L 148.038000 353.800000 L 149.038000 353.800000 L 150.038000 353.800000 L 151.038000 353.800000 L 152.038000 353.800000 L 153.038000 353.800000 L 154.038000 353.800000 L 155.038000 353.800000 L 156.038000 353.800000 L 157.038000 353.800000 L 158.038000 353.800000 L 159.038000 353.800000 L 160.038000 353.800000 L 161.038000 353.800000 L 162.038000 353.800000 L 163.038000 353.800000 L 164.038000 353.800000 L 165.038000 353.800000 L 166.038000 353.800000 L 167.038000 353.800000 L 168.038000 353.800000 L 169.038000 353.800000 L 170.038000 353.800000 L 171.038000 353.800000 L 172.038000 353.800000 L 173.038000 353.800000 L 174.038000 353.800000 L 175.038000 353.800000 L 176.038000 353.800000 L 177.038000 353.800000 L 178.038000 353.800000 L 179.038000 353.800000 L 180.038000 353.800000 L 181.038000 353.800000 L 182.038000 353.800000 L 183.038000 353.800000 L 184.037000 353.800000 L 185.037000 353.800000 L 186.037000 353.800000 L 187.037000 353.800000 L 188.037000 353.800000 L 189.037000 353.800000 L 190.037000 353.800000 L 191.037000 353.800000 L 192.037000 353.800000 L 193.036000 353.800000 L 194.036000 353.800000 L 195.036000 353.800000 L 196.036000 353.800000 L 197.036000 353.800000 L 198.036000 353.800000 L 199.035000 353.800000 L 200.035000 353.800000 L 201.035000 353.800000 L 202.035000 353.800000 L 203.035000 353.800000 L 204.035000 353.800000 L 205.034000 353.800000 L 206.034000 353.800000 L 207.034000 353.800000 L 208.034000 353.800000 L 209.033000 353.800000 L 210.033000 353.800000 L 211.033000 353.800000 L 212.033000 353.800000 L 213.032000 353.800000 L 214.032000 353.800000 L 215.032000 353.800000 L 216.032000 353.800000 L 217.031000 353.800000 L 218.031000 353.800000 L 219.031000 353.800000 L 220.031000 353.800000 L 221.030000 353.800000 L 222.030000 353.800000 L 223.030000 353.800000 L 224.029000 353.800000 L 225.029000 353.800000 L 226.029000 353.800000 L 227.028000 353.800000 L 228.028000 353.800000 L 229.028000 353.800000 L 230.027000 353.800000 L 231.027000 353.800000 L 232.027000 353.800000 L 233.026000 353.800000 L 234.026000 353.800000 L 235.026000 353.800000 L 236.025000 353.800000 L 237.025000 353.800000 L 238.024000 353.800000 L 239.024000 353.800000 L 240.024000 353.800000 L 241.023000 353.800000 L 242.023000 353.800000 L 243.022000 353.800000 L 244.022000 353.800000 L 245.021000 353.800000 L 246.021000 353.800000 L 247.020000 353.800000 L 248.020000 353.800000 L 249.020000 353.800000 L 250.019000 353.800000 L 251.019000 353.800000 L 252.018000 353.800000 L 253.018000 353.800000 L 254.017000 353.800000 L 255.017000 353.800000 L 256.016000 353.800000 L 257.016000 353.800000 L 258.015000 353.800000 L 259.014000 353.800000 L 260.014000 353.800000 L 261.013000 353.800000 L 262.013000 353.800000 L 263.012000 353.800000 L 264.012000 353.800000 L 265.011000 353.800000 L 266.011000 353.800000 L 267.010000 353.800000 L 268.009000 353.800000 L 269.009000 353.800000 L 270.008000 353.800000 L 271.007000 353.800000 L 272.007000 353.800000 L 273.006000 353.800000 L 274.006000 353.800000 L 275.005000 353.800000 L 276.004000 353.800000 L 277.004000 353.800000 L 278.003000 353.800000 L 279.002000 353.800000 L 280.002000 353.800000 L 281.001000 353.800000 L 282.000000 353.800000 L 282.997000 353.801000 L 283.993000 353.804000 L 284.990000 353.809000 L 285.987000 353.817000 L 286.985000 353.825000 L 287.982000 353.834000 L 288.981000 353.844000 L 289.979000 353.855000 L 290.978000 353.865000 L 291.977000 353.875000 L 292.976000 353.883000 L 293.975000 353.891000 L 294.975000 353.897000 L 295.974000 353.901000 L 296.974000 353.903000 L 297.974000 353.902000 L 298.974000 353.898000 L 299.974000 353.890000 L 300.974000 353.879000 L 301.974000 353.864000 L 302.973000 353.844000 L 303.973000 353.819000 L 304.973000 353.788000 L 305.973000 353.753000 L 306.972000 353.711000 L 307.971000 353.663000 L 308.970000 353.608000 L 309.969000 353.546000 L 310.968000 353.476000 L 311.966000 353.399000 L 312.964000 353.313000 L 313.962000 353.219000 L 314.959000 353.116000 L 315.956000 353.003000 L 316.953000 352.881000 L 317.949000 352.749000 L 318.300000 352.700000" fill="none" id="5" stroke="black" stroke-width="1.5" /><path d="M 207.500000 357.000000 L 208.467000 357.072000 L 209.435000 357.139000 L 210.405000 357.201000 L 211.375000 357.258000 L 212.347000 357.311000 L 213.321000 357.359000 L 214.295000 357.402000 L 215.271000 357.440000 L 216.248000 357.474000 L 217.225000 357.503000 L 218.205000 357.528000 L 219.185000 357.549000 L 220.166000 357.565000 L 221.148000 357.577000 L 222.132000 357.585000 L 223.116000 357.589000 L 224.101000 357.589000 L 225.088000 357.584000 L 226.075000 357.576000 L 227.063000 357.564000 L 228.052000 357.548000 L 229.043000 357.528000 L 230.033000 357.504000 L 231.025000 357.477000 L 232.018000 357.446000 L 233.011000 357.412000 L 234.006000 357.374000 L 235.001000 357.333000 L 235.997000 357.288000 L 236.993000 357.240000 L 237.990000 357.189000 L 238.988000 357.135000 L 239.987000 357.077000 L 240.986000 357.017000 L 241.986000 356.953000 L 242.987000 356.887000 L 243.988000 356.817000 L 244.990000 356.745000 L 245.992000 356.670000 L 246.995000 356.592000 L 247.998000 356.512000 L 249.002000 356.429000 L 250.007000 356.344000 L 251.011000 356.256000 L 252.017000 356.166000 L 253.022000 356.073000 L 254.028000 355.978000 L 255.035000 355.881000 L 256.041000 355.782000 L 257.048000 355.680000 L 258.056000 355.577000 L 259.064000 355.471000 L 260.072000 355.364000 L 261.080000 355.255000 L 262.088000 355.143000 L 263.097000 355.031000 L 264.106000 354.916000 L 265.115000 354.800000 L 266.124000 354.682000 L 267.134000 354.563000 L 268.143000 354.442000 L 269.153000 354.320000 L 270.162000 354.197000 L 271.172000 354.072000 L 272.182000 353.946000 L 273.191000 353.819000 L 274.201000 353.691000 L 275.211000 353.562000 L 276.220000 353.431000 L 277.230000 353.300000 L 278.239000 353.168000 L 279.249000 353.036000 L 280.258000 352.902000 L 281.267000 352.768000 L 282.276000 352.633000 L 283.285000 352.498000 L 284.293000 352.362000 L 285.302000 352.226000 L 286.310000 352.089000 L 287.317000 351.952000 L 288.325000 351.815000 L 289.332000 351.677000 L 290.339000 351.539000 L 291.345000 351.402000 L 292.351000 351.264000 L 293.357000 351.126000 L 294.362000 350.989000 L 295.367000 350.851000 L 296.372000 350.714000 L 297.376000 350.577000 L 298.379000 350.440000 L 299.382000 350.304000 L 300.385000 350.168000 L 301.386000 350.033000 L 302.388000 349.898000 L 303.388000 349.764000 L 304.388000 349.631000 L 305.388000 349.498000 L 306.387000 349.367000 L 307.385000 349.236000 L 308.382000 349.106000 L 309.379000 348.977000 L 310.375000 348.849000 L 311.370000 348.722000 L 312.365000 348.596000 L 313.358000 348.472000 L 314.351000 348.348000 L 315.343000 348.227000 L 316.334000 348.106000 L 317.324000 347.987000 L 318.314000 347.870000 L 319.302000 347.754000 L 320.290000 347.640000 L 321.276000 347.527000 L 322.262000 347.416000 L 323.246000 347.307000 L 324.230000 347.200000 L 325.213000 347.095000 L 326.194000 346.992000 L 327.174000 346.891000 L 328.154000 346.792000 L 329.132000 346.695000 L 330.109000 346.601000 L 331.085000 346.509000 L 332.059000 346.419000 L 333.033000 346.331000 L 334.005000 346.246000 L 334.976000 346.164000 L 335.946000 346.084000 L 336.914000 346.007000 L 337.882000 345.933000 L 338.847000 345.861000 L 339.817000 345.792000 L 340.825000 345.720000 L 341.832000 345.650000 L 342.838000 345.583000 L 343.843000 345.517000 L 344.848000 345.454000 L 345.852000 345.392000 L 346.856000 345.332000 L 347.859000 345.274000 L 348.862000 345.218000 L 349.864000 345.164000 L 350.865000 345.111000 L 351.866000 345.061000 L 352.866000 345.012000 L 353.866000 344.964000 L 354.866000 344.919000 L 355.865000 344.875000 L 356.864000 344.832000 L 357.862000 344.792000 L 358.860000 344.752000 L 359.858000 344.715000 L 360.855000 344.678000 L 361.852000 344.643000 L 362.849000 344.610000 L 363.845000 344.578000 L 364.842000 344.547000 L 365.838000 344.518000 L 366.834000 344.490000 L 367.830000 344.464000 L 368.825000 344.438000 L 369.821000 344.414000 L 370.816000 344.391000 L 371.811000 344.369000 L 372.807000 344.348000 L 373.802000 344.328000 L 374.797000 344.310000 L 375.792000 344.292000 L 376.787000 344.276000 L 377.783000 344.260000 L 378.778000 344.246000 L 379.773000 344.232000 L 380.769000 344.219000 L 381.764000 344.207000 L 382.760000 344.196000 L 383.756000 344.186000 L 384.752000 344.176000 L 385.749000 344.167000 L 386.745000 344.159000 L 387.742000 344.152000 L 388.739000 344.145000 L 389.737000 344.139000 L 390.735000 344.133000 L 391.733000 344.128000 L 392.731000 344.124000 L 393.730000 344.120000 L 394.729000 344.116000 L 395.729000 344.113000 L 396.729000 344.110000 L 397.730000 344.108000 L 398.731000 344.106000 L 399.732000 344.105000 L 400.734000 344.103000 L 401.737000 344.102000 L 402.740000 344.102000 L 403.744000 344.101000 L 404.748000 344.101000 L 405.753000 344.100000 L 406.759000 344.100000 L 407.766000 344.100000 L 408.773000 344.100000 L 409.600000 344.100000" fill="none" id="6" stroke="black" stroke-width="1.5" /></svg>