<?xml version="1.0" encoding="utf-8" ?>
<svg baseProfile="full" height="296" version="1.1" viewBox="0,0,295,296" width="295" xmlns="http://www.w3.org/2000/svg" xmlns:ev="http://www.w3.org/2001/xml-events" xmlns:xlink="http://www.w3.org/1999/xlink"><defs><style type="text/css"><![CDATA[
	.background { fill: white; }
	.line { stroke: firebrick; stroke-width: .1mm; }
	.blacksquare { fill: indigo; }
	.whitesquare { fill: white; }
]]></style></defs><path d="M 5.200000 68.800000 L 6.141860 68.478300 L 7.087750 68.167100 L 8.037530 67.866300 L 8.991060 67.575900 L 9.948190 67.296000 L 10.908800 67.026500 L 11.872700 66.767500 L 12.839800 66.518800 L 13.809900 66.280600 L 14.783000 66.052900 L 15.758800 65.835600 L 16.737100 65.628700 L 17.718000 65.432200 L 18.701200 65.246200 L 19.686600 65.070700 L 20.674000 64.905500 L 21.663300 64.750800 L 22.654400 64.606500 L 23.647100 64.472700 L 24.641200 64.349300 L 25.636700 64.236300 L 26.633400 64.133800 L 27.631100 64.041700 L 28.629700 63.960000 L 29.629100 63.888800 L 30.629200 63.828000 L 31.629700 63.777600 L 32.630500 63.737700 L 33.631500 63.708200 L 34.000000 63.700000" fill="none" id="1" stroke="black" stroke-width="1.5" /><path d="M 17.800000 60.600000 L 18.759500 60.312700 L 19.718600 60.025000 L 20.677300 59.737000 L 21.635800 59.448600 L 22.593900 59.159900 L 23.551700 58.871000 L 24.509300 58.581800 L 25.466600 58.292300 L 26.423700 58.002700 L 27.380600 57.712800 L 28.337400 57.422700 L 29.293900 57.132500 L 30.250300 56.842100 L 31.206500 56.551500 L 32.162700 56.260900 L 33.118700 55.970100 L 34.074700 55.679300 L 35.030600 55.388500 L 35.986500 55.097600 L 36.942400 54.806700 L 37.898300 54.515700 L 38.854200 54.224900 L 39.810100 53.934000 L 40.766100 53.643200 L 41.722200 53.352500 L 42.678400 53.061900 L 43.634700 52.771400 L 44.591100 52.481100 L 45.547700 52.190900 L 46.504400 51.900800 L 47.461400 51.611000 L 48.418600 51.321400 L 49.376000 51.032000 L 50.333600 50.742900 L 51.291600 50.454000 L 52.249800 50.165400 L 53.208300 49.877200 L 54.167200 49.589300 L 55.126400 49.301700 L 55.800000 49.100000" fill="none" id="2" stroke="black" stroke-width="1.5" /><path d="M 40.200000 57.400000 L 41.148000 57.078700 L 42.094200 56.751800 L 43.038600 56.419400 L 43.981100 56.081500 L 44.921700 55.738100 L 45.860400 55.389200 L 46.797000 55.034900 L 47.731600 54.675100 L 48.664100 54.309800 L 49.594500 53.939200 L 50.522800 53.563200 L 51.448900 53.181800 L 52.372700 52.795100 L 53.294300 52.403100 L 54.213600 52.005800 L 55.130500 51.603100 L 56.045100 51.195200 L 56.957200 50.782100 L 57.866800 50.363700 L 58.774000 49.940200 L 59.678600 49.511400 L 60.580600 49.077500 L 61.480100 48.638400 L 62.376800 48.194200 L 63.270900 47.744900 L 64.162200 47.290500 L 65.050800 46.831000 L 65.936500 46.366500 L 66.819400 45.896900 L 67.699400 45.422300 L 68.576500 44.942800 L 69.450600 44.458200 L 70.321600 43.968700 L 71.189700 43.474300 L 72.054600 42.974900 L 72.916500 42.470700 L 73.775100 41.961600 L 74.630600 41.447600 L 75.482800 40.928800 L 76.331800 40.405200 L 77.177400 39.876700 L 78.019700 39.343500 L 78.858500 38.805600 L 79.694000 38.262900 L 80.525900 37.715400 L 80.700000 37.600000" fill="none" id="3" stroke="black" stroke-width="1.5" /><path d="M 65.800000 47.400000 L 66.647700 46.864000 L 67.501500 46.338300 L 68.361400 45.823100 L 69.227200 45.318400 L 70.098800 44.824200 L 70.976000 44.340700 L 71.858800 43.867800 L 72.747000 43.405700 L 73.640400 42.954300 L 74.539100 42.513800 L 75.442800 42.084300 L 76.351400 41.665700 L 77.264900 41.258200 L 78.183000 40.861800 L 79.105700 40.476500 L 80.032800 40.102500 L 80.964200 39.739800 L 81.899900 39.388400 L 82.839600 39.048400 L 83.783200 38.719900 L 84.730700 38.402900 L 85.681900 38.097600 L 86.636600 37.803900 L 87.594800 37.521900 L 88.556400 37.251700 L 89.521100 36.993300 L 90.489000 36.746800 L 91.459800 36.512300 L 92.433500 36.289800 L 93.409800 36.079400 L 94.388800 35.881200 L 95.370300 35.695100 L 96.354100 35.521400 L 97.340200 35.359900 L 98.328300 35.210900 L 99.318500 35.074300 L 99.900000 35.000000" fill="none" id="4" stroke="black" stroke-width="1.5" /><path d="M 62.600000 39.500000 L 63.527400 39.125600 L 64.456700 38.755800 L 65.387800 38.390600 L 66.320800 38.029800 L 67.255500 37.673600 L 68.191900 37.322000 L 69.130100 36.974900 L 70.070000 36.632300 L 71.011500 36.294200 L 71.954700 35.960700 L 72.899400 35.631800 L 73.845800 35.307400 L 74.793700 34.987500 L 75.743100 34.672100 L 76.694000 34.361300 L 77.646400 34.055100 L 78.600200 33.753300 L 79.555400 33.456100 L 80.512000 33.163500 L 81.470000 32.875400 L 82.429300 32.591800 L 83.389800 32.312800 L 84.351600 32.038300 L 85.314700 31.768300 L 86.279000 31.502900 L 87.244400 31.242000 L 88.211000 30.985700 L 89.178700 30.733900 L 90.147600 30.486600 L 91.117400 30.243900 L 92.088300 30.005700 L 93.060300 29.772100 L 94.033200 29.543000 L 95.007000 29.318400 L 95.981800 29.098400 L 96.957500 28.882900 L 97.934000 28.672000 L 98.911400 28.465600 L 99.889600 28.263700 L 100.700000 28.100000" fill="none" id="5" stroke="black" stroke-width="1.5" /><path d="M 85.200000 32.700000 L 86.011600 32.117400 L 86.827700 31.541100 L 87.648200 30.971000 L 88.473100 30.407300 L 89.302300 29.849800 L 90.135800 29.298700 L 90.973500 28.754000 L 91.815400 28.215600 L 92.661300 27.683700 L 93.511300 27.158100 L 94.365300 26.639000 L 95.223300 26.126400 L 96.085200 25.620200 L 96.950900 25.120500 L 97.820300 24.627400 L 98.693500 24.140800 L 99.570400 23.660700 L 100.451000 23.187200 L 101.335000 22.720400 L 102.223000 22.260100 L 103.114000 21.806500 L 104.008000 21.359500 L 104.906000 20.919300 L 105.807000 20.485700 L 106.711000 20.058800 L 107.619000 19.638700 L 108.530000 19.225400 L 109.444000 18.818800 L 110.360000 18.419000 L 111.280000 18.026100 L 112.203000 17.640000 L 113.129000 17.260700 L 114.057000 16.888400 L 114.988000 16.522900 L 115.922000 16.164400 L 116.859000 15.812800 L 117.798000 15.468100 L 118.739000 15.130500 L 119.684000 14.799800 L 120.630000 14.476200 L 121.579000 14.159600 L 122.531000 13.850100 L 123.484000 13.547600 L 124.440000 13.252300 L 125.398000 12.964100 L 126.359000 12.683000 L 127.321000 12.409100 L 128.285000 12.142400 L 129.251000 11.882800 L 130.219000 11.630600 L 131.189000 11.385500 L 132.161000 11.147700 L 133.135000 10.917200 L 134.110000 10.694000 L 135.087000 10.478100 L 136.065000 10.269600 L 136.400000 10.200000" fill="none" id="6" stroke="black" stroke-width="1.5" /><path d="M 142.100000 6.800000 L 141.272000 7.361320 L 140.439000 7.915720 L 139.602000 8.463160 L 138.760000 9.003620 L 137.913000 9.537050 L 137.063000 10.063400 L 136.208000 10.582700 L 135.348000 11.094900 L 134.485000 11.599900 L 133.617000 12.097700 L 132.746000 12.588200 L 131.870000 13.071500 L 130.991000 13.547500 L 130.107000 14.016200 L 129.220000 14.477400 L 128.329000 14.931300 L 127.434000 15.377800 L 126.535000 15.816700 L 125.633000 16.248200 L 124.728000 16.672100 L 123.818000 17.088400 L 122.906000 17.497100 L 121.990000 17.898200 L 121.071000 18.291500 L 120.148000 18.677200 L 119.223000 19.055100 L 118.294000 19.425200 L 117.362000 19.787500 L 116.428000 20.141900 L 115.490000 20.488400 L 114.549000 20.827000 L 113.606000 21.157700 L 112.660000 21.480300 L 111.711000 21.794900 L 110.759000 22.101400 L 109.805000 22.399900 L 108.849000 22.690200 L 107.890000 22.972300 L 106.928000 23.246200 L 105.964000 23.511900 L 104.998000 23.769300 L 104.030000 24.018300 L 103.059000 24.259100 L 102.087000 24.491400 L 101.112000 24.715400 L 100.136000 24.930800 L 99.157000 25.137800 L 98.176600 25.336300 L 97.194400 25.526200 L 96.800000 25.600000" fill="none" id="7" stroke="black" stroke-width="1.5" /><path d="M 2.700000 80.700000 L 2.655570 81.699600 L 2.613140 82.699300 L 2.572720 83.698900 L 2.534310 84.698500 L 2.497900 85.698100 L 2.463500 86.697700 L 2.431110 87.697300 L 2.400730 88.696900 L 2.372350 89.696500 L 2.345990 90.696100 L 2.321620 91.695600 L 2.299270 92.695200 L 2.278920 93.694700 L 2.260580 94.694200 L 2.244250 95.693700 L 2.229920 96.693200 L 2.217610 97.692700 L 2.207290 98.692100 L 2.198990 99.691500 L 2.192690 100.691000 L 2.188400 101.690000 L 2.186120 102.690000 L 2.185850 103.689000 L 2.187580 104.688000 L 2.191320 105.688000 L 2.197060 106.687000 L 2.204820 107.686000 L 2.214580 108.685000 L 2.226350 109.684000 L 2.240120 110.683000 L 2.255910 111.682000 L 2.273700 112.681000 L 2.293490 113.680000 L 2.315300 114.679000 L 2.339110 115.678000 L 2.364930 116.677000 L 2.392750 117.676000 L 2.422590 118.675000 L 2.454430 119.673000 L 2.488280 120.672000 L 2.524130 121.671000 L 2.561990 122.669000 L 2.601860 123.668000 L 2.643740 124.666000 L 2.687620 125.665000 L 2.733510 126.663000 L 2.781410 127.662000 L 2.831320 128.660000 L 2.883230 129.658000 L 2.937150 130.656000 L 2.993080 131.654000 L 3.051010 132.652000 L 3.110950 133.650000 L 3.172900 134.648000 L 3.236860 135.646000 L 3.302820 136.644000 L 3.370790 137.641000 L 3.440770 138.639000 L 3.512750 139.637000 L 3.586750 140.634000 L 3.662750 141.632000 L 3.740750 142.629000 L 3.820770 143.626000 L 3.902790 144.623000 L 3.986810 145.620000 L 4.072850 146.618000 L 4.160890 147.614000 L 4.250940 148.611000 L 4.343000 149.608000 L 4.437060 150.605000 L 4.533140 151.601000 L 4.631210 152.598000 L 4.731300 153.594000 L 4.833390 154.591000 L 4.937490 155.587000 L 5.043600 156.583000 L 5.151720 157.579000 L 5.261840 158.575000 L 5.373970 159.571000 L 5.400000 159.800000" fill="none" id="8" stroke="black" stroke-width="1.5" /><path d="M 5.600000 132.700000 L 5.529040 133.698000 L 5.459930 134.695000 L 5.392670 135.693000 L 5.327260 136.691000 L 5.263700 137.689000 L 5.201990 138.687000 L 5.142130 139.685000 L 5.084120 140.683000 L 5.027950 141.682000 L 4.973620 142.680000 L 4.921130 143.679000 L 4.870490 144.677000 L 4.821680 145.676000 L 4.774720 146.675000 L 4.729590 147.674000 L 4.686300 148.673000 L 4.644840 149.672000 L 4.605220 150.671000 L 4.567430 151.670000 L 4.531470 152.669000 L 4.497340 153.669000 L 4.465050 154.668000 L 4.434580 155.667000 L 4.405930 156.667000 L 4.379110 157.666000 L 4.354120 158.666000 L 4.330950 159.666000 L 4.309600 160.665000 L 4.290080 161.665000 L 4.272370 162.665000 L 4.256480 163.664000 L 4.242410 164.664000 L 4.230150 165.664000 L 4.219710 166.664000 L 4.211090 167.664000 L 4.204270 168.663000 L 4.199270 169.663000 L 4.196080 170.663000 L 4.194690 171.663000 L 4.195120 172.663000 L 4.197350 173.663000 L 4.201380 174.663000 L 4.207220 175.662000 L 4.214860 176.662000 L 4.224310 177.662000 L 4.235550 178.662000 L 4.248600 179.662000 L 4.263440 180.662000 L 4.280080 181.661000 L 4.298520 182.661000 L 4.318750 183.661000 L 4.340770 184.660000 L 4.364580 185.660000 L 4.390190 186.660000 L 4.417590 187.659000 L 4.446770 188.659000 L 4.477740 189.658000 L 4.510500 190.658000 L 4.545050 191.657000 L 4.581370 192.656000 L 4.619490 193.655000 L 4.659380 194.655000 L 4.701050 195.654000 L 4.744500 196.653000 L 4.789730 197.652000 L 4.836730 198.651000 L 4.885520 199.650000 L 4.936070 200.648000 L 4.988400 201.647000 L 5.042500 202.646000 L 5.098370 203.644000 L 5.156010 204.642000 L 5.215420 205.641000 L 5.276600 206.639000 L 5.339540 207.637000 L 5.404240 208.635000 L 5.470710 209.633000 L 5.538950 210.631000 L 5.608940 211.628000 L 5.680690 212.626000 L 5.754210 213.623000 L 5.829480 214.621000 L 5.906500 215.618000 L 5.985280 216.615000 L 6.065820 217.612000 L 6.148110 218.609000 L 6.232150 219.605000 L 6.317940 220.602000 L 6.405480 221.598000 L 6.494760 222.594000 L 6.585800 223.590000 L 6.678580 224.586000 L 6.773100 225.582000 L 6.869370 226.578000 L 6.967380 227.573000 L 7.067130 228.568000 L 7.168620 229.563000 L 7.271850 230.558000 L 7.376820 231.553000 L 7.483520 232.548000 L 7.500000 232.700000" fill="none" id="9" stroke="black" stroke-width="1.5" /><path d="M 8.900000 75.300000 L 8.904500 76.299300 L 8.909000 77.298500 L 8.913500 78.297900 L 8.918000 79.297200 L 8.922510 80.296600 L 8.927010 81.296000 L 8.931510 82.295500 L 8.936010 83.295000 L 8.940510 84.294500 L 8.945010 85.294000 L 8.949510 86.293600 L 8.954010 87.293200 L 8.958510 88.292800 L 8.963020 89.292400 L 8.967520 90.292100 L 8.972020 91.291800 L 8.976520 92.291500 L 8.981020 93.291300 L 8.985520 94.291100 L 8.990020 95.290900 L 8.994520 96.290700 L 8.999020 97.290500 L 9.003520 98.290400 L 9.008030 99.290300 L 9.012530 100.290000 L 9.017030 101.290000 L 9.021530 102.290000 L 9.026030 103.290000 L 9.030530 104.290000 L 9.035030 105.290000 L 9.039530 106.290000 L 9.044030 107.290000 L 9.048540 108.290000 L 9.053040 109.290000 L 9.057540 110.290000 L 9.062040 111.291000 L 9.066540 112.291000 L 9.071040 113.291000 L 9.075540 114.291000 L 9.080040 115.291000 L 9.084540 116.291000 L 9.089050 117.292000 L 9.093550 118.292000 L 9.098050 119.292000 L 9.102550 120.292000 L 9.107050 121.293000 L 9.111550 122.293000 L 9.116050 123.293000 L 9.120550 124.293000 L 9.125050 125.294000 L 9.129560 126.294000 L 9.134060 127.294000 L 9.138560 128.295000 L 9.143060 129.295000 L 9.147560 130.295000 L 9.152060 131.296000 L 9.156560 132.296000 L 9.161060 133.296000 L 9.165560 134.297000 L 9.170060 135.297000 L 9.174570 136.297000 L 9.179070 137.298000 L 9.183570 138.298000 L 9.188070 139.298000 L 9.192570 140.299000 L 9.197070 141.299000 L 9.201570 142.299000 L 9.206070 143.300000 L 9.210570 144.300000 L 9.215080 145.301000 L 9.219580 146.301000 L 9.224080 147.301000 L 9.228580 148.302000 L 9.233080 149.302000 L 9.237580 150.302000 L 9.242080 151.303000 L 9.246580 152.303000 L 9.251080 153.303000 L 9.255590 154.304000 L 9.260090 155.304000 L 9.264590 156.304000 L 9.269090 157.305000 L 9.273590 158.305000 L 9.278090 159.305000 L 9.282590 160.305000 L 9.287090 161.306000 L 9.291590 162.306000 L 9.296100 163.306000 L 9.300600 164.307000 L 9.305100 165.307000 L 9.309600 166.307000 L 9.314100 167.307000 L 9.318600 168.307000 L 9.323100 169.308000 L 9.327600 170.308000 L 9.332100 171.308000 L 9.336600 172.308000 L 9.341110 173.308000 L 9.345610 174.308000 L 9.350110 175.308000 L 9.354610 176.308000 L 9.359110 177.308000 L 9.363610 178.309000 L 9.368110 179.309000 L 9.372610 180.309000 L 9.377110 181.309000 L 9.381620 182.309000 L 9.386120 183.308000 L 9.390620 184.308000 L 9.395120 185.308000 L 9.399620 186.308000 L 9.404120 187.308000 L 9.408620 188.308000 L 9.413120 189.308000 L 9.417620 190.307000 L 9.422130 191.307000 L 9.426630 192.307000 L 9.431130 193.307000 L 9.435630 194.306000 L 9.440130 195.306000 L 9.444630 196.306000 L 9.449130 197.305000 L 9.453630 198.305000 L 9.458130 199.304000 L 9.462630 200.304000 L 9.467140 201.303000 L 9.471640 202.303000 L 9.476140 203.302000 L 9.480640 204.302000 L 9.485140 205.301000 L 9.489640 206.300000 L 9.494140 207.300000 L 9.498640 208.299000 L 9.500000 208.600000" fill="none" id="10" stroke="black" stroke-width="1.5" /><path d="M 295.000000 0.000000 L 294.189000 0.585143 L 293.379000 1.170880 L 292.569000 1.757200 L 291.760000 2.344110 L 290.951000 2.931620 L 290.142000 3.519710 L 289.334000 4.108390 L 288.527000 4.697660 L 287.719000 5.287520 L 286.913000 5.877960 L 286.106000 6.468990 L 285.300000 7.060610 L 284.495000 7.652820 L 283.690000 8.245610 L 282.885000 8.838990 L 282.081000 9.432960 L 281.277000 10.027500 L 280.473000 10.622600 L 279.670000 11.218400 L 278.868000 11.814700 L 278.066000 12.411600 L 277.264000 13.009000 L 276.463000 13.607100 L 275.662000 14.205700 L 274.861000 14.805000 L 274.061000 15.404800 L 273.262000 16.005200 L 272.463000 16.606100 L 271.664000 17.207700 L 270.866000 17.809800 L 270.068000 18.412500 L 269.270000 19.015800 L 268.473000 19.619700 L 267.677000 20.224200 L 266.881000 20.829200 L 266.085000 21.434800 L 265.290000 22.041000 L 264.495000 22.647800 L 263.701000 23.255200 L 262.907000 23.863100 L 262.114000 24.471600 L 261.321000 25.080700 L 260.528000 25.690400 L 259.736000 26.300600 L 258.944000 26.911400 L 258.153000 27.522800 L 257.362000 28.134800 L 256.572000 28.747400 L 255.782000 29.360500 L 254.992000 29.974200 L 254.203000 30.588500 L 253.415000 31.203300 L 252.626000 31.818700 L 251.839000 32.434700 L 251.051000 33.051300 L 250.265000 33.668500 L 249.478000 34.286200 L 248.692000 34.904500 L 247.907000 35.523300 L 247.122000 36.142800 L 246.337000 36.762800 L 245.553000 37.383300 L 244.769000 38.004500 L 243.986000 38.626200 L 243.203000 39.248500 L 242.421000 39.871400 L 241.639000 40.494800 L 240.858000 41.118800 L 240.077000 41.743400 L 239.296000 42.368500 L 238.516000 42.994200 L 237.737000 43.620500 L 236.957000 44.247300 L 236.179000 44.874700 L 235.400000 45.502700 L 234.623000 46.131300 L 233.845000 46.760400 L 233.068000 47.390100 L 232.292000 48.020300 L 231.516000 48.651100 L 230.740000 49.282500 L 229.965000 49.914400 L 229.191000 50.546900 L 228.417000 51.180000 L 227.643000 51.813600 L 226.870000 52.447800 L 226.097000 53.082600 L 225.325000 53.717900 L 224.553000 54.353800 L 223.781000 54.990300 L 223.010000 55.627300 L 222.240000 56.264800 L 221.470000 56.903000 L 220.700000 57.541700 L 219.931000 58.180900 L 219.163000 58.820700 L 218.395000 59.461100 L 217.627000 60.102100 L 216.860000 60.743600 L 216.093000 61.385600 L 215.327000 62.028200 L 214.561000 62.671400 L 213.796000 63.315100 L 213.031000 63.959400 L 212.266000 64.604300 L 211.503000 65.249700 L 210.739000 65.895700 L 209.976000 66.542200 L 209.214000 67.189300 L 208.452000 67.836900 L 207.690000 68.485100 L 206.929000 69.133800 L 206.168000 69.783100 L 205.408000 70.433000 L 204.648000 71.083400 L 203.889000 71.734400 L 203.130000 72.385900 L 202.372000 73.037900 L 201.614000 73.690600 L 200.857000 74.343700 L 200.100000 74.997500 L 199.344000 75.651800 L 198.588000 76.306600 L 197.833000 76.962000 L 197.078000 77.617900 L 196.323000 78.274400 L 195.569000 78.931500 L 194.816000 79.589100 L 194.063000 80.247200 L 193.310000 80.905900 L 192.558000 81.565100 L 191.807000 82.224900 L 191.056000 82.885300 L 190.305000 83.546100 L 189.555000 84.207600 L 188.806000 84.869600 L 188.056000 85.532100 L 187.308000 86.195200 L 186.560000 86.858800 L 185.812000 87.523000 L 185.065000 88.187700 L 184.318000 88.853000 L 183.572000 89.518800 L 182.826000 90.185100 L 182.081000 90.852000 L 181.336000 91.519500 L 180.592000 92.187500 L 179.848000 92.856000 L 179.105000 93.525100 L 178.362000 94.194700 L 177.620000 94.864900 L 176.878000 95.535600 L 176.137000 96.206800 L 175.396000 96.878600 L 174.655000 97.551000 L 173.916000 98.223800 L 173.176000 98.897300 L 172.437000 99.571200 L 171.699000 100.246000 L 170.961000 100.921000 L 170.224000 101.596000 L 169.487000 102.272000 L 168.750000 102.949000 L 168.015000 103.626000 L 167.279000 104.304000 L 166.544000 104.982000 L 165.810000 105.661000 L 165.076000 106.341000 L 164.343000 107.020000 L 163.610000 107.701000 L 162.877000 108.382000 L 162.146000 109.063000 L 161.414000 109.745000 L 160.683000 110.428000 L 159.953000 111.111000 L 159.223000 111.795000 L 158.494000 112.479000 L 157.765000 113.164000 L 157.036000 113.849000 L 156.309000 114.535000 L 155.581000 115.221000 L 154.854000 115.908000 L 154.128000 116.595000 L 153.402000 117.283000 L 152.677000 117.972000 L 151.952000 118.660000 L 151.228000 119.350000 L 150.504000 120.040000 L 149.781000 120.731000 L 149.058000 121.422000 L 148.336000 122.113000 L 147.614000 122.806000 L 146.893000 123.498000 L 146.172000 124.191000 L 145.452000 124.885000 L 144.732000 125.579000 L 144.400000 125.900000" fill="none" id="11" stroke="black" stroke-width="1.5" /><path d="M 171.300000 119.600000 L 171.385000 120.597000 L 171.469000 121.594000 L 171.554000 122.591000 L 171.638000 123.588000 L 171.723000 124.585000 L 171.807000 125.582000 L 171.891000 126.579000 L 171.976000 127.576000 L 172.060000 128.573000 L 172.144000 129.570000 L 172.229000 130.567000 L 172.313000 131.564000 L 172.397000 132.561000 L 172.482000 133.557000 L 172.566000 134.554000 L 172.650000 135.551000 L 172.734000 136.548000 L 172.818000 137.544000 L 172.903000 138.541000 L 172.987000 139.538000 L 173.071000 140.535000 L 173.155000 141.531000 L 173.239000 142.528000 L 173.323000 143.524000 L 173.407000 144.521000 L 173.491000 145.518000 L 173.575000 146.514000 L 173.659000 147.511000 L 173.743000 148.507000 L 173.827000 149.504000 L 173.911000 150.500000 L 173.995000 151.497000 L 174.079000 152.493000 L 174.163000 153.490000 L 174.247000 154.486000 L 174.330000 155.483000 L 174.414000 156.479000 L 174.498000 157.475000 L 174.582000 158.472000 L 174.666000 159.468000 L 174.750000 160.464000 L 174.833000 161.461000 L 174.917000 162.457000 L 175.001000 163.453000 L 175.085000 164.450000 L 175.168000 165.446000 L 175.252000 166.442000 L 175.336000 167.439000 L 175.420000 168.435000 L 175.503000 169.431000 L 175.587000 170.427000 L 175.671000 171.424000 L 175.754000 172.420000 L 175.838000 173.416000 L 175.922000 174.412000 L 176.005000 175.409000 L 176.089000 176.405000 L 176.173000 177.401000 L 176.256000 178.397000 L 176.340000 179.393000 L 176.424000 180.390000 L 176.507000 181.386000 L 176.591000 182.382000 L 176.674000 183.378000 L 176.758000 184.374000 L 176.842000 185.371000 L 176.925000 186.367000 L 177.009000 187.363000 L 177.092000 188.359000 L 177.176000 189.355000 L 177.260000 190.351000 L 177.343000 191.347000 L 177.427000 192.344000 L 177.510000 193.340000 L 177.594000 194.336000 L 177.678000 195.332000 L 177.761000 196.328000 L 177.845000 197.324000 L 177.928000 198.320000 L 178.012000 199.317000 L 178.095000 200.313000 L 178.179000 201.309000 L 178.263000 202.305000 L 178.346000 203.301000 L 178.430000 204.297000 L 178.513000 205.294000 L 178.597000 206.290000 L 178.681000 207.286000 L 178.764000 208.282000 L 178.848000 209.278000 L 178.931000 210.274000 L 179.015000 211.271000 L 179.099000 212.267000 L 179.182000 213.263000 L 179.266000 214.259000 L 179.350000 215.255000 L 179.433000 216.252000 L 179.517000 217.248000 L 179.601000 218.244000 L 179.684000 219.240000 L 179.768000 220.237000 L 179.852000 221.233000 L 179.935000 222.229000 L 180.019000 223.225000 L 180.103000 224.222000 L 180.187000 225.218000 L 180.270000 226.214000 L 180.354000 227.210000 L 180.438000 228.207000 L 180.522000 229.203000 L 180.605000 230.199000 L 180.689000 231.196000 L 180.773000 232.192000 L 180.857000 233.189000 L 180.941000 234.185000 L 181.024000 235.181000 L 181.108000 236.178000 L 181.192000 237.174000 L 181.276000 238.171000 L 181.360000 239.167000 L 181.444000 240.164000 L 181.528000 241.160000 L 181.612000 242.157000 L 181.696000 243.153000 L 181.780000 244.150000 L 181.864000 245.146000 L 181.948000 246.143000 L 182.032000 247.139000 L 182.116000 248.136000 L 182.200000 249.133000 L 182.284000 250.129000 L 182.368000 251.126000 L 182.452000 252.123000 L 182.536000 253.119000 L 182.620000 254.116000 L 182.705000 255.113000 L 182.789000 256.110000 L 182.873000 257.106000 L 182.957000 258.103000 L 183.042000 259.100000 L 183.126000 260.097000 L 183.210000 261.094000 L 183.295000 262.091000 L 183.379000 263.087000 L 183.463000 264.084000 L 183.548000 265.081000 L 183.632000 266.078000 L 183.716000 267.075000 L 183.801000 268.072000 L 183.885000 269.069000 L 183.970000 270.066000 L 184.055000 271.064000 L 184.100000 271.600000" fill="none" id="12" stroke="black" stroke-width="1.5" /><path d="M 176.700000 104.000000 L 176.729000 105.000000 L 176.758000 106.000000 L 176.787000 107.000000 L 176.817000 108.000000 L 176.846000 109.000000 L 176.875000 110.000000 L 176.904000 111.000000 L 176.934000 112.000000 L 176.963000 113.000000 L 176.992000 114.000000 L 177.021000 115.000000 L 177.051000 116.000000 L 177.080000 117.000000 L 177.109000 118.000000 L 177.139000 119.000000 L 177.168000 119.999000 L 177.198000 120.999000 L 177.227000 121.999000 L 177.256000 122.999000 L 177.286000 123.999000 L 177.315000 124.999000 L 177.345000 125.998000 L 177.374000 126.998000 L 177.404000 127.998000 L 177.433000 128.998000 L 177.463000 129.997000 L 177.492000 130.997000 L 177.522000 131.997000 L 177.551000 132.996000 L 177.581000 133.996000 L 177.610000 134.996000 L 177.640000 135.995000 L 177.670000 136.995000 L 177.699000 137.995000 L 177.729000 138.994000 L 177.758000 139.994000 L 177.788000 140.993000 L 177.818000 141.993000 L 177.847000 142.992000 L 177.877000 143.992000 L 177.907000 144.992000 L 177.936000 145.991000 L 177.966000 146.991000 L 177.996000 147.990000 L 178.026000 148.990000 L 178.055000 149.989000 L 178.085000 150.989000 L 178.115000 151.988000 L 178.145000 152.988000 L 178.174000 153.987000 L 178.204000 154.987000 L 178.234000 155.986000 L 178.264000 156.985000 L 178.293000 157.985000 L 178.323000 158.984000 L 178.353000 159.984000 L 178.383000 160.983000 L 178.413000 161.983000 L 178.443000 162.982000 L 178.472000 163.981000 L 178.502000 164.981000 L 178.532000 165.980000 L 178.562000 166.979000 L 178.592000 167.979000 L 178.622000 168.978000 L 178.652000 169.978000 L 178.681000 170.977000 L 178.711000 171.976000 L 178.741000 172.976000 L 178.771000 173.975000 L 178.801000 174.974000 L 178.831000 175.974000 L 178.861000 176.973000 L 178.891000 177.972000 L 178.921000 178.972000 L 178.950000 179.971000 L 178.980000 180.970000 L 179.010000 181.970000 L 179.040000 182.969000 L 179.070000 183.968000 L 179.100000 184.967000 L 179.130000 185.967000 L 179.160000 186.966000 L 179.190000 187.965000 L 179.220000 188.965000 L 179.250000 189.964000 L 179.280000 190.963000 L 179.310000 191.963000 L 179.340000 192.962000 L 179.369000 193.961000 L 179.399000 194.960000 L 179.429000 195.960000 L 179.459000 196.959000 L 179.489000 197.958000 L 179.519000 198.958000 L 179.549000 199.957000 L 179.579000 200.956000 L 179.609000 201.955000 L 179.639000 202.955000 L 179.669000 203.954000 L 179.699000 204.953000 L 179.729000 205.953000 L 179.759000 206.952000 L 179.789000 207.951000 L 179.818000 208.951000 L 179.848000 209.950000 L 179.878000 210.949000 L 179.908000 211.948000 L 179.938000 212.948000 L 179.968000 213.947000 L 179.998000 214.946000 L 180.028000 215.946000 L 180.058000 216.945000 L 180.088000 217.944000 L 180.118000 218.944000 L 180.147000 219.943000 L 180.177000 220.942000 L 180.207000 221.942000 L 180.237000 222.941000 L 180.267000 223.940000 L 180.297000 224.940000 L 180.327000 225.939000 L 180.357000 226.939000 L 180.386000 227.938000 L 180.416000 228.937000 L 180.446000 229.937000 L 180.476000 230.936000 L 180.506000 231.936000 L 180.536000 232.935000 L 180.565000 233.934000 L 180.595000 234.934000 L 180.625000 235.933000 L 180.655000 236.933000 L 180.685000 237.932000 L 180.714000 238.932000 L 180.744000 239.931000 L 180.774000 240.930000 L 180.804000 241.930000 L 180.833000 242.929000 L 180.863000 243.929000 L 180.893000 244.928000 L 180.922000 245.928000 L 180.952000 246.927000 L 180.982000 247.927000 L 181.012000 248.927000 L 181.041000 249.926000 L 181.071000 250.926000 L 181.101000 251.925000 L 181.130000 252.925000 L 181.160000 253.924000 L 181.189000 254.924000 L 181.219000 255.924000 L 181.249000 256.923000 L 181.278000 257.923000 L 181.308000 258.923000 L 181.337000 259.922000 L 181.367000 260.922000 L 181.396000 261.922000 L 181.426000 262.921000 L 181.456000 263.921000 L 181.485000 264.921000 L 181.515000 265.920000 L 181.544000 266.920000 L 181.573000 267.920000 L 181.603000 268.920000 L 181.632000 269.920000 L 181.662000 270.919000 L 181.691000 271.919000 L 181.721000 272.919000 L 181.750000 273.919000 L 181.779000 274.919000 L 181.809000 275.919000 L 181.838000 276.918000 L 181.867000 277.918000 L 181.897000 278.918000 L 181.926000 279.918000 L 181.955000 280.918000 L 181.985000 281.918000 L 182.014000 282.918000 L 182.043000 283.918000 L 182.072000 284.918000 L 182.101000 285.918000 L 182.131000 286.918000 L 182.160000 287.918000 L 182.189000 288.918000 L 182.200000 289.300000" fill="none" id="13" stroke="black" stroke-width="1.5" /><path d="M 0.000000 73.700000 L 0.998412 73.740700 L 1.996810 73.782200 L 2.995190 73.824600 L 3.993540 73.867900 L 4.991880 73.912000 L 5.990200 73.957000 L 6.988500 74.002900 L 7.986780 74.049600 L 8.985030 74.097100 L 9.983250 74.145600 L 10.981500 74.194900 L 11.979600 74.245000 L 12.977800 74.296100 L 13.975900 74.347900 L 14.974000 74.400700 L 15.972100 74.454300 L 16.970100 74.508800 L 17.968100 74.564100 L 18.966100 74.620300 L 19.964000 74.677300 L 20.961900 74.735300 L 21.959800 74.794000 L 22.957600 74.853700 L 23.955400 74.914200 L 24.953200 74.975500 L 25.950900 75.037700 L 26.948600 75.100800 L 27.946200 75.164700 L 28.943800 75.229500 L 29.941300 75.295200 L 30.938900 75.361700 L 31.936300 75.429100 L 32.933700 75.497300 L 33.931100 75.566400 L 34.928500 75.636400 L 35.925700 75.707200 L 36.923000 75.778900 L 37.920200 75.851400 L 38.917300 75.924800 L 39.914400 75.999100 L 40.911400 76.074200 L 41.908400 76.150100 L 42.905300 76.227000 L 43.902200 76.304700 L 44.899000 76.383200 L 45.895700 76.462600 L 46.892400 76.542900 L 47.889100 76.624000 L 48.885600 76.706000 L 49.882200 76.788900 L 50.878600 76.872600 L 51.875000 76.957100 L 52.871400 77.042500 L 53.867600 77.128800 L 54.863800 77.216000 L 55.860000 77.303900 L 56.856000 77.392800 L 57.852000 77.482500 L 58.848000 77.573100 L 59.843800 77.664500 L 60.839600 77.756800 L 61.835400 77.849900 L 62.831000 77.943900 L 63.826600 78.038800 L 64.822100 78.134500 L 65.817500 78.231100 L 66.812900 78.328500 L 67.808100 78.426800 L 68.803300 78.525900 L 69.798500 78.625900 L 70.793500 78.726800 L 71.788500 78.828500 L 72.783300 78.931000 L 73.778100 79.034500 L 74.772900 79.138800 L 75.767500 79.243900 L 76.762000 79.349900 L 77.756500 79.456700 L 78.750900 79.564400 L 79.745200 79.673000 L 80.739300 79.782400 L 81.733500 79.892700 L 82.727500 80.003800 L 83.721400 80.115800 L 84.715200 80.228700 L 85.709000 80.342400 L 86.702600 80.456900 L 87.696200 80.572300 L 88.689600 80.688600 L 89.683000 80.805700 L 90.676300 80.923700 L 91.669400 81.042500 L 92.662500 81.162200 L 93.655400 81.282700 L 94.648300 81.404100 L 95.641100 81.526400 L 96.633700 81.649500 L 97.626300 81.773400 L 98.618700 81.898200 L 99.611100 82.023900 L 100.603000 82.150400 L 101.595000 82.277800 L 102.587000 82.406000 L 103.579000 82.535100 L 104.571000 82.665100 L 105.563000 82.795900 L 106.554000 82.927500 L 107.546000 83.060000 L 108.537000 83.193400 L 109.528000 83.327600 L 110.520000 83.462600 L 111.511000 83.598500 L 112.501000 83.735300 L 113.492000 83.872900 L 114.483000 84.011400 L 115.473000 84.150700 L 116.464000 84.290900 L 117.454000 84.431900 L 118.444000 84.573800 L 119.434000 84.716600 L 120.424000 84.860200 L 121.414000 85.004600 L 122.404000 85.149900 L 123.393000 85.296000 L 124.383000 85.443000 L 125.372000 85.590900 L 126.361000 85.739600 L 127.350000 85.889200 L 128.339000 86.039600 L 129.328000 86.190800 L 130.316000 86.342900 L 131.305000 86.495900 L 132.293000 86.649700 L 133.281000 86.804400 L 134.269000 86.959900 L 135.257000 87.116300 L 136.245000 87.273500 L 137.233000 87.431600 L 138.220000 87.590500 L 139.208000 87.750300 L 140.195000 87.910900 L 141.182000 88.072400 L 142.169000 88.234700 L 143.156000 88.397900 L 144.142000 88.561900 L 145.129000 88.726800 L 146.115000 88.892600 L 147.101000 89.059100 L 148.087000 89.226600 L 149.073000 89.394900 L 150.059000 89.564000 L 151.045000 89.734000 L 152.030000 89.904800 L 153.015000 90.076500 L 154.001000 90.249000 L 154.986000 90.422400 L 155.970000 90.596700 L 156.955000 90.771700 L 157.940000 90.947700 L 158.924000 91.124500 L 159.908000 91.302100 L 160.892000 91.480600 L 161.876000 91.659900 L 162.860000 91.840100 L 163.843000 92.021100 L 164.826000 92.203000 L 165.810000 92.385700 L 166.793000 92.569300 L 167.776000 92.753700 L 168.758000 92.939000 L 169.741000 93.125100 L 170.723000 93.312100 L 171.705000 93.499900 L 172.687000 93.688600 L 173.669000 93.878100 L 174.651000 94.068400 L 175.632000 94.259700 L 176.614000 94.451700 L 177.595000 94.644600 L 178.576000 94.838400 L 179.556000 95.033000 L 180.537000 95.228400 L 181.517000 95.424700 L 182.498000 95.621900 L 183.478000 95.819900 L 184.458000 96.018700 L 185.437000 96.218400 L 186.417000 96.418900 L 187.396000 96.620300 L 188.375000 96.822500 L 189.354000 97.025600 L 190.333000 97.229500 L 191.311000 97.434300 L 192.100000 97.600000" fill="none" id="14" stroke="black" stroke-width="1.5" /><path d="M 139.400000 7.400000 L 140.400000 7.443360 L 141.400000 7.488540 L 142.400000 7.535550 L 143.399000 7.584390 L 144.399000 7.635060 L 145.398000 7.687560 L 146.398000 7.741880 L 147.397000 7.798030 L 148.396000 7.856000 L 149.395000 7.915800 L 150.394000 7.977430 L 151.392000 8.040880 L 152.391000 8.106160 L 153.389000 8.173260 L 154.388000 8.242180 L 155.386000 8.312920 L 156.384000 8.385490 L 157.382000 8.459880 L 158.379000 8.536100 L 159.377000 8.614130 L 160.374000 8.693980 L 161.372000 8.775660 L 162.369000 8.859160 L 163.366000 8.944470 L 164.362000 9.031610 L 165.359000 9.120560 L 166.355000 9.211330 L 167.351000 9.303930 L 168.347000 9.398330 L 169.343000 9.494560 L 170.339000 9.592600 L 171.334000 9.692460 L 172.329000 9.794140 L 173.324000 9.897630 L 174.319000 10.002900 L 175.314000 10.110100 L 176.308000 10.219000 L 177.302000 10.329700 L 178.296000 10.442300 L 179.290000 10.556700 L 180.283000 10.672900 L 181.277000 10.790900 L 182.270000 10.910700 L 183.262000 11.032300 L 184.255000 11.155700 L 185.247000 11.281000 L 186.239000 11.408100 L 187.231000 11.536900 L 188.223000 11.667600 L 189.214000 11.800100 L 190.205000 11.934400 L 191.196000 12.070500 L 192.186000 12.208400 L 193.177000 12.348100 L 194.167000 12.489600 L 195.156000 12.633000 L 196.146000 12.778100 L 197.135000 12.925000 L 198.124000 13.073800 L 199.112000 13.224300 L 200.100000 13.376700 L 201.088000 13.530900 L 202.076000 13.686800 L 203.063000 13.844600 L 204.050000 14.004200 L 205.037000 14.165500 L 206.024000 14.328700 L 207.010000 14.493700 L 207.996000 14.660500 L 208.981000 14.829000 L 209.966000 14.999400 L 210.951000 15.171600 L 211.935000 15.345600 L 212.920000 15.521400 L 213.903000 15.698900 L 214.887000 15.878300 L 215.870000 16.059500 L 216.853000 16.242400 L 217.835000 16.427200 L 218.817000 16.613800 L 219.799000 16.802100 L 220.780000 16.992300 L 221.761000 17.184200 L 222.742000 17.378000 L 223.722000 17.573500 L 224.702000 17.770900 L 225.681000 17.970000 L 226.661000 18.170900 L 227.639000 18.373600 L 228.618000 18.578100 L 229.596000 18.784400 L 230.573000 18.992500 L 231.550000 19.202400 L 232.527000 19.414100 L 233.503000 19.627500 L 234.479000 19.842800 L 235.455000 20.059800 L 236.430000 20.278700 L 237.404000 20.499300 L 238.379000 20.721700 L 239.352000 20.945900 L 240.326000 21.171900 L 241.299000 21.399600 L 242.271000 21.629200 L 243.243000 21.860500 L 244.215000 22.093700 L 245.186000 22.328600 L 246.157000 22.565300 L 247.127000 22.803800 L 248.097000 23.044000 L 249.067000 23.286100 L 250.036000 23.529900 L 251.004000 23.775500 L 251.100000 23.800000" fill="none" id="15" stroke="black" stroke-width="1.5" /><path d="M 145.700000 11.000000 L 146.694000 11.102300 L 147.688000 11.204600 L 148.682000 11.306800 L 149.676000 11.409000 L 150.670000 11.511100 L 151.664000 11.613300 L 152.658000 11.715300 L 153.652000 11.817400 L 154.646000 11.919400 L 155.640000 12.021400 L 156.634000 12.123300 L 157.628000 12.225200 L 158.622000 12.327100 L 159.616000 12.429000 L 160.611000 12.530800 L 161.605000 12.632600 L 162.599000 12.734300 L 163.593000 12.836100 L 164.587000 12.937800 L 165.581000 13.039500 L 166.575000 13.141100 L 167.569000 13.242700 L 168.563000 13.344300 L 169.557000 13.445900 L 170.551000 13.547500 L 171.546000 13.649000 L 172.540000 13.750500 L 173.534000 13.852000 L 174.528000 13.953400 L 175.522000 14.054900 L 176.516000 14.156300 L 177.510000 14.257700 L 178.505000 14.359100 L 179.499000 14.460400 L 180.493000 14.561800 L 181.487000 14.663100 L 182.482000 14.764400 L 183.476000 14.865700 L 184.470000 14.967000 L 185.464000 15.068200 L 186.459000 15.169500 L 187.453000 15.270700 L 188.447000 15.371900 L 189.442000 15.473200 L 190.436000 15.574400 L 191.430000 15.675500 L 192.425000 15.776700 L 193.419000 15.877900 L 194.413000 15.979100 L 195.408000 16.080200 L 196.402000 16.181400 L 197.397000 16.282500 L 198.391000 16.383600 L 199.386000 16.484800 L 200.380000 16.585900 L 201.375000 16.687000 L 202.369000 16.788100 L 203.364000 16.889200 L 204.358000 16.990300 L 205.353000 17.091500 L 206.347000 17.192600 L 207.342000 17.293700 L 208.337000 17.394800 L 209.331000 17.495900 L 210.326000 17.597000 L 211.321000 17.698100 L 212.316000 17.799200 L 213.310000 17.900300 L 214.305000 18.001500 L 215.300000 18.102600 L 216.295000 18.203700 L 217.290000 18.304900 L 218.284000 18.406000 L 219.279000 18.507200 L 220.274000 18.608300 L 221.269000 18.709500 L 222.264000 18.810700 L 223.259000 18.911900 L 224.254000 19.013100 L 225.249000 19.114300 L 226.244000 19.215500 L 227.239000 19.316700 L 228.234000 19.418000 L 229.230000 19.519200 L 230.225000 19.620500 L 231.220000 19.721800 L 232.215000 19.823100 L 233.210000 19.924400 L 234.206000 20.025800 L 235.201000 20.127100 L 236.196000 20.228500 L 237.192000 20.329900 L 238.187000 20.431300 L 239.183000 20.532800 L 240.178000 20.634200 L 241.173000 20.735700 L 242.169000 20.837200 L 243.165000 20.938700 L 244.160000 21.040300 L 245.156000 21.141800 L 246.151000 21.243400 L 247.147000 21.345100 L 248.143000 21.446700 L 249.139000 21.548400 L 250.134000 21.650100 L 251.130000 21.751800 L 252.126000 21.853600 L 253.122000 21.955300 L 254.118000 22.057200 L 255.114000 22.159000 L 256.110000 22.260900 L 257.106000 22.362800 L 258.102000 22.464700 L 259.098000 22.566700 L 260.094000 22.668700 L 261.090000 22.770800 L 262.086000 22.872800 L 263.083000 22.975000 L 264.079000 23.077100 L 265.075000 23.179300 L 266.072000 23.281500 L 267.068000 23.383800 L 268.064000 23.486100 L 268.200000 23.500000" fill="none" id="16" stroke="black" stroke-width="1.5" /><path d="M 262.000000 28.000000 L 262.015000 29.000500 L 262.030000 30.001000 L 262.047000 31.001400 L 262.063000 32.001800 L 262.081000 33.002200 L 262.099000 34.002500 L 262.118000 35.002800 L 262.137000 36.003100 L 262.158000 37.003300 L 262.178000 38.003600 L 262.200000 39.003800 L 262.222000 40.003900 L 262.245000 41.004100 L 262.268000 42.004100 L 262.292000 43.004200 L 262.317000 44.004200 L 262.342000 45.004300 L 262.368000 46.004200 L 262.395000 47.004200 L 262.422000 48.004100 L 262.451000 49.003900 L 262.479000 50.003800 L 262.509000 51.003600 L 262.539000 52.003400 L 262.569000 53.003100 L 262.601000 54.002800 L 262.632000 55.002500 L 262.665000 56.002100 L 262.698000 57.001700 L 262.732000 58.001300 L 262.767000 59.000800 L 262.802000 60.000300 L 262.838000 60.999800 L 262.875000 61.999200 L 262.912000 62.998600 L 262.950000 63.998000 L 262.988000 64.997300 L 263.027000 65.996600 L 263.067000 66.995800 L 263.108000 67.995100 L 263.149000 68.994200 L 263.191000 69.993400 L 263.233000 70.992500 L 263.276000 71.991500 L 263.320000 72.990600 L 263.364000 73.989600 L 263.409000 74.988500 L 263.455000 75.987400 L 263.501000 76.986300 L 263.548000 77.985100 L 263.596000 78.983900 L 263.644000 79.982700 L 263.693000 80.981400 L 263.743000 81.980100 L 263.793000 82.978800 L 263.844000 83.977400 L 263.895000 84.975900 L 263.948000 85.974400 L 264.000000 86.972900 L 264.054000 87.971400 L 264.108000 88.969800 L 264.163000 89.968100 L 264.218000 90.966500 L 264.274000 91.964700 L 264.331000 92.963000 L 264.388000 93.961200 L 264.446000 94.959300 L 264.505000 95.957400 L 264.564000 96.955500 L 264.624000 97.953500 L 264.685000 98.951500 L 264.746000 99.949500 L 264.808000 100.947000 L 264.871000 101.945000 L 264.934000 102.943000 L 264.998000 103.941000 L 265.062000 104.939000 L 265.127000 105.936000 L 265.193000 106.934000 L 265.260000 107.931000 L 265.327000 108.929000 L 265.394000 109.926000 L 265.463000 110.924000 L 265.532000 111.921000 L 265.601000 112.919000 L 265.672000 113.916000 L 265.743000 114.913000 L 265.814000 115.911000 L 265.886000 116.908000 L 265.959000 117.905000 L 266.033000 118.902000 L 266.107000 119.899000 L 266.182000 120.896000 L 266.257000 121.893000 L 266.333000 122.890000 L 266.410000 123.887000 L 266.487000 124.884000 L 266.565000 125.880000 L 266.644000 126.877000 L 266.723000 127.874000 L 266.803000 128.870000 L 266.884000 129.867000 L 266.965000 130.863000 L 267.047000 131.860000 L 267.129000 132.856000 L 267.212000 133.853000 L 267.296000 134.849000 L 267.381000 135.845000 L 267.466000 136.841000 L 267.551000 137.838000 L 267.638000 138.834000 L 267.725000 139.830000 L 267.812000 140.826000 L 267.900000 141.822000 L 267.989000 142.818000 L 268.079000 143.813000 L 268.169000 144.809000 L 268.260000 145.805000 L 268.351000 146.801000 L 268.443000 147.796000 L 268.536000 148.792000 L 268.629000 149.788000 L 268.723000 150.783000 L 268.818000 151.778000 L 268.913000 152.774000 L 269.009000 153.769000 L 269.105000 154.764000 L 269.203000 155.760000 L 269.300000 156.755000 L 269.399000 157.750000 L 269.498000 158.745000 L 269.597000 159.740000 L 269.698000 160.735000 L 269.799000 161.730000 L 269.900000 162.725000 L 270.003000 163.720000 L 270.105000 164.714000 L 270.209000 165.709000 L 270.313000 166.704000 L 270.418000 167.698000 L 270.523000 168.693000 L 270.629000 169.687000 L 270.736000 170.681000 L 270.843000 171.676000 L 270.900000 172.200000" fill="none" id="17" stroke="black" stroke-width="1.5" /><path d="M 266.300000 33.500000 L 266.241000 34.498800 L 266.183000 35.497600 L 266.126000 36.496500 L 266.070000 37.495400 L 266.014000 38.494300 L 265.959000 39.493300 L 265.905000 40.492300 L 265.851000 41.491300 L 265.799000 42.490300 L 265.747000 43.489400 L 265.695000 44.488500 L 265.645000 45.487600 L 265.595000 46.486700 L 265.546000 47.485900 L 265.498000 48.485100 L 265.450000 49.484300 L 265.403000 50.483600 L 265.357000 51.482900 L 265.312000 52.482200 L 265.267000 53.481500 L 265.223000 54.480800 L 265.180000 55.480200 L 265.137000 56.479600 L 265.096000 57.479000 L 265.055000 58.478400 L 265.015000 59.477800 L 264.975000 60.477300 L 264.937000 61.476800 L 264.899000 62.476300 L 264.861000 63.475800 L 264.825000 64.475400 L 264.789000 65.474900 L 264.754000 66.474500 L 264.720000 67.474100 L 264.687000 68.473700 L 264.654000 69.473300 L 264.622000 70.473000 L 264.591000 71.472600 L 264.560000 72.472300 L 264.531000 73.472000 L 264.502000 74.471700 L 264.473000 75.471400 L 264.446000 76.471100 L 264.419000 77.470800 L 264.393000 78.470600 L 264.368000 79.470300 L 264.344000 80.470100 L 264.320000 81.469900 L 264.297000 82.469700 L 264.275000 83.469400 L 264.253000 84.469300 L 264.233000 85.469100 L 264.213000 86.468900 L 264.194000 87.468700 L 264.175000 88.468500 L 264.157000 89.468400 L 264.141000 90.468200 L 264.124000 91.468100 L 264.109000 92.467900 L 264.094000 93.467800 L 264.081000 94.467700 L 264.068000 95.467500 L 264.055000 96.467400 L 264.044000 97.467300 L 264.033000 98.467100 L 264.023000 99.467000 L 264.014000 100.467000 L 264.005000 101.467000 L 263.997000 102.467000 L 263.990000 103.467000 L 263.984000 104.466000 L 263.979000 105.466000 L 263.974000 106.466000 L 263.970000 107.466000 L 263.967000 108.466000 L 263.964000 109.466000 L 263.963000 110.466000 L 263.962000 111.465000 L 263.962000 112.465000 L 263.963000 113.465000 L 263.964000 114.465000 L 263.966000 115.465000 L 263.969000 116.465000 L 263.973000 117.465000 L 263.978000 118.464000 L 263.983000 119.464000 L 263.989000 120.464000 L 263.996000 121.464000 L 264.003000 122.464000 L 264.012000 123.463000 L 264.021000 124.463000 L 264.031000 125.463000 L 264.042000 126.463000 L 264.053000 127.462000 L 264.065000 128.462000 L 264.078000 129.462000 L 264.092000 130.461000 L 264.107000 131.461000 L 264.122000 132.461000 L 264.138000 133.461000 L 264.155000 134.460000 L 264.173000 135.460000 L 264.192000 136.459000 L 264.211000 137.459000 L 264.231000 138.459000 L 264.252000 139.458000 L 264.273000 140.458000 L 264.296000 141.457000 L 264.319000 142.457000 L 264.343000 143.456000 L 264.368000 144.456000 L 264.393000 145.455000 L 264.420000 146.455000 L 264.447000 147.454000 L 264.475000 148.453000 L 264.503000 149.453000 L 264.533000 150.452000 L 264.563000 151.451000 L 264.594000 152.451000 L 264.626000 153.450000 L 264.658000 154.449000 L 264.692000 155.448000 L 264.726000 156.448000 L 264.761000 157.447000 L 264.797000 158.446000 L 264.833000 159.445000 L 264.871000 160.444000 L 264.909000 161.443000 L 264.948000 162.442000 L 264.987000 163.441000 L 265.028000 164.440000 L 265.069000 165.439000 L 265.111000 166.438000 L 265.154000 167.437000 L 265.198000 168.436000 L 265.243000 169.435000 L 265.288000 170.434000 L 265.300000 170.700000" fill="none" id="18" stroke="black" stroke-width="1.5" /><path d="M 262.700000 178.400000 L 262.067000 179.176000 L 261.436000 179.953000 L 260.805000 180.731000 L 260.175000 181.509000 L 259.546000 182.288000 L 258.918000 183.067000 L 258.290000 183.847000 L 257.664000 184.628000 L 257.038000 185.409000 L 256.413000 186.192000 L 255.790000 186.974000 L 255.166000 187.758000 L 254.544000 188.542000 L 253.923000 189.326000 L 253.302000 190.111000 L 252.683000 190.897000 L 252.064000 191.684000 L 251.446000 192.471000 L 250.829000 193.259000 L 250.213000 194.047000 L 249.598000 194.836000 L 248.983000 195.626000 L 248.370000 196.416000 L 247.757000 197.207000 L 247.145000 197.999000 L 246.534000 198.791000 L 245.924000 199.584000 L 245.315000 200.378000 L 244.706000 201.172000 L 244.099000 201.967000 L 243.492000 202.762000 L 242.886000 203.558000 L 242.281000 204.355000 L 241.677000 205.152000 L 241.074000 205.950000 L 240.472000 206.749000 L 239.870000 207.548000 L 239.270000 208.347000 L 238.670000 209.148000 L 238.071000 209.949000 L 237.473000 210.751000 L 236.876000 211.553000 L 236.280000 212.356000 L 235.684000 213.159000 L 235.090000 213.964000 L 234.496000 214.768000 L 233.904000 215.574000 L 233.312000 216.380000 L 232.721000 217.186000 L 232.131000 217.994000 L 231.541000 218.802000 L 230.953000 219.610000 L 230.366000 220.419000 L 229.779000 221.229000 L 229.193000 222.039000 L 228.608000 222.850000 L 228.024000 223.662000 L 227.441000 224.474000 L 226.859000 225.287000 L 226.278000 226.100000 L 225.697000 226.914000 L 225.118000 227.729000 L 224.539000 228.544000 L 223.961000 229.360000 L 223.384000 230.176000 L 222.808000 230.993000 L 222.233000 231.811000 L 221.659000 232.629000 L 221.085000 233.448000 L 220.513000 234.268000 L 219.941000 235.088000 L 219.370000 235.909000 L 218.801000 236.730000 L 218.232000 237.552000 L 217.663000 238.374000 L 217.096000 239.197000 L 216.530000 240.021000 L 215.964000 240.845000 L 215.400000 241.670000 L 214.836000 242.496000 L 214.273000 243.322000 L 213.712000 244.149000 L 213.151000 244.976000 L 212.590000 245.804000 L 212.031000 246.632000 L 211.473000 247.462000 L 210.915000 248.291000 L 210.359000 249.122000 L 209.803000 249.952000 L 209.248000 250.784000 L 208.695000 251.616000 L 208.142000 252.449000 L 207.590000 253.282000 L 207.038000 254.116000 L 206.488000 254.950000 L 205.939000 255.785000 L 205.390000 256.621000 L 204.842000 257.457000 L 204.296000 258.294000 L 203.750000 259.131000 L 203.205000 259.969000 L 202.661000 260.808000 L 202.118000 261.647000 L 201.576000 262.487000 L 201.034000 263.327000 L 200.494000 264.168000 L 199.954000 265.009000 L 199.416000 265.851000 L 198.878000 266.694000 L 198.341000 267.537000 L 197.805000 268.381000 L 197.270000 269.225000 L 196.736000 270.070000 L 196.203000 270.916000 L 195.670000 271.762000 L 195.139000 272.609000 L 194.608000 273.456000 L 194.079000 274.304000 L 193.550000 275.152000 L 193.022000 276.001000 L 192.495000 276.851000 L 191.969000 277.701000 L 191.444000 278.551000 L 190.920000 279.403000 L 190.397000 280.255000 L 189.874000 281.107000 L 189.353000 281.960000 L 188.832000 282.814000 L 188.312000 283.668000 L 187.794000 284.522000 L 187.276000 285.378000 L 186.759000 286.234000 L 186.243000 287.090000 L 185.728000 287.947000 L 185.213000 288.804000 L 184.700000 289.663000 L 184.188000 290.521000 L 183.676000 291.380000 L 183.166000 292.240000 L 182.656000 293.101000 L 182.147000 293.962000 L 181.639000 294.823000 L 181.300000 295.400000" fill="none" id="19" stroke="black" stroke-width="1.5" /><path d="M 261.800000 182.200000 L 261.142000 182.953000 L 260.485000 183.707000 L 259.829000 184.461000 L 259.173000 185.217000 L 258.518000 185.972000 L 257.864000 186.729000 L 257.211000 187.486000 L 256.558000 188.243000 L 255.906000 189.002000 L 255.255000 189.761000 L 254.605000 190.520000 L 253.955000 191.281000 L 253.306000 192.041000 L 252.658000 192.803000 L 252.010000 193.565000 L 251.364000 194.328000 L 250.718000 195.091000 L 250.073000 195.855000 L 249.428000 196.620000 L 248.784000 197.385000 L 248.142000 198.151000 L 247.499000 198.918000 L 246.858000 199.685000 L 246.217000 200.453000 L 245.577000 201.221000 L 244.938000 201.991000 L 244.300000 202.760000 L 243.662000 203.531000 L 243.025000 204.302000 L 242.389000 205.073000 L 241.753000 205.845000 L 241.119000 206.618000 L 240.485000 207.392000 L 239.852000 208.166000 L 239.219000 208.940000 L 238.588000 209.716000 L 237.957000 210.491000 L 237.327000 211.268000 L 236.697000 212.045000 L 236.069000 212.823000 L 235.441000 213.601000 L 234.814000 214.380000 L 234.187000 215.160000 L 233.562000 215.940000 L 232.937000 216.721000 L 232.313000 217.502000 L 231.690000 218.284000 L 231.067000 219.067000 L 230.445000 219.850000 L 229.824000 220.634000 L 229.204000 221.418000 L 228.584000 222.203000 L 227.966000 222.989000 L 227.348000 223.775000 L 226.731000 224.562000 L 226.114000 225.350000 L 225.498000 226.138000 L 224.883000 226.926000 L 224.269000 227.715000 L 223.656000 228.505000 L 223.043000 229.296000 L 222.432000 230.087000 L 221.820000 230.878000 L 221.210000 231.671000 L 220.601000 232.463000 L 219.992000 233.257000 L 219.384000 234.051000 L 218.777000 234.845000 L 218.170000 235.640000 L 217.564000 236.436000 L 216.960000 237.232000 L 216.355000 238.029000 L 215.752000 238.827000 L 215.149000 239.625000 L 214.548000 240.424000 L 213.947000 241.223000 L 213.346000 242.023000 L 212.747000 242.823000 L 212.148000 243.624000 L 211.550000 244.426000 L 210.953000 245.228000 L 210.356000 246.030000 L 209.761000 246.834000 L 209.166000 247.637000 L 208.572000 248.442000 L 207.979000 249.247000 L 207.386000 250.053000 L 206.794000 250.859000 L 206.203000 251.665000 L 205.613000 252.473000 L 205.024000 253.280000 L 204.435000 254.089000 L 203.847000 254.898000 L 203.260000 255.707000 L 202.674000 256.518000 L 202.089000 257.328000 L 201.504000 258.139000 L 200.920000 258.951000 L 200.337000 259.764000 L 199.754000 260.577000 L 199.173000 261.390000 L 198.592000 262.204000 L 198.012000 263.019000 L 197.433000 263.834000 L 196.854000 264.650000 L 196.277000 265.466000 L 195.700000 266.283000 L 195.124000 267.100000 L 194.548000 267.918000 L 193.974000 268.736000 L 193.400000 269.555000 L 192.827000 270.375000 L 192.255000 271.195000 L 191.684000 272.016000 L 191.113000 272.837000 L 190.544000 273.659000 L 189.975000 274.481000 L 189.406000 275.304000 L 188.839000 276.127000 L 188.273000 276.951000 L 187.707000 277.776000 L 187.142000 278.601000 L 186.578000 279.426000 L 186.014000 280.253000 L 185.452000 281.079000 L 184.890000 281.906000 L 184.329000 282.734000 L 183.768000 283.562000 L 183.209000 284.391000 L 182.650000 285.220000 L 182.093000 286.050000 L 181.536000 286.881000 L 180.979000 287.712000 L 180.424000 288.543000 L 179.869000 289.375000 L 179.315000 290.207000 L 178.762000 291.041000 L 178.210000 291.874000 L 177.659000 292.708000 L 177.400000 293.100000" fill="none" id="20" stroke="black" stroke-width="1.5" /><path d="M 1.500000 231.100000 L 2.462370 231.368000 L 3.425060 231.635000 L 4.388050 231.901000 L 5.351350 232.167000 L 6.314950 232.431000 L 7.278860 232.694000 L 8.243070 232.957000 L 9.207580 233.218000 L 10.172400 233.479000 L 11.137500 233.738000 L 12.102900 233.997000 L 13.068600 234.255000 L 14.034500 234.512000 L 15.000800 234.768000 L 15.967400 235.023000 L 16.934200 235.277000 L 17.901300 235.530000 L 18.868700 235.782000 L 19.836400 236.033000 L 20.804300 236.283000 L 21.772500 236.533000 L 22.741000 236.781000 L 23.709800 237.029000 L 24.678800 237.275000 L 25.648100 237.521000 L 26.617700 237.766000 L 27.587500 238.010000 L 28.557600 238.252000 L 29.528000 238.494000 L 30.498600 238.735000 L 31.469400 238.976000 L 32.440500 239.215000 L 33.411900 239.453000 L 34.383500 239.690000 L 35.355300 239.927000 L 36.327400 240.162000 L 37.299800 240.397000 L 38.272400 240.631000 L 39.245200 240.863000 L 40.218300 241.095000 L 41.191600 241.326000 L 42.165100 241.556000 L 43.138800 241.785000 L 44.112800 242.013000 L 45.087000 242.240000 L 46.061500 242.467000 L 47.036200 242.692000 L 48.011000 242.917000 L 48.986100 243.140000 L 49.961500 243.363000 L 50.937000 243.585000 L 51.912800 243.805000 L 52.888700 244.025000 L 53.864900 244.244000 L 54.841300 244.462000 L 55.817900 244.679000 L 56.794700 244.896000 L 57.771700 245.111000 L 58.748900 245.326000 L 59.726300 245.539000 L 60.703800 245.752000 L 61.681600 245.963000 L 62.659600 246.174000 L 63.637800 246.384000 L 64.616100 246.593000 L 65.594700 246.801000 L 66.573400 247.008000 L 67.552300 247.215000 L 68.531400 247.420000 L 69.510700 247.624000 L 70.490100 247.828000 L 71.469700 248.031000 L 72.449500 248.232000 L 73.429500 248.433000 L 74.409600 248.633000 L 75.389900 248.832000 L 76.370400 249.030000 L 77.351000 249.227000 L 78.331800 249.424000 L 79.312700 249.619000 L 80.293900 249.814000 L 81.275100 250.007000 L 82.256500 250.200000 L 83.238100 250.392000 L 84.219800 250.583000 L 85.201700 250.773000 L 86.183700 250.962000 L 87.165800 251.150000 L 88.148100 251.337000 L 89.130600 251.524000 L 90.113100 251.709000 L 91.095800 251.894000 L 92.078700 252.078000 L 93.061700 252.261000 L 94.044800 252.443000 L 95.028000 252.624000 L 96.011400 252.804000 L 96.994800 252.983000 L 97.978400 253.162000 L 98.962200 253.339000 L 99.946000 253.516000 L 100.930000 253.692000 L 101.914000 253.866000 L 102.898000 254.040000 L 103.883000 254.213000 L 104.867000 254.386000 L 105.851000 254.557000 L 106.100000 254.600000" fill="none" id="21" stroke="black" stroke-width="1.5" /><path d="M 81.100000 247.900000 L 82.022400 248.287000 L 82.945400 248.673000 L 83.869000 249.057000 L 84.793100 249.440000 L 85.717700 249.821000 L 86.643000 250.201000 L 87.568700 250.580000 L 88.495100 250.957000 L 89.422000 251.332000 L 90.349400 251.707000 L 91.277400 252.079000 L 92.206000 252.451000 L 93.135100 252.821000 L 94.064700 253.189000 L 94.994900 253.557000 L 95.925600 253.922000 L 96.856900 254.287000 L 97.788700 254.649000 L 98.721100 255.011000 L 99.653900 255.371000 L 100.587000 255.729000 L 101.521000 256.087000 L 102.456000 256.442000 L 103.391000 256.797000 L 104.326000 257.149000 L 105.262000 257.501000 L 106.199000 257.851000 L 107.136000 258.199000 L 108.074000 258.546000 L 109.012000 258.892000 L 109.951000 259.236000 L 110.890000 259.579000 L 111.830000 259.920000 L 112.770000 260.260000 L 113.711000 260.599000 L 114.652000 260.936000 L 115.594000 261.271000 L 116.536000 261.606000 L 117.479000 261.938000 L 118.422000 262.269000 L 119.366000 262.599000 L 120.310000 262.928000 L 121.255000 263.254000 L 122.200000 263.580000 L 123.146000 263.904000 L 124.092000 264.226000 L 125.039000 264.548000 L 125.987000 264.867000 L 126.934000 265.185000 L 127.883000 265.502000 L 128.831000 265.817000 L 129.781000 266.131000 L 130.730000 266.444000 L 131.681000 266.755000 L 132.631000 267.064000 L 133.583000 267.372000 L 134.534000 267.679000 L 135.486000 267.984000 L 136.439000 268.287000 L 137.392000 268.589000 L 138.346000 268.890000 L 139.300000 269.189000 L 140.254000 269.487000 L 141.209000 269.783000 L 142.165000 270.078000 L 143.121000 270.372000 L 144.077000 270.664000 L 145.034000 270.954000 L 145.991000 271.243000 L 146.949000 271.530000 L 147.907000 271.817000 L 148.866000 272.101000 L 149.825000 272.384000 L 150.785000 272.666000 L 151.745000 272.946000 L 152.705000 273.225000 L 153.666000 273.502000 L 154.628000 273.778000 L 155.590000 274.052000 L 156.552000 274.325000 L 157.515000 274.596000 L 158.478000 274.866000 L 159.441000 275.134000 L 160.405000 275.401000 L 161.370000 275.666000 L 162.335000 275.930000 L 163.300000 276.193000 L 164.266000 276.454000 L 165.232000 276.713000 L 166.199000 276.971000 L 167.166000 277.228000 L 168.133000 277.483000 L 168.200000 277.500000" fill="none" id="22" stroke="black" stroke-width="1.5" /><path d="M 256.500000 82.300000 L 256.175000 83.243100 L 255.849000 84.185800 L 255.521000 85.128000 L 255.191000 86.069800 L 254.859000 87.011100 L 254.526000 87.951900 L 254.191000 88.892200 L 253.855000 89.832000 L 253.517000 90.771400 L 253.177000 91.710200 L 252.835000 92.648500 L 252.492000 93.586400 L 252.148000 94.523700 L 251.801000 95.460500 L 251.453000 96.396800 L 251.103000 97.332500 L 250.752000 98.267700 L 250.399000 99.202400 L 250.044000 100.137000 L 249.687000 101.070000 L 249.329000 102.003000 L 248.969000 102.936000 L 248.608000 103.868000 L 248.245000 104.799000 L 247.880000 105.730000 L 247.514000 106.660000 L 247.146000 107.590000 L 246.776000 108.519000 L 246.404000 109.447000 L 246.031000 110.375000 L 245.657000 111.302000 L 245.280000 112.229000 L 244.902000 113.155000 L 244.522000 114.081000 L 244.141000 115.006000 L 243.758000 115.930000 L 243.373000 116.853000 L 242.987000 117.776000 L 242.599000 118.699000 L 242.209000 119.620000 L 241.817000 120.541000 L 241.424000 121.462000 L 241.030000 122.381000 L 240.633000 123.301000 L 240.235000 124.219000 L 239.835000 125.137000 L 239.434000 126.054000 L 239.031000 126.970000 L 238.626000 127.886000 L 238.220000 128.801000 L 237.812000 129.715000 L 237.402000 130.629000 L 236.991000 131.542000 L 236.578000 132.454000 L 236.163000 133.365000 L 235.747000 134.276000 L 235.329000 135.186000 L 234.909000 136.096000 L 234.487000 137.004000 L 234.064000 137.912000 L 233.640000 138.819000 L 233.213000 139.725000 L 232.800000 140.600000" fill="none" id="23" stroke="black" stroke-width="1.5" /><path d="M 242.600000 127.300000 L 242.148000 128.194000 L 241.699000 129.089000 L 241.252000 129.985000 L 240.809000 130.883000 L 240.369000 131.782000 L 239.932000 132.682000 L 239.498000 133.584000 L 239.067000 134.488000 L 238.639000 135.392000 L 238.214000 136.298000 L 237.792000 137.206000 L 237.374000 138.115000 L 236.958000 139.025000 L 236.546000 139.936000 L 236.136000 140.849000 L 235.730000 141.763000 L 235.326000 142.678000 L 234.926000 143.595000 L 234.529000 144.513000 L 234.135000 145.432000 L 233.744000 146.352000 L 233.357000 147.274000 L 232.972000 148.197000 L 232.591000 149.121000 L 232.212000 150.047000 L 231.837000 150.974000 L 231.465000 151.902000 L 231.096000 152.831000 L 230.731000 153.761000 L 230.368000 154.693000 L 230.009000 155.626000 L 229.652000 156.560000 L 229.299000 157.495000 L 228.950000 158.431000 L 228.603000 159.369000 L 228.259000 160.307000 L 227.919000 161.247000 L 227.582000 162.188000 L 227.248000 163.130000 L 226.918000 164.073000 L 226.590000 165.018000 L 226.266000 165.963000 L 225.945000 166.910000 L 225.628000 167.857000 L 225.313000 168.806000 L 225.002000 169.756000 L 224.694000 170.707000 L 224.389000 171.659000 L 224.088000 172.612000 L 223.790000 173.566000 L 223.495000 174.521000 L 223.203000 175.477000 L 222.915000 176.434000 L 222.630000 177.392000 L 222.348000 178.351000 L 222.070000 179.311000 L 221.794000 180.273000 L 221.523000 181.235000 L 221.254000 182.198000 L 220.989000 183.162000 L 220.727000 184.127000 L 220.600000 184.600000" fill="none" id="24" stroke="black" stroke-width="1.5" /><path d="M 255.500000 114.000000 L 255.108000 114.920000 L 254.716000 115.840000 L 254.324000 116.760000 L 253.932000 117.680000 L 253.540000 118.600000 L 253.148000 119.520000 L 252.756000 120.440000 L 252.364000 121.360000 L 251.972000 122.280000 L 251.580000 123.200000 L 251.188000 124.120000 L 250.796000 125.040000 L 250.404000 125.960000 L 250.012000 126.880000 L 249.620000 127.800000 L 249.228000 128.720000 L 248.836000 129.639000 L 248.444000 130.559000 L 248.052000 131.479000 L 247.660000 132.399000 L 247.268000 133.319000 L 246.876000 134.239000 L 246.484000 135.159000 L 246.092000 136.079000 L 245.700000 136.999000 L 245.308000 137.919000 L 244.916000 138.839000 L 244.524000 139.759000 L 244.132000 140.679000 L 243.740000 141.599000 L 243.348000 142.519000 L 242.956000 143.439000 L 242.564000 144.359000 L 242.172000 145.279000 L 241.780000 146.199000 L 241.388000 147.119000 L 240.996000 148.039000 L 240.604000 148.959000 L 240.212000 149.879000 L 239.821000 150.799000 L 239.429000 151.719000 L 239.037000 152.639000 L 238.645000 153.559000 L 238.253000 154.479000 L 237.861000 155.399000 L 237.469000 156.319000 L 237.077000 157.239000 L 236.685000 158.159000 L 236.293000 159.079000 L 235.901000 159.999000 L 235.509000 160.918000 L 235.117000 161.838000 L 234.725000 162.758000 L 234.333000 163.678000 L 233.941000 164.598000 L 233.549000 165.518000 L 233.157000 166.438000 L 232.765000 167.358000 L 232.373000 168.278000 L 231.981000 169.198000 L 231.589000 170.118000 L 231.197000 171.038000 L 230.805000 171.958000 L 230.413000 172.878000 L 230.021000 173.798000 L 229.629000 174.718000 L 229.237000 175.638000 L 228.845000 176.558000 L 228.453000 177.478000 L 228.061000 178.398000 L 227.669000 179.318000 L 227.277000 180.238000 L 226.885000 181.158000 L 226.493000 182.078000 L 226.101000 182.998000 L 226.100000 183.000000" fill="none" id="25" stroke="black" stroke-width="1.5" /><path d="M 253.600000 133.600000 L 253.154000 134.495000 L 252.710000 135.391000 L 252.269000 136.289000 L 251.830000 137.187000 L 251.393000 138.086000 L 250.959000 138.987000 L 250.527000 139.889000 L 250.097000 140.791000 L 249.670000 141.695000 L 249.245000 142.600000 L 248.823000 143.506000 L 248.402000 144.413000 L 247.985000 145.321000 L 247.569000 146.231000 L 247.157000 147.141000 L 246.746000 148.052000 L 246.338000 148.965000 L 245.932000 149.878000 L 245.529000 150.792000 L 245.128000 151.708000 L 244.729000 152.624000 L 244.333000 153.542000 L 243.940000 154.461000 L 243.548000 155.380000 L 243.160000 156.301000 L 242.773000 157.223000 L 242.389000 158.145000 L 242.008000 159.069000 L 241.629000 159.994000 L 241.252000 160.920000 L 240.878000 161.846000 L 240.506000 162.774000 L 240.137000 163.703000 L 239.770000 164.632000 L 239.406000 165.563000 L 239.044000 166.495000 L 238.685000 167.428000 L 238.328000 168.361000 L 237.973000 169.296000 L 237.621000 170.231000 L 237.272000 171.168000 L 236.925000 172.106000 L 236.580000 173.044000 L 236.238000 173.984000 L 235.899000 174.924000 L 235.562000 175.865000 L 235.227000 176.808000 L 234.895000 177.751000 L 234.566000 178.695000 L 234.239000 179.640000 L 233.914000 180.586000 L 233.592000 181.533000 L 233.273000 182.481000 L 232.956000 183.430000 L 232.642000 184.380000 L 232.330000 185.331000 L 232.021000 186.282000 L 231.714000 187.235000 L 231.410000 188.188000 L 231.108000 189.142000 L 230.809000 190.098000 L 230.513000 191.054000 L 230.219000 192.011000 L 229.927000 192.969000 L 229.639000 193.927000 L 229.352000 194.887000 L 229.069000 195.847000 L 228.788000 196.809000 L 228.509000 197.771000 L 228.333000 198.270000 L 228.468000 197.307000 L 228.600000 196.300000" fill="none" id="26" stroke="black" stroke-width="1.5" /><path d="M 258.100000 141.200000 L 257.692000 142.112000 L 257.285000 143.024000 L 256.879000 143.936000 L 256.473000 144.850000 L 256.069000 145.763000 L 255.666000 146.678000 L 255.264000 147.593000 L 254.863000 148.508000 L 254.463000 149.424000 L 254.064000 150.340000 L 253.666000 151.257000 L 253.269000 152.175000 L 252.873000 153.093000 L 252.478000 154.012000 L 252.085000 154.931000 L 251.692000 155.850000 L 251.300000 156.770000 L 250.909000 157.691000 L 250.520000 158.612000 L 250.131000 159.534000 L 249.744000 160.456000 L 249.357000 161.378000 L 248.972000 162.301000 L 248.588000 163.225000 L 248.205000 164.149000 L 247.822000 165.073000 L 247.441000 165.998000 L 247.061000 166.924000 L 246.683000 167.850000 L 246.305000 168.776000 L 245.928000 169.703000 L 245.552000 170.630000 L 245.178000 171.558000 L 244.805000 172.486000 L 244.432000 173.415000 L 244.061000 174.344000 L 243.691000 175.274000 L 243.322000 176.204000 L 242.954000 177.134000 L 242.588000 178.065000 L 242.222000 178.997000 L 241.858000 179.929000 L 241.494000 180.861000 L 241.132000 181.793000 L 240.771000 182.727000 L 240.411000 183.660000 L 240.052000 184.594000 L 239.695000 185.528000 L 239.338000 186.463000 L 238.983000 187.398000 L 238.629000 188.334000 L 238.276000 189.270000 L 237.924000 190.206000 L 237.573000 191.143000 L 237.223000 192.080000 L 236.875000 193.018000 L 236.528000 193.955000 L 236.182000 194.894000 L 235.837000 195.832000 L 235.493000 196.771000 L 235.151000 197.711000 L 234.809000 198.651000 L 234.469000 199.591000 L 234.130000 200.531000 L 233.793000 201.472000 L 233.456000 202.414000 L 233.121000 203.355000 L 232.787000 204.297000 L 232.454000 205.240000 L 232.122000 206.182000 L 231.792000 207.125000 L 231.462000 208.069000 L 231.134000 209.012000 L 231.000000 209.400000" fill="none" id="27" stroke="black" stroke-width="1.5" /><path d="M 256.200000 158.900000 L 255.855000 159.836000 L 255.510000 160.773000 L 255.166000 161.710000 L 254.821000 162.647000 L 254.476000 163.585000 L 254.131000 164.523000 L 253.786000 165.461000 L 253.441000 166.400000 L 253.097000 167.339000 L 252.752000 168.278000 L 252.407000 169.217000 L 252.062000 170.156000 L 251.717000 171.096000 L 251.373000 172.036000 L 251.028000 172.976000 L 250.683000 173.916000 L 250.338000 174.856000 L 249.993000 175.796000 L 249.648000 176.736000 L 249.304000 177.676000 L 248.959000 178.616000 L 248.614000 179.556000 L 248.269000 180.495000 L 247.924000 181.435000 L 247.580000 182.375000 L 247.235000 183.314000 L 246.890000 184.253000 L 246.545000 185.192000 L 246.200000 186.131000 L 245.855000 187.070000 L 245.511000 188.008000 L 245.166000 188.946000 L 244.821000 189.883000 L 244.476000 190.820000 L 244.131000 191.757000 L 243.787000 192.694000 L 243.818000 192.796000 L 244.292000 191.915000 L 244.766000 191.035000 L 245.240000 190.155000 L 245.700000 189.300000" fill="none" id="28" stroke="black" stroke-width="1.5" /><path d="M 259.500000 167.500000 L 259.179000 168.449000 L 258.860000 169.397000 L 258.542000 170.346000 L 258.225000 171.295000 L 257.910000 172.243000 L 257.594000 173.192000 L 257.280000 174.141000 L 256.966000 175.089000 L 256.652000 176.038000 L 256.338000 176.987000 L 256.025000 177.935000 L 255.711000 178.884000 L 255.396000 179.833000 L 255.082000 180.782000 L 254.766000 181.730000 L 254.450000 182.679000 L 254.133000 183.628000 L 253.814000 184.576000 L 253.494000 185.525000 L 253.300000 186.100000" fill="none" id="29" stroke="black" stroke-width="1.5" /><path d="M 51.300000 48.500000 L 52.206800 48.079600 L 53.114500 47.661200 L 54.023200 47.244900 L 54.932900 46.830700 L 55.843400 46.418500 L 56.755000 46.008400 L 57.667400 45.600400 L 58.580800 45.194400 L 59.495100 44.790500 L 60.410300 44.388700 L 61.326500 43.988900 L 62.243500 43.591200 L 63.161500 43.195600 L 64.080300 42.802100 L 65.000100 42.410700 L 65.920800 42.021300 L 66.842300 41.634100 L 67.764800 41.248900 L 68.688100 40.865800 L 69.612300 40.484800 L 70.537400 40.105900 L 71.463400 39.729100 L 72.390200 39.354400 L 73.317900 38.981800 L 74.246400 38.611300 L 75.175800 38.242900 L 76.106100 37.876600 L 77.037200 37.512400 L 77.969100 37.150300 L 78.901900 36.790400 L 79.835500 36.432500 L 80.769900 36.076800 L 81.705200 35.723200 L 82.641300 35.371700 L 83.578200 35.022400 L 84.515900 34.675100 L 85.454400 34.330000 L 86.393800 33.987100 L 87.333900 33.646200 L 88.274900 33.307500 L 89.216600 32.970900 L 90.159100 32.636500 L 91.102400 32.304200 L 92.046500 31.974100 L 92.991300 31.646100 L 93.937000 31.320200 L 94.883400 30.996500 L 95.830500 30.674900 L 96.778400 30.355500 L 97.727100 30.038300 L 98.676500 29.723200 L 99.626700 29.410200 L 100.578000 29.099500 L 101.529000 28.790900 L 102.482000 28.484400 L 103.435000 28.180100 L 104.389000 27.878000 L 105.343000 27.578100 L 106.299000 27.280300 L 107.255000 26.984700 L 108.211000 26.691300 L 109.169000 26.400100 L 110.127000 26.111000 L 111.086000 25.824200 L 112.045000 25.539500 L 113.005000 25.257000 L 113.200000 25.200000" fill="none" id="30" stroke="black" stroke-width="1.5" /><path d="M 128.600000 230.400000 L 128.712000 229.414000 L 128.889000 228.449000 L 129.126000 227.504000 L 129.422000 226.579000 L 129.774000 225.674000 L 130.179000 224.789000 L 130.634000 223.924000 L 131.136000 223.078000 L 131.682000 222.252000 L 132.271000 221.444000 L 132.898000 220.655000 L 133.562000 219.885000 L 134.259000 219.134000 L 134.987000 218.401000 L 135.742000 217.686000 L 136.523000 216.989000 L 137.325000 216.310000 L 138.148000 215.649000 L 138.986000 215.005000 L 139.839000 214.378000 L 140.703000 213.768000 L 141.575000 213.175000 L 142.453000 212.599000 L 143.334000 212.039000 L 144.214000 211.496000 L 145.092000 210.969000 L 145.964000 210.458000 L 146.828000 209.963000 L 147.680000 209.483000 L 148.519000 209.019000 L 149.341000 208.569000 L 150.143000 208.135000 L 150.923000 207.716000 L 151.678000 207.312000 L 151.253000 208.020000 L 150.789000 208.781000 L 150.321000 209.560000 L 149.851000 210.356000 L 149.378000 211.169000 L 148.903000 211.998000 L 148.427000 212.842000 L 147.950000 213.700000 L 147.474000 214.571000 L 146.997000 215.456000 L 146.522000 216.352000 L 146.049000 217.260000 L 145.578000 218.179000 L 145.110000 219.108000 L 144.645000 220.046000 L 144.183000 220.993000 L 143.727000 221.947000 L 143.275000 222.908000 L 142.829000 223.876000 L 142.390000 224.849000 L 141.957000 225.827000 L 141.531000 226.809000 L 141.113000 227.795000 L 140.704000 228.783000 L 140.304000 229.774000 L 139.913000 230.765000 L 139.533000 231.757000 L 139.163000 232.749000 L 138.805000 233.740000 L 138.458000 234.729000 L 138.124000 235.715000 L 137.803000 236.699000 L 137.495000 237.678000 L 137.202000 238.653000 L 136.923000 239.623000 L 136.659000 240.586000 L 136.412000 241.543000 L 136.181000 242.492000 L 135.966000 243.433000 L 135.770000 244.365000 L 135.591000 245.287000 L 135.431000 246.198000 L 135.291000 247.099000 L 135.170000 247.987000 L 135.069000 248.863000 L 135.129000 249.595000 L 135.997000 249.525000 L 136.843000 249.389000 L 137.669000 249.189000 L 138.474000 248.927000 L 139.260000 248.607000 L 140.027000 248.231000 L 140.777000 247.801000 L 141.510000 247.320000 L 142.227000 246.789000 L 142.929000 246.212000 L 143.617000 245.591000 L 144.291000 244.928000 L 144.952000 244.226000 L 145.602000 243.488000 L 146.241000 242.715000 L 146.870000 241.910000 L 147.489000 241.075000 L 148.100000 240.214000 L 148.703000 239.328000 L 149.299000 238.420000 L 149.890000 237.493000 L 150.475000 236.548000 L 151.056000 235.588000 L 151.633000 234.616000 L 152.208000 233.634000 L 152.781000 232.645000 L 153.353000 231.651000 L 153.924000 230.654000 L 154.496000 229.657000 L 155.070000 228.662000 L 155.646000 227.672000 L 156.225000 226.689000 L 156.808000 225.716000 L 157.396000 224.755000 L 157.990000 223.809000 L 158.590000 222.879000 L 159.197000 221.969000 L 159.812000 221.081000 L 160.436000 220.217000 L 161.070000 219.380000 L 161.715000 218.572000 L 162.371000 217.795000 L 163.039000 217.053000 L 163.721000 216.347000 L 164.416000 215.680000 L 165.126000 215.055000 L 165.851000 214.473000 L 166.593000 213.938000 L 167.352000 213.451000 L 168.130000 213.016000 L 168.926000 212.634000 L 169.742000 212.308000 L 170.578000 212.040000 L 171.436000 211.834000 L 172.316000 211.691000 L 173.219000 211.614000 L 173.676000 211.944000 L 173.326000 212.868000 L 172.956000 213.782000 L 172.567000 214.687000 L 172.160000 215.582000 L 171.735000 216.469000 L 171.293000 217.347000 L 170.835000 218.218000 L 170.361000 219.081000 L 169.873000 219.937000 L 169.371000 220.786000 L 168.856000 221.629000 L 168.328000 222.466000 L 167.788000 223.297000 L 167.238000 224.123000 L 166.677000 224.944000 L 166.107000 225.760000 L 165.528000 226.573000 L 164.941000 227.381000 L 164.347000 228.187000 L 163.746000 228.989000 L 163.140000 229.789000 L 162.529000 230.587000 L 161.913000 231.383000 L 161.294000 232.178000 L 160.672000 232.971000 L 160.048000 233.764000 L 159.423000 234.557000 L 158.797000 235.350000 L 158.171000 236.143000 L 157.547000 236.937000 L 156.924000 237.733000 L 156.303000 238.530000 L 155.686000 239.330000 L 155.073000 240.131000 L 154.464000 240.936000 L 153.861000 241.744000 L 153.263000 242.555000 L 152.673000 243.370000 L 152.091000 244.190000 L 151.517000 245.014000 L 150.952000 245.844000 L 150.396000 246.679000 L 149.852000 247.520000 L 149.319000 248.367000 L 148.798000 249.221000 L 148.290000 250.082000 L 147.795000 250.950000 L 147.315000 251.826000 L 146.850000 252.711000 L 146.401000 253.603000 L 145.968000 254.505000 L 145.553000 255.417000 L 145.156000 256.338000 L 144.777000 257.269000 L 144.419000 258.210000 L 144.080000 259.163000 L 144.166000 259.482000 L 144.772000 258.953000 L 145.384000 258.375000 L 146.002000 257.753000 L 146.625000 257.089000 L 147.254000 256.387000 L 147.888000 255.649000 L 148.527000 254.879000 L 149.171000 254.080000 L 149.820000 253.254000 L 150.474000 252.406000 L 151.133000 251.537000 L 151.797000 250.651000 L 152.464000 249.752000 L 153.137000 248.841000 L 153.813000 247.923000 L 154.494000 246.999000 L 155.179000 246.075000 L 155.868000 245.151000 L 156.560000 244.232000 L 157.257000 243.321000 L 157.957000 242.420000 L 158.661000 241.533000 L 159.368000 240.663000 L 160.078000 239.812000 L 160.792000 238.984000 L 161.508000 238.182000 L 162.228000 237.410000 L 162.951000 236.669000 L 163.676000 235.963000 L 164.404000 235.296000 L 165.134000 234.670000 L 165.867000 234.088000 L 166.603000 233.554000 L 167.340000 233.070000 L 168.080000 232.640000 L 168.822000 232.266000 L 169.565000 231.952000 L 170.311000 231.701000 L 171.058000 231.516000 L 171.798000 231.408000 L 171.523000 232.275000 L 171.215000 233.148000 L 170.874000 234.026000 L 170.505000 234.907000 L 170.108000 235.793000 L 169.686000 236.683000 L 169.242000 237.577000 L 168.778000 238.475000 L 168.296000 239.375000 L 167.798000 240.279000 L 167.287000 241.186000 L 166.765000 242.095000 L 166.234000 243.006000 L 165.697000 243.920000 L 165.156000 244.836000 L 164.614000 245.753000 L 164.071000 246.672000 L 163.532000 247.592000 L 162.998000 248.513000 L 162.471000 249.435000 L 161.955000 250.358000 L 161.450000 251.281000 L 160.960000 252.203000 L 160.486000 253.126000 L 160.032000 254.049000 L 159.599000 254.971000 L 159.189000 255.892000 L 158.806000 256.812000 L 158.451000 257.730000 L 158.126000 258.648000 L 157.835000 259.563000 L 157.578000 260.477000 L 157.359000 261.388000 L 157.180000 262.297000 L 157.043000 263.203000 L 156.951000 264.107000 L 156.905000 265.007000 L 157.432000 265.164000 L 158.342000 264.695000 L 159.210000 264.167000 L 160.040000 263.585000 L 160.834000 262.954000 L 161.596000 262.281000 L 162.330000 261.570000 L 163.038000 260.826000 L 163.724000 260.056000 L 164.391000 259.264000 L 165.042000 258.456000 L 165.681000 257.637000 L 166.311000 256.813000 L 166.935000 255.989000 L 167.557000 255.170000 L 168.179000 254.363000 L 168.806000 253.571000 L 169.440000 252.802000 L 170.085000 252.059000 L 170.744000 251.349000 L 171.420000 250.676000 L 172.117000 250.047000 L 172.838000 249.467000 L 173.586000 248.940000 L 174.364000 248.473000 L 174.378000 249.244000 L 174.180000 250.239000 L 173.930000 251.212000 L 173.633000 252.164000 L 173.293000 253.098000 L 172.916000 254.015000 L 172.507000 254.919000 L 172.070000 255.811000 L 171.609000 256.693000 L 171.131000 257.568000 L 170.639000 258.437000 L 170.139000 259.303000 L 169.635000 260.167000 L 169.132000 261.032000 L 168.635000 261.901000 L 168.149000 262.774000 L 167.678000 263.654000 L 167.984000 263.842000 L 168.802000 263.506000 L 169.647000 263.090000 L 170.513000 262.611000 L 171.395000 262.083000 L 172.288000 261.524000 L 173.185000 260.949000 L 174.083000 260.374000 L 174.975000 259.817000 L 175.660000 259.733000 L 176.153000 260.494000 L 176.725000 261.439000 L 177.297000 262.466000 L 177.788000 263.470000 L 178.120000 264.351000 L 178.200000 264.700000" fill="none" id="31" stroke="black" stroke-width="1.5" /></svg>