<?xml version="1.0" encoding="UTF-8" standalone="no"?>
<svg
   viewBox="-103.333 -103.467 206.667 206.933"
   version="1.1"
   id="svg886"
   sodipodi:docname="instruction_box_label_cluster.svg"
   inkscape:version="1.1.1 (c3084ef, 2021-09-22)"
   xmlns:inkscape="http://www.inkscape.org/namespaces/inkscape"
   xmlns:sodipodi="http://sodipodi.sourceforge.net/DTD/sodipodi-0.dtd"
   xmlns="http://www.w3.org/2000/svg"
   xmlns:svg="http://www.w3.org/2000/svg">
  <defs
     id="defs890" />
  <sodipodi:namedview
     id="namedview888"
     pagecolor="#ffffff"
     bordercolor="#666666"
     borderopacity="1.0"
     inkscape:pageshadow="2"
     inkscape:pageopacity="0.0"
     inkscape:pagecheckerboard="0"
     showgrid="false"
     inkscape:zoom="3.0203013"
     inkscape:cx="103.4665"
     inkscape:cy="103.4665"
     inkscape:window-width="1312"
     inkscape:window-height="847"
     inkscape:window-x="0"
     inkscape:window-y="25"
     inkscape:window-maximized="0"
     inkscape:current-layer="svg886" />
  <path
     stroke-width="1"
     fill="none"
     stroke="#00a391"
     d="M -98.3333 -49.3333 L -97.138 -49.2842 L -95.9428 -49.2332 L -94.7476 -49.1804 L -93.5525 -49.1257 L -92.3575 -49.0693 L -91.1626 -49.0108 L -89.9678 -48.9506 L -88.7731 -48.8885 L -87.5784 -48.8246 L -86.3839 -48.7589 L -85.1895 -48.6913 L -83.9952 -48.6217 L -82.801 -48.5504 L -81.6069 -48.4773 L -80.4129 -48.4023 L -79.219 -48.3255 L -78.0253 -48.2467 L -76.8317 -48.1662 L -75.6382 -48.0838 L -74.4448 -47.9996 L -73.2516 -47.9135 L -72.0585 -47.8255 L -70.8655 -47.7358 L -69.6727 -47.6442 L -68.48 -47.5508 L -67.2875 -47.4554 L -66.0951 -47.3583 L -64.9029 -47.2593 L -63.7108 -47.1586 L -62.5189 -47.0559 L -61.3271 -46.9514 L -60.1355 -46.845 L -58.9441 -46.7368 L -57.7528 -46.6269 L -56.5617 -46.515 L -55.3708 -46.4012 L -54.1801 -46.2857 L -52.9895 -46.1683 L -51.7991 -46.0492 L -50.6089 -45.9281 L -49.4189 -45.8052 L -48.2291 -45.6805 L -47.0395 -45.5539 L -45.8501 -45.4256 L -44.6608 -45.2953 L -43.4718 -45.1632 L -42.283 -45.0293 L -41.0944 -44.8936 L -39.906 -44.7561 L -38.7178 -44.6166 L -37.5298 -44.4754 L -36.3421 -44.3323 L -35.1546 -44.1874 L -33.9673 -44.0407 L -32.7802 -43.8921 L -31.5934 -43.7417 L -30.4068 -43.5894 L -29.2204 -43.4354 L -28.0342 -43.2795 L -26.8484 -43.1217 L -25.6627 -42.9621 L -24.4773 -42.8008 L -23.2922 -42.6375 L -22.1073 -42.4725 L -20.9226 -42.3056 L -19.7383 -42.1368 L -18.5542 -41.9662 L -17.3703 -41.7939 L -16.1867 -41.6197 L -15.0034 -41.4437 L -13.8204 -41.2657 L -12.6376 -41.0861 L -11.4551 -40.9046 L -10.2729 -40.7212 L -9.09102 -40.536 L -7.9094 -40.3489 L -6.72805 -40.1602 L -5.547 -39.9695 L -4.36627 -39.777 L -3.18582 -39.5827 L -2.00568 -39.3865 L -0.825847 -39.1885 L 0.353683 -38.9887 L 1.5329 -38.787 L 2.71181 -38.5836 L 3.8904 -38.3783 L 5.06868 -38.1712 L 6.24662 -37.9623 L 7.42423 -37.7515 L 8.60152 -37.5388 L 9.77849 -37.3244 L 10.9551 -37.1082 L 12.1314 -36.8902 L 13.3074 -36.6703 L 14.483 -36.4485 L 15.6582 -36.2249 L 16.8331 -35.9995 L 18.0077 -35.7724 L 19.1819 -35.5433 L 20.3558 -35.3125 L 21.5292 -35.0797 L 22.7024 -34.8453 L 23.8751 -34.609 L 25.0475 -34.3708 L 26.2195 -34.1309 L 27.3912 -33.889 L 28.5625 -33.6455 L 29.7333 -33.4"
     id="path824" />
  <path
     stroke-width="1"
     fill="none"
     stroke="#a52a2a"
     d="M 98.3333 -98.4667 L 97.3681 -97.7695 L 96.4038 -97.0711 L 95.4403 -96.3715 L 94.4778 -95.6706 L 93.5161 -94.9685 L 92.5555 -94.265 L 91.5958 -93.5603 L 90.637 -92.8543 L 89.679 -92.1472 L 88.7218 -91.4391 L 87.7658 -90.7293 L 86.8106 -90.0184 L 85.8563 -89.3063 L 84.9028 -88.5933 L 83.9505 -87.8786 L 82.999 -87.1628 L 82.0484 -86.4458 L 81.0986 -85.7278 L 80.15 -85.0081 L 79.2022 -84.2875 L 78.2553 -83.5655 L 77.3095 -82.8423 L 76.3645 -82.1179 L 75.4204 -81.3923 L 74.4773 -80.6656 L 73.5352 -79.9375 L 72.594 -79.2081 L 71.6536 -78.4779 L 70.7144 -77.746 L 69.776 -77.0131 L 68.8386 -76.279 L 67.9021 -75.5437 L 66.9666 -74.807 L 66.0321 -74.0693 L 65.0984 -73.3303 L 64.1658 -72.5901 L 63.2342 -71.8487 L 62.3035 -71.106 L 61.3737 -70.3622 L 60.445 -69.6171 L 59.5171 -68.871 L 58.5902 -68.1236 L 57.6644 -67.3748 L 56.7396 -66.6249 L 55.8156 -65.8739 L 54.8926 -65.1217 L 53.9708 -64.3681 L 53.0498 -63.6135 L 52.1298 -62.8576 L 51.2108 -62.1006 L 50.2926 -61.3425 L 49.3757 -60.583 L 48.4595 -59.8225 L 47.5446 -59.0605 L 46.6305 -58.2975 L 45.7173 -57.5334 L 44.8053 -56.768 L 43.8943 -56.0013 L 42.9841 -55.2337 L 42.075 -54.4647 L 41.167 -53.6945 L 40.2599 -52.9233 L 39.3537 -52.1509 L 38.4486 -51.3772 L 37.5445 -50.6024 L 36.6415 -49.8264 L 35.7394 -49.0492 L 34.8384 -48.2708 L 33.9385 -47.4913 L 33.0395 -46.7105 L 32.1414 -45.9288 L 31.2446 -45.1456 L 30.3485 -44.3615 L 29.4537 -43.5759 L 28.5597 -42.7895 L 27.667 -42.0016 L 26.7751 -41.2128 L 25.8844 -40.4226 L 24.9946 -39.6315 L 24.1059 -38.8391 L 23.2181 -38.0456 L 22.3315 -37.2509 L 21.4458 -36.4551 L 20.5612 -35.6581 L 19.6778 -34.8598 L 18.7953 -34.0604 L 17.9138 -33.2601 L 17.0333 -32.4585 L 16.1541 -31.6556 L 15.2757 -30.8518 L 14.3984 -30.0468 L 13.5223 -29.2405 L 12.647 -28.4333 L 11.7732 -27.6244 L 10.9002 -26.8148 L 10.0282 -26.0041 L 9.15713 -25.1923 L 8.28745 -24.379 L 7.41884 -23.5646 L 6.55107 -22.7494 L 5.68456 -21.9327 L 4.81882 -21.1153 L 3.95429 -20.2966 L 3.09093 -19.4767 L 2.22875 -18.6555 L 1.36768 -17.8331 L 0.507328 -17.01 L -0.351693 -16.1855 L -1.20973 -15.36 L -2.06667 -14.5333"
     id="path826" />
  <path
     stroke-width="1"
     fill="none"
     stroke="#ffd700"
     d="M 15.8667 -18.7333 L 15.9678 -17.5412 L 16.0689 -16.3491 L 16.17 -15.157 L 16.2705 -13.9649 L 16.3715 -12.7728 L 16.4725 -11.5807 L 16.5731 -10.3885 L 16.6742 -9.19645 L 16.7747 -8.0043 L 16.8752 -6.81215 L 16.9763 -5.62005 L 17.0767 -4.4279 L 17.1772 -3.23576 L 17.2777 -2.04361 L 17.3782 -0.851457 L 17.4787 0.340692 L 17.5792 1.53284 L 17.6797 2.72499 L 17.7802 3.91714 L 17.8801 5.10934 L 17.9805 6.30149 L 18.081 7.49364 L 18.1814 8.6858 L 18.2814 9.87799 L 18.3819 11.0701 L 18.4817 12.2623 L 18.5822 13.4545 L 18.6821 14.6467 L 18.7826 15.8388 L 18.8825 17.031 L 18.9826 18.2232 L 19.0828 19.4154 L 19.1827 20.6076 L 19.2832 21.7997 L 19.3831 22.9919 L 19.483 24.1841 L 19.5832 25.3763 L 19.6832 26.5685 L 19.7832 27.7607 L 19.8832 28.9529 L 19.9832 30.1451 L 20.0835 31.3372 L 20.1833 32.5294 L 20.2832 33.7216 L 20.3832 34.9138 L 20.4836 36.106 L 20.5835 37.2982 L 20.6833 38.4904 L 20.7838 39.6825 L 20.8837 40.8747 L 20.9836 42.0669 L 21.0839 43.2591 L 21.184 44.4513 L 21.2838 45.6435 L 21.3843 46.8356 L 21.4842 48.0278 L 21.5845 49.22 L 21.6846 50.4122 L 21.7851 51.6043 L 21.8849 52.7965 L 21.9854 53.9887 L 22.0853 55.1809 L 22.1858 56.373 L 22.2863 57.5652 L 22.3861 58.7574 L 22.4866 59.9495 L 22.5871 61.1417 L 22.6876 62.3338 L 22.7881 63.526 L 22.8886 64.7181 L 22.9891 65.9103 L 23.0896 67.1024 L 23.1901 68.2946 L 23.2905 69.4867 L 23.391 70.6789 L 23.4921 71.871 L 23.5926 73.0631 L 23.6937 74.2552 L 23.7941 75.4474 L 23.8953 76.6394 L 23.996 77.8316 L 24.0968 79.0237 L 24.1979 80.2158 L 24.2989 81.4079 L 24.4 82.6"
     id="path828" />
  <path
     stroke-width="1"
     fill="none"
     stroke="#ffd700"
     d="M 19.4667 -29.1333 L 19.5014 -27.934 L 19.5366 -26.7346 L 19.5717 -25.5352 L 19.6066 -24.3358 L 19.6419 -23.1365 L 19.6767 -21.9371 L 19.7121 -20.7378 L 19.7472 -19.5384 L 19.7825 -18.339 L 19.8178 -17.1397 L 19.8531 -15.9403 L 19.8885 -14.7409 L 19.9238 -13.5416 L 19.9591 -12.3422 L 19.9944 -11.1429 L 20.0299 -9.9435 L 20.0654 -8.74415 L 20.1011 -7.5448 L 20.1364 -6.34544 L 20.1717 -5.14607 L 20.2077 -3.94673 L 20.2431 -2.74737 L 20.2788 -1.54802 L 20.3144 -0.348671 L 20.3504 0.85067 L 20.3857 2.05003 L 20.4217 3.24937 L 20.4571 4.44873 L 20.4931 5.64807 L 20.5284 6.84743 L 20.5644 8.04677 L 20.6004 9.24612 L 20.6361 10.4455 L 20.6717 11.6448 L 20.7077 12.8442 L 20.7437 14.0435 L 20.7793 15.2429 L 20.8151 16.4422 L 20.8511 17.6415 L 20.8871 18.8409 L 20.9231 20.0402 L 20.9587 21.2396 L 20.9944 22.4389 L 21.0304 23.6383 L 21.0665 24.8376 L 21.1025 26.0369 L 21.1385 27.2363 L 21.1745 28.4356 L 21.2105 29.635 L 21.2458 30.8343 L 21.2818 32.0337 L 21.3178 33.233 L 21.3538 34.4324 L 21.3898 35.6317 L 21.4258 36.831 L 21.4618 38.0304 L 21.4978 39.2297 L 21.5336 40.4291 L 21.5692 41.6284 L 21.6052 42.8278 L 21.6412 44.0271 L 21.6772 45.2264 L 21.7132 46.4258 L 21.7491 47.6251 L 21.7846 48.8245 L 21.8206 50.0238 L 21.8566 51.2232 L 21.8926 52.4225 L 21.9279 53.6219 L 21.9639 54.8212 L 21.9999 56.0205 L 22.0355 57.2199 L 22.0712 58.4192 L 22.1072 59.6186 L 22.1426 60.8179 L 22.1786 62.0173 L 22.2142 63.2166 L 22.2499 64.416 L 22.2852 65.6153 L 22.3212 66.8147 L 22.3567 68.014 L 22.3926 69.2134 L 22.4279 70.4128 L 22.4632 71.6121 L 22.4992 72.8115 L 22.5345 74.0108 L 22.5699 75.2102 L 22.6052 76.4095 L 22.6411 77.6089 L 22.6765 78.8082 L 22.7113 80.0076 L 22.7467 81.207 L 22.7822 82.4063 L 22.8177 83.6057 L 22.8524 84.8051 L 22.8879 86.0044 L 22.9231 87.2038 L 22.9581 88.4032 L 22.9936 89.6025 L 23.0284 90.8019 L 23.0632 92.0013 L 23.0986 93.2006 L 23.1333 94.4"
     id="path830" />
  <path
     stroke-width="1"
     fill="none"
     stroke="#45769e"
     d="M -5.4 -93.5333 L -4.20435 -93.4805 L -3.00888 -93.4238 L -1.81359 -93.3633 L -0.618512 -93.2989 L 0.576352 -93.2306 L 1.77098 -93.1581 L 2.96536 -93.0819 L 4.15949 -93.0017 L 5.35335 -92.9177 L 6.54693 -92.8298 L 7.74021 -92.7378 L 8.93318 -92.642 L 10.1258 -92.5423 L 11.3182 -92.4387 L 12.5101 -92.3312 L 13.7018 -92.2197 L 14.893 -92.1044 L 16.0839 -91.9851 L 17.2743 -91.8621 L 18.4644 -91.735 L 19.654 -91.604 L 20.8432 -91.4692 L 22.032 -91.3304 L 23.2203 -91.1879 L 24.4081 -91.0414 L 25.5954 -90.8908 L 26.7822 -90.7365 L 27.9685 -90.5784 L 29.1543 -90.4164 L 30.3396 -90.2504 L 31.5243 -90.0804 L 32.7084 -89.9067 L 33.892 -89.7291 L 35.0749 -89.5476 L 36.2573 -89.3621 L 37.439 -89.1727 L 38.6202 -88.9797 L 39.8007 -88.7827 L 40.9805 -88.5818 L 42.1596 -88.3769 L 43.3381 -88.1682 L 44.5159 -87.9557 L 45.693 -87.7393 L 46.8694 -87.5191 L 48.045 -87.2949 L 49.2199 -87.0668 L 50.394 -86.8349 L 51.5674 -86.5992 L 52.74 -86.3597 L 53.9118 -86.1161 L 55.0828 -85.8687 L 56.2529 -85.6175 L 57.4222 -85.3625 L 58.5907 -85.1037 L 59.7583 -84.8407 L 60.925 -84.5741 L 62.0909 -84.3036 L 63.2559 -84.0293 L 64.4199 -83.7512 L 65.583 -83.469 L 66.7452 -83.1831 L 67.9064 -82.8935 L 69.0667 -82.6"
     id="path832" />
  <path
     stroke-width="1"
     fill="none"
     stroke="#45769e"
     d="M -1.2 -91.1333 L -0.0165303 -91.0115 L 1.16695 -90.8898 L 2.35044 -90.7682 L 3.53394 -90.6467 L 4.71744 -90.5252 L 5.90095 -90.4038 L 7.08446 -90.2825 L 8.26799 -90.1612 L 9.45152 -90.04 L 10.6351 -89.9189 L 11.8186 -89.7978 L 13.0022 -89.6768 L 14.1857 -89.5558 L 15.3693 -89.4348 L 16.5528 -89.314 L 17.7364 -89.1932 L 18.92 -89.0724 L 20.1036 -88.9517 L 21.2871 -88.831 L 22.4707 -88.7104 L 23.6543 -88.5898 L 24.8379 -88.4692 L 26.0215 -88.3487 L 27.2051 -88.2282 L 28.3887 -88.1077 L 29.5723 -87.9873 L 30.7559 -87.8668 L 31.9396 -87.7464 L 33.1232 -87.626 L 34.3068 -87.5057 L 35.4904 -87.3853 L 36.674 -87.265 L 37.8576 -87.1447 L 39.0413 -87.0243 L 40.2249 -86.904 L 41.4085 -86.7836 L 42.5921 -86.6634 L 43.7758 -86.5431 L 44.9594 -86.4227 L 46.143 -86.3024 L 47.3266 -86.182 L 48.5102 -86.0617 L 49.6938 -85.9413 L 50.8775 -85.821 L 52.0611 -85.7006 L 53.2447 -85.5802 L 54.4283 -85.4598 L 55.6119 -85.3393 L 56.7955 -85.2188 L 57.9791 -85.0983 L 59.1627 -84.9777 L 60.3463 -84.8572 L 61.5299 -84.7366 L 62.7135 -84.6159 L 63.8971 -84.4952 L 65.0806 -84.3745 L 66.2642 -84.2537 L 67.4478 -84.1329 L 68.6313 -84.012 L 69.8149 -83.891 L 70.9985 -83.7701 L 72.182 -83.6491 L 73.3656 -83.528 L 74.5491 -83.4068 L 75.7326 -83.2855 L 76.9161 -83.1643 L 78.0997 -83.0429 L 79.2832 -82.9215 L 80.4667 -82.8"
     id="path834" />
  <path
     stroke-width="1"
     fill="none"
     stroke="#f77ff2"
     d="M 76.3333 -79.8 L 76.3512 -78.6106 L 76.3707 -77.4212 L 76.3915 -76.2319 L 76.4137 -75.0426 L 76.4375 -73.8533 L 76.4623 -72.664 L 76.4888 -71.4748 L 76.5163 -70.2856 L 76.5455 -69.0964 L 76.5758 -67.9073 L 76.6078 -66.7182 L 76.6415 -65.5292 L 76.6764 -64.3401 L 76.7121 -63.1512 L 76.7496 -61.9622 L 76.7885 -60.7733 L 76.8288 -59.5845 L 76.8705 -58.3957 L 76.914 -57.207 L 76.9584 -56.0183 L 77.0039 -54.8296 L 77.0513 -53.641 L 77.1001 -52.4525 L 77.15 -51.264 L 77.2015 -50.0756 L 77.2541 -48.8873 L 77.3084 -47.699 L 77.3637 -46.5108 L 77.4208 -45.3226 L 77.4792 -44.1345 L 77.5389 -42.9465 L 77.5997 -41.7585 L 77.6622 -40.5706 L 77.7263 -39.3828 L 77.7915 -38.1951 L 77.8579 -37.0074 L 77.9257 -35.8198 L 77.9952 -34.6324 L 78.0658 -33.4449 L 78.1381 -32.2576 L 78.2115 -31.0703 L 78.2865 -29.8832 L 78.3626 -28.6961 L 78.4401 -27.5091 L 78.5195 -26.3222 L 78.5993 -25.1354 L 78.6814 -23.9487 L 78.7643 -22.7621 L 78.8488 -21.5755 L 78.9342 -20.3891 L 79.0217 -19.2028 L 79.1103 -18.0166 L 79.1999 -16.8304 L 79.2912 -15.6444 L 79.3837 -14.4585 L 79.4776 -13.2727 L 79.5732 -12.087 L 79.6699 -10.9014 L 79.7677 -9.71592 L 79.8671 -8.53056 L 79.9683 -7.34535 L 80.0702 -6.1602 L 80.1737 -4.97518 L 80.2781 -3.79025 L 80.3847 -2.60551 L 80.4923 -1.42086 L 80.6009 -0.236308 L 80.7112 0.94809 L 80.8227 2.13238 L 80.9357 3.31652 L 81.0499 4.50056 L 81.1657 5.68443 L 81.2827 6.86818 L 81.4006 8.05185 L 81.5207 9.2353 L 81.6416 10.4187 L 81.7638 11.6019 L 81.8875 12.785 L 82.0124 13.9679 L 82.139 15.1507 L 82.2667 16.3333"
     id="path836" />
  <path
     stroke-width="1"
     fill="none"
     stroke="#f77ff2"
     d="M 79.2 -76.1333 L 79.1304 -74.9469 L 79.063 -73.7604 L 78.9967 -72.5738 L 78.9321 -71.3871 L 78.8691 -70.2003 L 78.8074 -69.0134 L 78.7476 -67.8265 L 78.6892 -66.6395 L 78.6322 -65.4524 L 78.5769 -64.2652 L 78.5233 -63.078 L 78.471 -61.8907 L 78.4201 -60.7033 L 78.3714 -59.5158 L 78.3239 -58.3283 L 78.2784 -57.1407 L 78.2336 -55.9531 L 78.1909 -54.7655 L 78.1499 -53.5777 L 78.1105 -52.3899 L 78.0726 -51.202 L 78.036 -50.0142 L 78.0015 -48.8262 L 77.9681 -47.6382 L 77.9364 -46.4502 L 77.9066 -45.2621 L 77.8782 -44.074 L 77.8514 -42.8858 L 77.8262 -41.6976 L 77.8028 -40.5094 L 77.7803 -39.3212 L 77.7603 -38.1329 L 77.7412 -36.9446 L 77.7242 -35.7563 L 77.7087 -34.5679 L 77.6948 -33.3795 L 77.6824 -32.1911 L 77.6716 -31.0027 L 77.6623 -29.8143 L 77.655 -28.6259 L 77.6491 -27.4374 L 77.6449 -26.249 L 77.6422 -25.0605 L 77.6413 -23.8721 L 77.6421 -22.6836 L 77.644 -21.4952 L 77.6481 -20.3067 L 77.6539 -19.1183 L 77.6609 -17.9298 L 77.6694 -16.7414 L 77.6801 -15.553 L 77.6924 -14.3646 L 77.7058 -13.1762 L 77.7211 -11.9879 L 77.7384 -10.7996 L 77.7568 -9.61125 L 77.7773 -8.42297 L 77.7996 -7.23472 L 77.8231 -6.0465 L 77.848 -4.8583 L 77.8753 -3.67016 L 77.904 -2.48205 L 77.9341 -1.29398 L 77.9663 -0.10596 L 77.9996 1.08203 L 78.0351 2.26995 L 78.072 3.45784 L 78.1103 4.64567 L 78.1507 5.83344 L 78.1929 7.02115 L 78.2364 8.20881 L 78.2818 9.39639 L 78.3284 10.5839 L 78.3771 11.7714 L 78.4274 12.9588 L 78.4798 14.1461 L 78.5333 15.3333"
     id="path838" />
  <path
     stroke-width="1"
     fill="none"
     stroke="#ff0000"
     d="M 76.8 20.4667 L 76.0494 21.3887 L 75.3006 22.3122 L 74.5535 23.237 L 73.8079 24.163 L 73.0643 25.0907 L 72.3228 26.0201 L 71.5828 26.9506 L 70.8444 27.8825 L 70.108 28.8158 L 69.3733 29.7506 L 68.6405 30.6868 L 67.9094 31.6243 L 67.1801 32.5633 L 66.4525 33.5036 L 65.7268 34.4453 L 65.003 35.3885 L 64.2809 36.3331 L 63.5603 37.2787 L 62.8418 38.2259 L 62.1254 39.1748 L 61.4103 40.1246 L 60.6973 41.0759 L 59.986 42.0286 L 59.2767 42.9827 L 58.5689 43.938 L 57.8631 44.8948 L 57.1594 45.853 L 56.4573 46.8125 L 55.7568 47.7731 L 55.0585 48.7353 L 54.3616 49.6986 L 53.6668 50.6634 L 52.974 51.6296 L 52.2829 52.597 L 51.5939 53.5659 L 50.9063 54.5358 L 50.2206 55.507 L 49.5372 56.4799 L 48.8554 57.4539 L 48.1754 58.4292 L 47.4976 59.4059 L 46.8209 60.3835 L 46.1468 61.3628 L 45.4742 62.3432 L 44.8037 63.325 L 44.1353 64.3082 L 43.4681 65.2923 L 42.8033 66.278 L 42.1401 67.2647 L 41.4788 68.2527 L 40.8199 69.2424 L 40.1627 70.2331 L 39.5068 71.2248 L 38.8534 72.218 L 38.2014 73.2122 L 37.5518 74.2079 L 36.904 75.2049 L 36.2582 76.2031 L 35.6138 77.2022 L 34.9715 78.2027 L 34.3315 79.2047 L 33.6931 80.2076 L 33.0567 81.2118 L 32.4224 82.2174 L 31.7898 83.2241 L 31.1592 84.232 L 30.5303 85.2409 L 29.9035 86.2512 L 29.2784 87.2626 L 28.656 88.2755 L 28.0348 89.2892 L 27.4157 90.3042 L 26.7986 91.3205 L 26.1836 92.3379 L 25.5704 93.3565 L 24.9588 94.3761 L 24.3496 95.397 L 23.7423 96.4191 L 23.1368 97.4423 L 22.5333 98.4667"
     id="path840" />
  <path
     stroke-width="1"
     fill="none"
     stroke="#ff0000"
     d="M 76.2 23 L 75.4162 23.8981 L 74.634 24.7977 L 73.8532 25.6984 L 73.0744 26.6008 L 72.2967 27.5043 L 71.5209 28.4093 L 70.7466 29.3156 L 69.9738 30.2233 L 69.2028 31.1324 L 68.4332 32.0427 L 67.665 32.9542 L 66.8989 33.8675 L 66.1341 34.7819 L 65.3707 35.6974 L 64.6095 36.6148 L 63.8497 37.5333 L 63.0911 38.4528 L 62.3346 39.374 L 61.5796 40.2965 L 60.826 41.2202 L 60.0741 42.1451 L 59.3237 43.0713 L 58.575 43.999 L 57.8279 44.9278 L 57.0827 45.8582 L 56.3388 46.7897 L 55.5966 47.7224 L 54.8559 48.6565 L 54.1168 49.5917 L 53.3798 50.5286 L 52.6442 51.4667 L 51.9099 52.4057 L 51.1773 53.346 L 50.4467 54.288 L 49.7176 55.231 L 48.9902 56.1754 L 48.2644 57.121 L 47.5401 58.0678 L 46.8172 59.0156 L 46.0964 59.965 L 45.3772 60.9157 L 44.6598 61.8677 L 43.9435 62.8205 L 43.2292 63.7748 L 42.5166 64.7304 L 41.8051 65.6869 L 41.0957 66.6449 L 40.3883 67.6044 L 39.6821 68.5647 L 38.9775 69.5262 L 38.2748 70.4891 L 37.5736 71.4531 L 36.8743 72.4185 L 36.1765 73.385 L 35.4804 74.3527 L 34.7859 75.3215 L 34.0931 76.2915 L 33.4022 77.2629 L 32.7127 78.2353 L 32.025 79.209 L 31.3385 80.1836 L 30.6541 81.1595 L 29.9715 82.1368 L 29.2906 83.1152 L 28.6114 84.0949 L 27.9333 85.0752 L 27.2576 86.0573 L 26.5834 87.0404 L 25.9107 88.0245 L 25.2398 89.0098 L 24.5706 89.9963 L 23.9028 90.9837 L 23.237 91.9725 L 22.5732 92.9626 L 21.9105 93.9535 L 21.2494 94.9454 L 20.5907 95.9389 L 19.9333 96.9333"
     id="path842" />
  <path
     stroke-width="1"
     fill="none"
     stroke="#db7093"
     d="M -97.3333 55.6 L -96.1852 55.9192 L -95.0365 56.2366 L -93.8873 56.5518 L -92.7375 56.8652 L -91.5872 57.1764 L -90.4362 57.4853 L -89.2849 57.7927 L -88.133 58.0981 L -86.9805 58.4012 L -85.8274 58.7023 L -84.6738 59.0011 L -83.5198 59.2984 L -82.3653 59.5937 L -81.2102 59.8868 L -80.0547 60.1782 L -78.8985 60.4669 L -77.742 60.7543 L -76.585 61.0397 L -75.4273 61.3227 L -74.2693 61.604 L -73.1109 61.8836 L -71.9519 62.1606 L -70.7925 62.4362 L -69.6326 62.7096 L -68.4721 62.9808 L -67.3114 63.2506 L -66.1501 63.5182 L -64.9884 63.7838 L -63.8262 64.0471 L -62.6636 64.3088 L -61.5005 64.5684 L -60.3371 64.8266 L -59.1732 65.0827 L -58.0089 65.3365 L -56.8441 65.5881 L -55.6789 65.8383 L -54.5133 66.0864 L -53.3474 66.333 L -52.181 66.5768 L -51.0142 66.8195 L -49.847 67.0596 L -48.6794 67.2983 L -47.5115 67.5348 L -46.3431 67.7696 L -45.1744 68.0024 L -44.0052 68.2331 L -42.8358 68.4624 L -41.6659 68.6895 L -40.4957 68.9144 L -39.3251 69.1376 L -38.1541 69.3589 L -36.9829 69.5787 L -35.8112 69.7964 L -34.6392 70.012 L -33.4668 70.2257 L -32.2941 70.4376 L -31.1211 70.648 L -29.9477 70.8557 L -28.774 71.0621 L -27.6 71.2667"
     id="path844" />
  <path
     stroke-width="1"
     fill="none"
     stroke="#db7093"
     d="M -44.2667 66.8 L -43.178 67.2561 L -42.088 67.7092 L -40.9968 68.1593 L -39.9046 68.6068 L -38.8109 69.0507 L -37.7161 69.492 L -36.6202 69.9305 L -35.523 70.3658 L -34.4248 70.7983 L -33.3253 71.2277 L -32.2247 71.6543 L -31.1229 72.0778 L -30.02 72.4982 L -28.9159 72.9158 L -27.8108 73.3306 L -26.7044 73.7418 L -25.5971 74.1506 L -24.4886 74.5561 L -23.3789 74.9584 L -22.2683 75.3583 L -21.1565 75.7546 L -20.0437 76.1482 L -18.9297 76.5386 L -17.8148 76.9262 L -16.6989 77.3108 L -15.5817 77.692 L -14.4637 78.0704 L -13.3445 78.4456 L -12.2244 78.8179 L -11.1035 79.1877 L -9.98126 79.5537 L -8.85815 79.9169 L -7.73402 80.2769 L -6.60886 80.6336 L -5.48282 80.9876 L -4.35582 81.3385 L -3.2279 81.6864 L -2.09907 82.0314 L -0.969209 82.373 L 0.161509 82.7118 L 1.2933 83.0469 L 2.42585 83.3795 L 3.55927 83.7091 L 4.69367 84.0353 L 5.82897 84.3583 L 6.96516 84.6782 L 8.10217 84.9952 L 9.2401 85.3089 L 10.3788 85.6199 L 11.5183 85.9274 L 12.6588 86.2319 L 13.8 86.5333"
     id="path846" />
  <path
     stroke-width="1"
     fill="none"
     stroke="#1e90ff"
     d="M -96.5333 -44.6667 L -96.5844 -43.494 L -96.6315 -42.3212 L -96.6745 -41.1482 L -96.7134 -39.9751 L -96.748 -38.8018 L -96.7785 -37.6284 L -96.8049 -36.455 L -96.8272 -35.2814 L -96.8452 -34.1078 L -96.8591 -32.9341 L -96.8689 -31.7603 L -96.8746 -30.5866 L -96.8761 -29.4128 L -96.8733 -28.2391 L -96.8665 -27.0653 L -96.8556 -25.8916 L -96.8405 -24.7179 L -96.8211 -23.5443 L -96.7976 -22.3708 L -96.77 -21.1973 L -96.7384 -20.024 L -96.7023 -18.8507 L -96.6622 -17.6777 L -96.6181 -16.5047 L -96.5698 -15.3319 L -96.5172 -14.1594 L -96.4605 -12.987 L -96.3997 -11.8148 L -96.3348 -10.6428 L -96.2656 -9.47105 L -96.1923 -8.29957 L -96.1149 -7.12835 L -96.0335 -5.95741 L -95.9478 -4.78677 L -95.8579 -3.61644 L -95.764 -2.44644 L -95.666 -1.27677 L -95.5638 -0.107449 L -95.4574 1.06149 L -95.347 2.23005 L -95.2325 3.39823 L -95.1139 4.566 L -94.991 5.73331 L -94.8641 6.9002 L -94.7333 8.06667"
     id="path848" />
  <path
     stroke-width="1"
     fill="none"
     stroke="#1e90ff"
     d="M -94.6 -10 L -94.6836 -8.81064 L -94.7634 -7.62101 L -94.8392 -6.43113 L -94.9112 -5.24101 L -94.9792 -4.05065 L -95.0432 -2.86007 L -95.1032 -1.66929 L -95.1594 -0.478316 L -95.2118 0.712832 L -95.2602 1.90415 L -95.3045 3.09562 L -95.3451 4.28723 L -95.3817 5.47896 L -95.4146 6.6708 L -95.4434 7.86275 L -95.4683 9.05479 L -95.4894 10.2469 L -95.5067 11.4391 L -95.5201 12.6313 L -95.5295 13.8236 L -95.535 15.0158 L -95.5368 16.2081 L -95.5347 17.4004 L -95.5288 18.5927 L -95.5189 19.785 L -95.5053 20.9772 L -95.4878 22.1694 L -95.4666 23.3615 L -95.4414 24.5535 L -95.4124 25.7454 L -95.3796 26.9373 L -95.343 28.129 L -95.3027 29.3206 L -95.2584 30.5121 L -95.2104 31.7034 L -95.1586 32.8946 L -95.1031 34.0856 L -95.0437 35.2764 L -94.9805 36.4671 L -94.9135 37.6575 L -94.8429 38.8477 L -94.7685 40.0377 L -94.6903 41.2274 L -94.6082 42.4169 L -94.5225 43.6061 L -94.433 44.795 L -94.3399 45.9837 L -94.2429 47.172 L -94.1421 48.36 L -94.0377 49.5477 L -93.9296 50.7351 L -93.8179 51.9222 L -93.7022 53.1089 L -93.5828 54.2952 L -93.4599 55.4811 L -93.3333 56.6667"
     id="path850" />
  <path
     stroke-width="1"
     fill="none"
     stroke="#1e90ff"
     d="M -92.4 -48.2667 L -92.3947 -47.0818 L -92.3893 -45.8969 L -92.384 -44.712 L -92.3787 -43.5271 L -92.3733 -42.3422 L -92.368 -41.1573 L -92.3626 -39.9724 L -92.3573 -38.7876 L -92.352 -37.6027 L -92.3466 -36.4178 L -92.3413 -35.2329 L -92.336 -34.048 L -92.3306 -32.8631 L -92.3253 -31.6782 L -92.32 -30.4933 L -92.3146 -29.3084 L -92.3093 -28.1236 L -92.304 -26.9387 L -92.2986 -25.7538 L -92.2933 -24.5689 L -92.288 -23.384 L -92.2826 -22.1991 L -92.2773 -21.0142 L -92.272 -19.8293 L -92.2666 -18.6444 L -92.2613 -17.4596 L -92.256 -16.2747 L -92.2507 -15.0898 L -92.2453 -13.9049 L -92.24 -12.72 L -92.2347 -11.5351 L -92.2293 -10.3502 L -92.224 -9.16533 L -92.2187 -7.98044 L -92.2133 -6.79556 L -92.208 -5.61067 L -92.2027 -4.42578 L -92.1973 -3.24089 L -92.192 -2.056 L -92.1867 -0.871111 L -92.1813 0.313778 L -92.176 1.49867 L -92.1707 2.68356 L -92.1653 3.86844 L -92.16 5.05333 L -92.1547 6.23822 L -92.1494 7.42311 L -92.144 8.608 L -92.1387 9.79289 L -92.1334 10.9778 L -92.128 12.1627 L -92.1227 13.3476 L -92.1174 14.5324 L -92.112 15.7173 L -92.1067 16.9022 L -92.1014 18.0871 L -92.096 19.272 L -92.0907 20.4569 L -92.0854 21.6418 L -92.08 22.8267 L -92.0747 24.0116 L -92.0694 25.1964 L -92.064 26.3813 L -92.0587 27.5662 L -92.0534 28.7511 L -92.048 29.936 L -92.0427 31.1209 L -92.0374 32.3058 L -92.032 33.4907 L -92.0267 34.6756 L -92.0213 35.8604 L -92.016 37.0453 L -92.0107 38.2302 L -92.0053 39.4151 L -92 40.6"
     id="path852" />
  <path
     stroke-width="1"
     fill="none"
     stroke="#00ee00"
     d="M -94.8667 -52.6 L -93.7751 -52.967 L -92.6767 -53.3133 L -91.572 -53.6389 L -90.4613 -53.9434 L -89.3449 -54.226 L -88.2234 -54.4881 L -87.0974 -54.7298 L -85.967 -54.9501 L -84.8327 -55.1491 L -83.695 -55.328 L -82.5543 -55.4866 L -81.4108 -55.6233 L -80.265 -55.7397 L -79.1174 -55.8359 L -77.9682 -55.9114 L -76.8178 -55.9654 L -75.6667 -56"
     id="path854" />
  <path
     stroke-width="1"
     fill="none"
     stroke="#00ee00"
     d="M -86.4667 -58.0667 L -85.3643 -58.397 L -84.2622 -58.7281 L -83.1603 -59.06 L -82.0586 -59.3926 L -80.9571 -59.7257 L -79.8558 -60.0593 L -78.7545 -60.3934 L -77.6534 -60.7279 L -76.5524 -61.0626 L -75.4514 -61.3975 L -74.3505 -61.7325 L -73.2495 -62.0675 L -72.1486 -62.4025 L -71.0476 -62.7375 L -69.9466 -63.0722 L -68.8455 -63.4066 L -67.7442 -63.7406 L -66.6429 -64.0743 L -65.5414 -64.4074 L -64.4397 -64.74 L -63.3378 -65.0719 L -62.2357 -65.403 L -61.1333 -65.7333"
     id="path856" />
  <path
     stroke-width="1"
     fill="none"
     stroke="#00ee00"
     d="M -71.5333 -60.2 L -70.4364 -60.5748 L -69.3432 -60.9605 L -68.2539 -61.3569 L -67.1686 -61.7642 L -66.0876 -62.1829 L -65.0109 -62.6123 L -63.9383 -63.0522 L -62.8704 -63.503 L -61.8071 -63.9647 L -60.7484 -64.4369 L -59.6944 -64.9194 L -58.6454 -65.4127 L -57.6014 -65.9167 L -56.5625 -66.4308 L -55.5286 -66.9552 L -54.5003 -67.4903 L -53.4774 -68.0357 L -52.4599 -68.5911 L -51.448 -69.1566 L -50.4421 -69.7329 L -49.442 -70.3191 L -48.4478 -70.9152 L -47.4596 -71.5211 L -46.478 -72.1378 L -45.5026 -72.7641 L -44.5333 -73.4"
     id="path858" />
  <path
     stroke-width="1"
     fill="none"
     stroke="#00ee00"
     d="M -54.4667 -66.8667 L -53.4819 -67.4824 L -52.4847 -68.0779 L -51.4756 -68.6529 L -50.4548 -69.2068 L -49.4221 -69.7383 L -48.3787 -70.2486 L -47.3252 -70.7374 L -46.2615 -71.2038 L -45.1879 -71.647 L -44.1055 -72.068 L -43.0146 -72.4666 L -41.9153 -72.8416 L -40.8082 -73.1925 L -39.694 -73.5203 L -38.5731 -73.8247 L -37.4459 -74.1044 L -36.3127 -74.3593 L -35.1745 -74.59 L -34.0315 -74.7965 L -32.8842 -74.9772 L -31.7333 -75.1333"
     id="path860" />
  <path
     stroke-width="1"
     fill="none"
     stroke="#00ee00"
     d="M -56.6 -72.1333 L -55.5286 -72.5632 L -54.4537 -72.9842 L -53.3753 -73.3964 L -52.2935 -73.7994 L -51.2083 -74.193 L -50.1198 -74.5777 L -49.0283 -74.9535 L -47.9336 -75.3201 L -46.8359 -75.6775 L -45.7354 -76.026 L -44.632 -76.3657 L -43.5258 -76.6958 L -42.417 -77.017 L -41.3056 -77.3294 L -40.1918 -77.6329 L -39.0754 -77.9268 L -37.9567 -78.2119 L -36.8359 -78.4882 L -35.7128 -78.7553 L -34.5875 -79.0131 L -33.4602 -79.2621 L -32.3311 -79.5023 L -31.2 -79.7333"
     id="path862" />
  <path
     stroke-width="1"
     fill="none"
     stroke="#00ee00"
     d="M -41.5333 -76.6667 L -40.5775 -77.348 L -39.6127 -78.0165 L -38.6392 -78.6721 L -37.657 -79.3148 L -36.6659 -79.9437 L -35.6665 -80.5594 L -34.6592 -81.1618 L -33.644 -81.7511 L -32.6209 -82.3264 L -31.5902 -82.888 L -30.5522 -83.4361 L -29.5073 -83.9707 L -28.4553 -84.4914 L -27.3965 -84.9979 L -26.3311 -85.4905 L -25.2594 -85.9694 L -24.1817 -86.4343 L -23.0976 -86.8843 L -22.0079 -87.3206 L -20.9126 -87.7427 L -19.812 -88.1507 L -18.7059 -88.5435 L -17.5949 -88.9221 L -16.4791 -89.2863 L -15.3587 -89.6362 L -14.2335 -89.9705 L -13.1042 -90.2904 L -11.9708 -90.5957 L -10.8336 -90.8862 L -9.69242 -91.1611 L -8.54779 -91.4211 L -7.4 -91.6667"
     id="path864" />
  <path
     stroke-width="1"
     fill="none"
     stroke="#00ee00"
     d="M -33.8 -81.4 L -32.6453 -81.6238 L -31.4939 -81.8642 L -30.3465 -82.1227 L -29.2032 -82.3991 L -28.0642 -82.6925 L -26.9297 -83.0029 L -25.8 -83.3303 L -24.6756 -83.6756 L -23.5564 -84.0372 L -22.4426 -84.4153 L -21.3345 -84.8098 L -20.2328 -85.2216 L -19.1372 -85.6494 L -18.0479 -86.0932 L -16.9652 -86.5527 L -15.8897 -87.0288 L -14.8212 -87.5206 L -13.76 -88.028 L -12.7062 -88.5504 L -11.6604 -89.0887 L -10.6228 -89.6425 L -9.59324 -90.2112 L -8.57195 -90.7947 L -7.55925 -91.3929 L -6.55591 -92.0067 L -5.56131 -92.6346 L -4.576 -93.2769 L -3.6 -93.9333"
     id="path866" />
  <path
     stroke-width="1"
     fill="none"
     stroke="#00ee00"
     d="M -64.1333 -66.1333 L -63.0507 -66.634 L -61.966 -67.1303 L -60.8793 -67.6223 L -59.7907 -68.1098 L -58.7001 -68.593 L -57.6074 -69.0716 L -56.5129 -69.5458 L -55.4165 -70.0156 L -54.3182 -70.481 L -53.218 -70.9419 L -52.1159 -71.3982 L -51.0119 -71.85 L -49.9062 -72.2975 L -48.7987 -72.7405 L -47.6893 -73.1788 L -46.5781 -73.6127 L -45.4652 -74.042 L -44.3506 -74.4669 L -43.2343 -74.8873 L -42.1163 -75.3029 L -40.9965 -75.714 L -39.8751 -76.1207 L -38.7521 -76.5228 L -37.6274 -76.9203 L -36.5011 -77.313 L -35.3732 -77.7013 L -34.2438 -78.085 L -33.1128 -78.4641 L -31.9802 -78.8386 L -30.8461 -79.2082 L -29.7105 -79.5733 L -28.5735 -79.9339 L -27.435 -80.2898 L -26.295 -80.641 L -25.1536 -80.9874 L -24.0108 -81.3293 L -22.8667 -81.6667"
     id="path868" />
  <path
     stroke-width="1"
     fill="none"
     stroke="#9046cc"
     d="M 72.6667 -43.6 L 72.2754 -42.4663 L 71.8805 -41.3338 L 71.4818 -40.2027 L 71.0799 -39.0726 L 70.6749 -37.9438 L 70.2654 -36.8165 L 69.8532 -35.6902 L 69.437 -34.5654 L 69.0174 -33.4418 L 68.5947 -32.3195 L 68.1676 -31.1987 L 67.7373 -30.0792 L 67.3038 -28.961 L 66.8665 -27.8442 L 66.4261 -26.7286 L 65.9812 -25.6148 L 65.5336 -24.5022 L 65.0821 -23.3911 L 64.6272 -22.2813 L 64.169 -21.1729 L 63.7069 -20.0662 L 63.2413 -18.9609 L 62.7719 -17.8572 L 62.2996 -16.7548 L 61.8234 -15.654 L 61.3436 -14.5548 L 60.8603 -13.4572 L 60.3736 -12.361 L 59.8833 -11.2665 L 59.3896 -10.1734 L 58.892 -9.0822 L 58.391 -7.99249 L 57.886 -6.90465 L 57.3783 -5.81807 L 56.8667 -4.73333"
     id="path870"
     style="stroke:#74476e;stroke-opacity:1" />
  <path
     stroke-width="1"
     fill="none"
     stroke="#6a7b53"
     d="M 63.4 -13.6 L 62.8729 -12.5541 L 62.3511 -11.5055 L 61.8358 -10.4537 L 61.3265 -9.39905 L 60.8237 -8.34123 L 60.3269 -7.28056 L 59.8368 -6.2168 L 59.3525 -5.1504 L 58.8747 -4.08107 L 58.4028 -3.00909 L 57.9377 -1.93419 L 57.4784 -0.856764 L 57.0262 0.223665 L 56.5803 1.30666 L 56.1407 2.39226 L 55.7072 3.48035 L 55.2807 4.57115 L 54.8606 5.66444 L 54.4469 6.76015 L 54.0397 7.85833 L 53.6389 8.95885 L 53.245 10.0619 L 52.8579 11.1673 L 52.4769 12.2748 L 52.1031 13.3848 L 51.7358 14.4969 L 51.3751 15.6112 L 51.0213 16.7277 L 50.674 17.8463 L 50.3336 18.967 L 49.9999 20.0897 L 49.6731 21.2144 L 49.3531 22.341 L 49.0399 23.4696 L 48.7333 24.6"
     id="path872"
     style="stroke:#74476e;stroke-opacity:1" />
  <path
     stroke-width="1"
     fill="none"
     stroke="#ff1493"
     d="M 72 -22.4667 L 71.5333 -21.3714 L 71.0667 -20.2762 L 70.6 -19.181 L 70.1333 -18.0857 L 69.6667 -16.9905 L 69.2 -15.8952 L 68.7333 -14.8 L 68.2667 -13.7048 L 67.8 -12.6095 L 67.3331 -11.5144 L 66.8664 -10.4191 L 66.3998 -9.32391 L 65.9331 -8.22867 L 65.4664 -7.13343 L 64.9998 -6.0382 L 64.5331 -4.94296 L 64.0664 -3.84772 L 63.5998 -2.75248 L 63.1331 -1.65724 L 62.6664 -0.562006 L 62.1998 0.533232 L 61.7333 1.62854 L 61.267 2.72395 L 60.8003 3.81919 L 60.3337 4.91443 L 59.867 6.00966 L 59.4003 7.1049 L 58.9337 8.20014 L 58.4667 9.29528 L 58.0001 10.3905 L 57.5334 11.4858 L 57.0667 12.581 L 56.6001 13.6762 L 56.1334 14.7715 L 55.6667 15.8667 L 55.2001 16.9619 L 54.7334 18.0572 L 54.2667 19.1524 L 53.8001 20.2477 L 53.3334 21.3429 L 52.8667 22.4381 L 52.4 23.5333"
     id="path874"
     style="stroke:#74476e;stroke-opacity:1" />
  <path
     stroke-width="1"
     fill="none"
     stroke="#7fffd4"
     d="M 70.7333 -9.4 L 70.2028 -8.33267 L 69.6775 -7.26271 L 69.1567 -6.19063 L 68.6411 -5.11596 L 68.1302 -4.03908 L 67.6249 -2.95959 L 67.1241 -1.87796 L 66.6287 -0.793861 L 66.1382 0.292454 L 65.6529 1.3811 L 65.1728 2.4721 L 64.6975 3.56513 L 64.2279 4.66067 L 63.7632 5.75825 L 63.3033 6.85787 L 62.8494 7.95999 L 62.4001 9.064 L 61.956 10.1701 L 61.5172 11.2783 L 61.0842 12.3888 L 60.6563 13.5013 L 60.2332 14.6156 L 59.8159 15.7321 L 59.4034 16.8504 L 58.997 17.9709 L 58.5956 19.0932 L 58.1994 20.2173 L 57.8088 21.3434 L 57.4233 22.4713 L 57.0438 23.6012 L 56.6696 24.7329 L 56.3007 25.8662 L 55.937 27.0013 L 55.5791 28.1382 L 55.227 29.277 L 54.8798 30.4172 L 54.5382 31.5591 L 54.2027 32.7029 L 53.9072 33.5812 L 54.0667 32.4"
     id="path876"
     style="stroke:#74476e;stroke-opacity:1" />
  <path
     stroke-width="1"
     fill="none"
     stroke="#9acd32"
     d="M 73.7333 -4.33333 L 73.2463 -3.24353 L 72.761 -2.15296 L 72.278 -1.06137 L 71.7977 0.0313668 L 71.3193 1.12499 L 70.8432 2.2196 L 70.3695 3.31525 L 69.8981 4.41192 L 69.4289 5.50949 L 68.9617 6.60794 L 68.4973 7.70758 L 68.035 8.80809 L 67.575 9.90956 L 67.1176 11.0121 L 66.6617 12.1153 L 66.2091 13.2198 L 65.7584 14.3251 L 65.3097 15.4313 L 64.8641 16.5386 L 64.4203 17.6467 L 63.9792 18.7559 L 63.5403 19.866 L 63.1041 20.9771 L 62.6698 22.089 L 62.2384 23.2019 L 61.8091 24.3157 L 61.3824 25.4305 L 60.9581 26.5462 L 60.5363 27.6629 L 60.1167 28.7804 L 59.6995 29.8988 L 59.2851 31.0182 L 58.8729 32.1384 L 58.4635 33.2597 L 58.0561 34.3817 L 57.6516 35.5048 L 57.2496 36.6287 L 56.8502 37.7535 L 56.453 38.8792 L 56.0586 40.0058 L 55.6667 41.1333"
     id="path878"
     style="stroke:#74476e;stroke-opacity:1" />
  <path
     stroke-width="1"
     fill="none"
     stroke="#ba55d3"
     d="M 72.4667 7.46667 L 72.0651 8.55674 L 71.6643 9.64711 L 71.2631 10.7374 L 70.8621 11.8276 L 70.4619 12.9182 L 70.0614 14.0087 L 69.6608 15.0992 L 69.2611 16.1899 L 68.8609 17.2805 L 68.4606 18.3711 L 68.0605 19.4617 L 67.6607 20.5524 L 67.2603 21.6429 L 66.8602 22.7336 L 66.4601 23.8242 L 66.0594 24.9146 L 65.6588 26.005 L 65.2584 27.0956 L 64.8572 28.1858 L 64.4558 29.2759 L 64.3653 29.7791 L 64.916 28.7562 L 65.4667 27.7333"
     id="path880"
     style="stroke:#74476e;stroke-opacity:1" />
  <path
     stroke-width="1"
     fill="none"
     stroke="#ff00ff"
     d="M 74.6667 13.2 L 74.2867 14.3259 L 73.9093 15.4526 L 73.5341 16.58 L 73.16 17.7079 L 72.7866 18.8359 L 72.4136 19.9641 L 72.0401 21.0922 L 71.6662 22.22 L 71.2906 23.3474 L 70.913 24.474 L 70.5333 25.6"
     id="path882"
     style="stroke:#74476e;stroke-opacity:1" />
  <path
     stroke-width="1"
     fill="none"
     stroke="#d2691e"
     d="M -12.6 55.1333 L -12.4293 53.9525 L -12.1206 52.8003 L -11.6836 51.6904 L -11.1344 50.6313 L -10.4908 49.6265 L -9.76702 48.6774 L -8.97639 47.7833 L -8.13438 46.9374 L -7.25034 46.1354 L -6.32965 45.3756 L -5.37998 44.6524 L -4.40703 43.9608 L -3.41396 43.2983 L -2.40382 42.6622 L -1.38045 42.0476 L -0.346227 41.4513 L 0.696434 40.87 L 1.74495 40.2992 L 2.77851 39.7527 L 2.16056 40.7741 L 1.55022 41.8001 L 0.953327 42.8339 L 0.369404 43.8752 L -0.202009 44.9233 L -0.761359 45.9779 L -1.30811 47.0392 L -1.84198 48.1069 L -2.36366 49.1807 L -2.87278 50.2604 L -3.36789 51.3467 L -3.84913 52.4392 L -4.3164 53.5377 L -4.76782 54.6429 L -5.20277 55.7546 L -5.62068 56.8728 L -6.02041 57.9977 L -6.39855 59.13 L -6.75531 60.2692 L -7.08798 61.4157 L -7.39384 62.5696 L -7.66861 63.7313 L -7.90878 64.9006 L -8.11 66.0772 L -8.26642 67.2606 L -7.72744 67.8881 L -6.55691 67.66 L -5.43886 67.2446 L -4.39117 66.6744 L -3.42021 65.9811 L -2.52218 65.1953 L -1.68945 64.3402 L -0.913559 63.4331 L -0.184035 62.4884 L 0.508722 61.5163 L 1.17105 60.5231 L 1.80879 59.514 L 2.42891 58.4939 L 3.03543 57.4656 L 3.63412 56.4328 L 4.22838 55.3975 L 4.82304 54.3623 L 5.42196 53.3296 L 6.03044 52.3026 L 6.6518 51.2833 L 7.29234 50.2759 L 7.95643 49.2839 L 8.64901 48.3117 L 9.38056 47.3684 L 10.1561 46.4611 L 10.984 45.6015 L 11.8728 44.8053 L 12.8303 44.0934 L 13.8607 43.4925 L 14.9599 43.0297 L 16.114 42.7305 L 17.2709 42.6995 L 17.0998 43.7357 L 16.6314 44.8337 L 16.1227 45.9136 L 15.5762 46.9749 L 14.9953 48.0178 L 14.3853 49.0439 L 13.749 50.0539 L 13.0899 51.0493 L 12.4109 52.0311 L 11.7145 53.0007 L 11.0046 53.9605 L 10.284 54.9123 L 9.555 55.8576 L 8.81988 56.7982 L 8.08144 57.7362 L 7.34189 58.6733 L 6.60384 59.6116 L 5.86922 60.5526 L 5.14169 61.4991 L 4.42269 62.4521 L 3.71434 63.413 L 3.02045 64.3844 L 2.34336 65.3676 L 1.68609 66.3641 L 1.05163 67.3753 L 0.442639 68.402 L -0.13791 69.4451 L -0.684511 70.5063 L -1.19515 71.5853 L -1.66705 72.6818 L -2.09734 73.7952 L -1.89984 74.2395 L -1.04075 73.411 L -0.231599 72.5334 L 0.542128 71.6244 L 1.29097 70.6948 L 2.02254 69.7514 L 2.74147 68.7984 L 3.45318 67.8399 L 4.16169 66.8791 L 4.87071 65.9187 L 5.58343 64.961 L 6.30419 64.0094 L 7.03551 63.0658 L 7.78253 62.1347 L 8.54836 61.2189 L 9.3372 60.323 L 10.1594 59.4575 L 11.0176 58.628 L 11.9214 57.8486 L 12.8815 57.14 L 13.9078 56.532 L 15.0061 56.0684 L 16.1688 55.8097 L 15.8299 56.9088 L 15.3872 58.0173 L 14.8939 59.1043 L 14.3627 60.1733 L 13.8029 61.2276 L 13.2216 62.2703 L 12.6251 63.3044 L 12.0207 64.3339 L 11.4134 65.3617 L 10.8077 66.3904 L 10.2093 67.4234 L 9.62315 68.4634 L 9.05571 69.5137 L 8.51322 70.577 L 8.00276 71.6561 L 7.5327 72.7533 L 7.11696 73.8722 L 6.76686 75.0133 L 6.4971 76.1758 L 6.32591 77.3566 L 6.59934 78.3028 L 7.64522 77.7429 L 8.61758 77.052 L 9.51866 76.2698 L 10.3564 75.4197 L 11.14 74.5192 L 11.8883 73.5892 L 12.6159 72.6427 L 13.3373 71.6915 L 14.0704 70.7494 L 14.8326 69.8308 L 15.6421 68.9539 L 16.519 68.1447 L 17.4807 67.4393 L 17.8836 67.8724 L 17.6118 69.0343 L 17.2316 70.1656 L 16.7681 71.2654 L 16.2425 72.337 L 15.674 73.3867 L 15.0807 74.4226 L 14.4798 75.4541 L 13.8905 76.4923 L 13.6865 77.4155 L 14.7728 76.9222 L 15.8082 76.3283 L 16.8195 75.6941 L 17.8255 75.0514 L 18.8574 74.8185 L 19.487 75.8326 L 20.0481 76.8859 L 20.4667 78"
     id="path884" />
</svg>
